<svg xmlns="http://www.w3.org/2000/svg" xmlns:xlink="http://www.w3.org/1999/xlink" width="103.818" height="132.269" viewBox="0 0 103.818 132.269">
  <defs>
    <clipPath id="clip-path">
      <rect id="Rectangle_170" data-name="Rectangle 170" width="103.818" height="132.269" fill="none"/>
    </clipPath>
  </defs>
  <g id="Group_164" data-name="Group 164" clip-path="url(#clip-path)">
    <path id="Path_281" data-name="Path 281" d="M158.761,86.794l0,.011v0l0-.007" transform="translate(-79.009 -43.194)" fill="#6ec878"/>
    <path id="Path_282" data-name="Path 282" d="M160.129,90.042c-.044-.038-.045-.033,0,0" transform="translate(-79.673 -44.797)" fill="#6ec878"/>
    <path id="Path_283" data-name="Path 283" d="M53.512,131.046l0-.007c-.029.078-.013.054,0,.007" transform="translate(-26.621 -65.213)" fill="#6ec878"/>
    <path id="Path_284" data-name="Path 284" d="M158.75,86.837c0-.009,0-.016,0-.021-.032.16-.005.074,0,.021" transform="translate(-78.995 -43.205)" fill="#6ec878"/>
    <path id="Path_285" data-name="Path 285" d="M53.535,131.012V131l-.007.017,0,.005,0-.008" transform="translate(-26.639 -65.192)" fill="#6ec878"/>
    <path id="Path_286" data-name="Path 286" d="M122.823,85.329c-.082.009-.057.009,0,0" transform="translate(-61.098 -42.465)" fill="#6ec878"/>
    <path id="Path_287" data-name="Path 287" d="M53.55,130.9c0-.023,0-.042-.01-.047a.554.554,0,0,1,0,.072l0-.006.007-.02" transform="translate(-26.645 -65.12)" fill="#6ec878"/>
    <path id="Path_288" data-name="Path 288" d="M53.536,131.05l0-.009,0,.006a.207.207,0,0,1,0,.023v-.021" transform="translate(-26.64 -65.214)" fill="#6ec878"/>
    <path id="Path_289" data-name="Path 289" d="M52.78,140.223c.016.172.042.18.018.1a.913.913,0,0,1-.018-.1" transform="translate(-26.266 -69.783)" fill="#6ec878"/>
    <path id="Path_290" data-name="Path 290" d="M53.514,131.009s0,.009.006.015l0,0s0-.009-.008-.011" transform="translate(-26.632 -65.198)" fill="#6ec878"/>
    <path id="Path_291" data-name="Path 291" d="M159.859,84.065a3.053,3.053,0,0,0-.428.26,3.118,3.118,0,0,0-.337.341c-.075.123-.148.25-.221.374a2.821,2.821,0,0,0-.115.4.077.077,0,0,1,0,.025c0,.089-.008.348-.006.378,0,.009,0,.018,0,.028v0a3.774,3.774,0,0,0,.111.416,2.841,2.841,0,0,0,.277.475,3.449,3.449,0,0,0,.326.32l.026.019.015.009c.091-1.018.207-2.037.347-3.051" transform="translate(-79.005 -41.836)" fill="#f9ce00"/>
    <path id="Path_292" data-name="Path 292" d="M137.068,224.921q-2.086-12.052-4.172-24.1l-27.618,5.377,8.087,21.142h24.12l-.418-2.414" transform="translate(-52.392 -99.938)" fill="#f9ce00"/>
    <path id="Path_293" data-name="Path 293" d="M159.412,182.973l-2.591-40.262a.887.887,0,0,1,1.079-.944l-.331-2.314a10.1,10.1,0,0,1-2.244,2.855c-.951.85-2.361-.551-1.406-1.406.2-.183.393-.372.573-.565-.338-3.229-1.534-6.44-4.107-8.427a1,1,0,0,1-.647.311c-6.19.516-11.168-5.076-12.538-10.669-.344.231-.673.477-.992.733a.927.927,0,0,1-.466.8c-.541.335-1.065.69-1.582,1.056q-.33.326-.658.654.328-.328.658-.654c-11.5,8.483-18.309,23.493-20.578,37.331a.774.774,0,0,1-.78.717,16.611,16.611,0,0,0-.458,1.851l23.729-4.62q-.607-3.508-1.214-7.015c-.217-1.253,1.7-1.786,1.916-.528q3.117,18.008,6.234,36.016h16.717l-.316-4.916m-15.723-48.162a11.4,11.4,0,0,0-4.891,3.379,16.517,16.517,0,0,0-2.813,6.264,1,1,0,0,1-1.916-.528,18.41,18.41,0,0,1,3.324-7.141,13.546,13.546,0,0,1,5.768-3.89,1,1,0,0,1,1.223.694,1.023,1.023,0,0,1-.694,1.223" transform="translate(-55.91 -60.492)" fill="#4484ce"/>
    <path id="Path_294" data-name="Path 294" d="M52.149,203.786c-.016-1.029-.035-2.058-.064-3.087l-4.361-12.668a.986.986,0,0,1-.119.43,46.52,46.52,0,0,1-3.542,5.833c-2.826,4-6.3,4.007-10.147,1.078l.058.362-.058-.362c-.454-.334-.892-.685-1.31-1.036.348,7.363.54,14.74.915,22.1a8.2,8.2,0,0,0,6.427,7.333c4.489.882,8.284-2.4,10.291-6.094a.974.974,0,0,1,1.718.057l.192-.209c.058-4.577.068-9.156,0-13.734" transform="translate(-16.228 -93.575)" fill="#4484ce"/>
    <path id="Path_295" data-name="Path 295" d="M128.038,36.985c-5.364-3.87-10.006-9.272-10.444-16.1a3.743,3.743,0,0,1,1.9-3.881,20.22,20.22,0,0,1-3.381.916.921.921,0,0,1-.906,1.267c-6.656-.393-11.053,5.532-12.191,11.521a.858.858,0,0,1-1.2.654c-.183.783-.336,1.551-.463,2.316a.94.94,0,0,1,.246.636c.073,3.573-.009,7.15.251,10.716.395,5.423,1.643,11.842,7.024,14.465,4.573,2.295,11.287.433,14.641-3.248.84-.968,2.24.444,1.405,1.406a15.993,15.993,0,0,1-13.428,4.691,2.771,2.771,0,0,1,.095.565.924.924,0,0,1,.913.953,10.432,10.432,0,0,1-1.659,6.275,28.316,28.316,0,0,1-4.485,4.205,1.013,1.013,0,0,1-1.406,0l0,0a15.712,15.712,0,0,1-1.6.979c.358-.026.718-.043,1.081-.043-.363,0-.723.017-1.081.043l-.279.156,16.156.188a.942.942,0,0,1,.954.938h.671a37.737,37.737,0,0,1,8.425-7.262.978.978,0,0,1,1.469.92c.32-.256.649-.5.992-.733a46.7,46.7,0,0,1-.942-13.664,3.822,3.822,0,0,1-2.585-3.8,3.723,3.723,0,0,1,3.375-3.425c.441-2.995.953-6,1.35-9.007-.034-.008-.068-.014-.1-.021a2.558,2.558,0,0,0-.372,0,2.756,2.756,0,0,0-.413.115,2.821,2.821,0,0,0-.379.221,2.622,2.622,0,0,0-.278.276,2.412,2.412,0,0,0-.195.337.993.993,0,0,1-1.908-.547,3.535,3.535,0,0,1,1.328-1.741,4.063,4.063,0,0,1-1.911-1.119.842.842,0,0,1-.662-.164M107.2,34.67a.994.994,0,0,1,0,1.988.994.994,0,0,1,0-1.988m.029,7.83a7.714,7.714,0,0,0,2.141-2.88v0l0-.009a8.5,8.5,0,0,0,.44-1.468.994.994,0,1,1,1.917.528,9.479,9.479,0,0,1-3.1,5.235,1.02,1.02,0,0,1-1.406,0,1,1,0,0,1,0-1.405m8.569,9.283a6.666,6.666,0,0,1-8.547.037.994.994,0,0,1,1.406-1.406s.162.128.146.119a5.235,5.235,0,0,0,.789.463,5.726,5.726,0,0,0,1.194.329,6.374,6.374,0,0,0,1.387,0,5.75,5.75,0,0,0,1.234-.332l.131-.06a4.876,4.876,0,0,0,.687-.407,1.011,1.011,0,1,1,1.573,1.258m2.782-13.358a.994.994,0,0,1,0-1.987.994.994,0,0,1,0,1.987" transform="translate(-50.44 -8.461)" fill="#fff"/>
    <path id="Path_296" data-name="Path 296" d="M148.236,74.573c-1.329-6.15-5.3-11.344-6.692-17.489-2.1-8.5-2.4-17.3-2.774-26.011-.26-10.035-.885-20-11.115-24.875a.877.877,0,0,1-.3-1.365,19.173,19.173,0,0,0-2.511-.5,1.082,1.082,0,0,1-1.508.872,14.789,14.789,0,0,0-8.964-.962C104.441,6.15,94.018,16.66,96.787,27.4a.97.97,0,0,1-.843,1.218c.287.919.7,1.787,1,2.642,0-1.158,0-2.31-.028-3.445a1,1,0,0,1,1.742-.636c.127-.765.281-1.534.463-2.316a1.025,1.025,0,0,1-.718-1.182c1.3-6.828,6.605-13.424,14.108-12.981a.973.973,0,0,1,.906.721,20.235,20.235,0,0,0,3.381-.917,3.742,3.742,0,0,0-1.9,3.881,1,1,0,0,1,1.939.346c.737,5.952,4.776,10.67,9.508,14.041a1.065,1.065,0,0,1-.342,1.88,4.054,4.054,0,0,0,1.911,1.119,3.485,3.485,0,0,1,2.559-.616A45.958,45.958,0,0,0,130.4,18.4c-.21-1.253,1.705-1.787,1.916-.528a49.835,49.835,0,0,1,.028,14.4c-1.1,8.272-2.952,16.525-2.213,24.917.262,3.65.928,7.368,3.2,10.346,1.96,2.574,4.925,4.5,8.255,4.176.994-.1,1.2,1.091.647,1.676,2.572,1.987,3.768,5.2,4.107,8.428a7.837,7.837,0,0,0,1.9-7.238" transform="translate(-47.747 -1.965)" fill="#fff"/>
    <path id="Path_297" data-name="Path 297" d="M89.832,175.373c-.241-1.321,1.8-1.773,1.937-.425.2-.169.4-.344.6-.534q-.219-.57-.436-1.14a1,1,0,0,1,.694-1.222l5.16-1a16.588,16.588,0,0,1,.458-1.851,1.105,1.105,0,0,1-1.136-1.245,62.042,62.042,0,0,1,2.28-9.644,64.342,64.342,0,0,1,12.368-22.669h-.671a.932.932,0,0,1-.954,1.049l-2.3-.027-15.872-.184-.706,1.553a.858.858,0,0,1-.029.609c-1.7,4.327-3.478,8.628-5.465,12.83a26.473,26.473,0,0,0-2.44,6.577,29.919,29.919,0,0,0-.009,7.222c.583,9.866.928,19.755,1.22,29.631h9.043l-3.742-19.526" transform="translate(-41.349 -67.501)" fill="#fff"/>
    <path id="Path_298" data-name="Path 298" d="M77.149,186.594c-.295-8.147-.759-16.283-1.125-24.425a20.861,20.861,0,0,1,.542-6.591,47.483,47.483,0,0,1,2.944-7c1.678-3.627,3.192-7.334,4.651-11.054a1.07,1.07,0,0,1,1.945-.08l.706-1.553c-.134,0-.268,0-.4-.01-.084.115-.167.231-.243.359.076-.128.159-.244.243-.359a1,1,0,0,1-.823-1.419,13.963,13.963,0,0,0-6.532,4.5.84.84,0,0,1,.306,1.009c-1.539,4.55-4.208,8.634-5.779,13.162-1.744,5.026-.3,10.283.18,15.392.316,3.374.332,6.786.37,10.172-.046,5.188.231,10.466-.171,15.614H77.44c-.146-2.567-.177-5.148-.291-7.719" transform="translate(-36.203 -66.917)" fill="#4484ce"/>
    <path id="Path_299" data-name="Path 299" d="M103.749,133.241h.064l.279-.156c-.416.03-.826.081-1.233.145l.89.01" transform="translate(-51.189 -66.231)" fill="#6ec878"/>
    <path id="Path_300" data-name="Path 300" d="M101.1,104.454a11.893,11.893,0,0,1-6.144-2.833,8.6,8.6,0,0,1-.757,2.739,1.037,1.037,0,0,1,.425,1.35c-1.484,3.14-4.231,5.327-6.841,7.5-2.523,2.1-5.15,4.46-5.937,7.778a.927.927,0,0,1-1.378.592v3.691c.293-.715.575-1.435.823-2.169a1.041,1.041,0,0,1,1.61-.481,13.959,13.959,0,0,1,6.531-4.5c.324-.861,1.552-.485,2.285-.547.406-.064.817-.115,1.233-.145a15.7,15.7,0,0,0,1.6-.978,1,1,0,0,1,0-1.4c.8-.695,1.62-1.357,2.419-2.048a7.762,7.762,0,0,0,3.143-7.026.951.951,0,0,1,1.075-.954,2.768,2.768,0,0,0-.095-.565" transform="translate(-40.044 -50.573)" fill="#fff"/>
    <path id="Path_301" data-name="Path 301" d="M35.43,113.348a1.986,1.986,0,0,0,.113-1.748,3.028,3.028,0,0,1-2.932.547c-.3,1.285-.94,2.468-1.147,3.781a6.028,6.028,0,0,0,0,1.356c.064.554-.506.972-.994.994-.779.027-1.053-.794-1.017-1.436-.87.071-1.158-.928-1.4-1.566-.306-.72-.6-1.446-.848-2.189a4.984,4.984,0,0,1-.37-1.844c.159-1.309,1.195-2.328,1.963-3.333-.892-1.136.868-2.473,1.592-1.225a20.358,20.358,0,0,0,1.312,2.1c.525.874,1.549,2.108,2.615,1.285-.11.084.156-.194.156-.169a1.515,1.515,0,0,0,.109-.184c.017-.041.018-.17.029-.219-.887-1.572-2.046-3.15-2.991-4.722-.687-1.286-1.574-2.5-2.918-1.064-1.224,1.254-2.4,2.562-3.65,3.789a.977.977,0,0,1-1.529-.192q-1.849-3.089-3.673-6.193c-1.574-2.677-3.166-5.351-4.635-8.089a4.155,4.155,0,0,0-.748-1.264,1.257,1.257,0,0,0-1.456.031c-.832.565-.346,1.36.03,2.038q3.4,6.129,6.824,12.245a1.018,1.018,0,0,1-1.152,1.456l-.008.011c.868.794-.065,2.175-.963,1.788l-.013.025.013-.025a.955.955,0,0,1-.341-.263c-2.408-2.8-4.749-5.667-7.176-8.454-.367-.408-.737-.814-1.1-1.224-.536-.6-1.074-1.472-1.828-1.814a.7.7,0,0,0-.974.2c-.353.59.055,1.178.3,1.708,2.419,3.016,4.875,6,7.321,9a1,1,0,0,1-.79,1.688c.015.055.032.112.047.167.77.451,1.546.891,2.33,1.315,1.127.608.123,2.323-1,1.716-1.673-.9-3.314-1.872-4.922-2.885-1.174-.595-4.452-3.716-5.566-2.577-.556.878.414,1.712,1.168,2.086q.9.562,1.768,1.168c6.26,4.013,7.891,9.241,10.631,15.69a21.8,21.8,0,0,1,1.352,3.255,28.736,28.736,0,0,1,.48,3.563c.288,2.474.549,4.951.8,7.429.091.9-.877,1.155-1.5.781l.406,2.53c1.768,1.379,4.312,3.687,6.68,2.831a6.781,6.781,0,0,0,2.548-2.408,52.379,52.379,0,0,0,3.217-5.392.872.872,0,0,1,.725-.485l-.235-1.786a1,1,0,0,1-1.558-.807c-.2-2.07-.49-4.129-.723-6.195a1,1,0,0,1-.5-1.845c2.6-1.449,6.079-4.362,5.677-7.7-.2-1.688-.775-3.245-.394-4.963a15.53,15.53,0,0,1,.844-2.309M24.661,124.432a1.019,1.019,0,0,1-1.223-.694,16.357,16.357,0,0,0-7.26-8.7,1,1,0,0,1,1-1.717,18.471,18.471,0,0,1,8.174,9.887,1,1,0,0,1-.694,1.223" transform="translate(-1.927 -45.556)" fill="#fff"/>
    <path id="Path_302" data-name="Path 302" d="M33.382,123.362l.013.015.008-.011-.021,0" transform="translate(-16.613 -61.392)" fill="#6ec878"/>
    <path id="Path_303" data-name="Path 303" d="M100.967,212.827c-.2.19-.4.365-.6.534l3.824,19.951H108.8l-7.836-20.485" transform="translate(-49.949 -105.915)" fill="#fff"/>
    <path id="Path_304" data-name="Path 304" d="M55.485,136.912h0l0-.01,0,.01" transform="translate(-27.611 -68.13)" fill="#6ec878"/>
    <path id="Path_305" data-name="Path 305" d="M53.54,131.111c.007.07.011.087.013.082,0-.024-.007-.061-.013-.092v.011" transform="translate(-26.645 -65.243)" fill="#6ec878"/>
    <path id="Path_306" data-name="Path 306" d="M17.509,147.656a28.736,28.736,0,0,0-.48-3.563,21.78,21.78,0,0,0-1.352-3.255c-3.343-7.928-4.6-12.16-12.4-16.859-.751-.369-1.728-1.217-1.168-2.086,1.107-1.144,4.408,1.994,5.565,2.577,1.608,1.013,3.249,1.983,4.922,2.885,1.126.607,2.131-1.108,1-1.716-.785-.423-1.56-.864-2.33-1.314a4.385,4.385,0,0,0,1.019,2.031,4.385,4.385,0,0,1-1.019-2.031q-2.845-1.653-5.536-3.544a5.244,5.244,0,0,0-3.143-1.129c-3.014.207-3.419,4.009-1.114,5.534,1.186.865,2.476,1.575,3.649,2.466a16.98,16.98,0,0,1,5.27,6.13c.894,1.622,1.528,3.372,2.263,5.069.911,2.369,2.378,4.631,2.665,7.183.384,3.011.691,6.033,1,9.052a1,1,0,0,0,.491.781l-.328-2.037.328,2.037c.619.374,1.587.121,1.5-.781-.249-2.478-.51-4.955-.8-7.429" transform="translate(0 -59.544)" fill="#323232"/>
    <path id="Path_307" data-name="Path 307" d="M32.555,123.512l-.1-.12c-.321.508-.642,1.146-.963,1.788a1.036,1.036,0,0,0,1.064-1.668" transform="translate(-15.672 -61.407)" fill="#323232"/>
    <path id="Path_308" data-name="Path 308" d="M37.062,113.447c.582-1.7,1.464-3.085.515-4.855a.862.862,0,0,0-.741-.49,2.489,2.489,0,0,0-.384-1.988c-.982-1.468-1.919-2.966-2.869-4.455-.991-2-2.787-3.218-4.97-2.13A36.059,36.059,0,0,0,24.9,103.2c-2.633-4.384-5.3-8.77-7.7-13.283a4.881,4.881,0,0,0-1.185-1.691c-2.269-1.816-5.96.534-4.97,3.379a16.414,16.414,0,0,0,1.351,2.572q2.886,5.183,5.777,10.364c-2.081-2.422-4.1-4.9-6.2-7.3-1.136-1.117-1.983-2.606-3.407-3.384a2.708,2.708,0,0,0-3.9,1.614,3.965,3.965,0,0,0,.93,3.509c1.238,1.565,2.512,3.1,3.773,4.65q1.751,2.147,3.505,4.291a.825.825,0,0,0,.615.283,7.287,7.287,0,0,0-.441-1.318,7.287,7.287,0,0,1,.441,1.318,1,1,0,0,0,.79-1.689c-2.446-2.993-4.9-5.979-7.321-8.995-.241-.53-.648-1.119-.3-1.708a.7.7,0,0,1,.974-.2c.755.342,1.292,1.212,1.828,1.814.365.41.735.816,1.1,1.224,2.427,2.787,4.768,5.649,7.175,8.453a.946.946,0,0,0,.342.263c.321-.642.641-1.28.963-1.787l-.013-.015.02,0a4.09,4.09,0,0,1,.524-.688,4.09,4.09,0,0,0-.524.688,1.018,1.018,0,0,0,1.152-1.456q-3.415-6.121-6.824-12.245c-.376-.677-.861-1.473-.029-2.037a1.256,1.256,0,0,1,1.456-.031,4.143,4.143,0,0,1,.748,1.264c1.469,2.738,3.061,5.412,4.635,8.089q1.825,3.1,3.673,6.193a.977.977,0,0,0,1.529.192c1.249-1.227,2.426-2.535,3.65-3.789,1.343-1.434,2.229-.224,2.918,1.064.945,1.571,2.105,3.151,2.991,4.722a2.183,2.183,0,0,1-.029.219,1.473,1.473,0,0,1-.109.184c0-.025-.266.254-.156.17-1.067.822-2.088-.411-2.614-1.285a20.362,20.362,0,0,1-1.312-2.1c-.724-1.247-2.485.088-1.592,1.225-.768,1-1.8,2.024-1.963,3.333a4.984,4.984,0,0,0,.37,1.844c.247.743.542,1.469.847,2.189.24.635.531,1.639,1.4,1.566-.036.642.239,1.463,1.018,1.436.487-.022,1.057-.441.994-.994a5.969,5.969,0,0,1,0-1.356c.206-1.313.842-2.5,1.146-3.781a3.027,3.027,0,0,0,2.932-.547,1.987,1.987,0,0,1-.113,1.749,15.531,15.531,0,0,0-.844,2.309c-.381,1.718.19,3.275.394,4.963.4,3.338-3.078,6.25-5.677,7.7a1,1,0,0,0,.5,1.845c.234,2.066.528,4.125.723,6.195a1,1,0,0,0,1.558.807l-.314-2.386.314,2.386a.9.9,0,0,0,.43-.807c-.226-2.4-.587-4.781-.829-7.177,2.618-1.867,5.282-4.677,5.324-8.075-.063-1.973-.949-3.728-.278-5.693m-8.286.583a.784.784,0,0,0,.017.1c.025.083,0,.075-.017-.1m2.244-4.32c-.24.906-.605,1.767-.883,2.66l0-.009,0,.009a17.653,17.653,0,0,1-.964-2.812l0-.02a.3.3,0,0,1-.013-.092.21.21,0,0,0,0-.023c-.016.046-.032.071,0-.007,0-.006,0-.015-.006-.015s.005.006.008.011l.006-.017a.468.468,0,0,0,0-.072c.012.005.013.024.01.047.019-.048.037-.1.052-.148-.027.084-.034.106-.03.1a8.477,8.477,0,0,1,1.059-1.612,10.99,10.99,0,0,0,1.155,1.469.934.934,0,0,0-.383.535" transform="translate(-2.263 -43.59)" fill="#323232"/>
    <path id="Path_309" data-name="Path 309" d="M53.55,130.946l-.007.02,0,.006v.015a.245.245,0,0,0,.01-.04" transform="translate(-26.645 -65.166)" fill="#323232"/>
    <path id="Path_310" data-name="Path 310" d="M53.54,131.058v.021c.006.032.01.069.013.092a.407.407,0,0,0-.013-.113" transform="translate(-26.645 -65.222)" fill="#323232"/>
    <path id="Path_311" data-name="Path 311" d="M53.528,131.03l0,0a.026.026,0,0,1,0,.008l0-.007,0-.005" transform="translate(-26.638 -65.208)" fill="#323232"/>
    <path id="Path_312" data-name="Path 312" d="M53.538,131.042v-.016l0,.008,0,.009" transform="translate(-26.643 -65.206)" fill="#323232"/>
    <path id="Path_313" data-name="Path 313" d="M28.894,134.761a1,1,0,0,0-1,1.717,16.36,16.36,0,0,1,7.26,8.7,1.018,1.018,0,0,0,1.222.694,1,1,0,0,0,.694-1.223,18.469,18.469,0,0,0-8.174-9.887" transform="translate(-13.64 -66.995)" fill="#323232"/>
    <path id="Path_314" data-name="Path 314" d="M62.242,186.7l.23.669a.931.931,0,0,0-.23-.669" transform="translate(-30.975 -92.912)" fill="#323232"/>
    <path id="Path_315" data-name="Path 315" d="M49.9,220.774l-.972,1.06.972-1.06a.974.974,0,0,0-1.718-.057c-2.007,3.691-5.8,6.977-10.291,6.095a8.2,8.2,0,0,1-6.427-7.333c-.375-7.358-.567-14.735-.915-22.1.418.351.856.7,1.31,1.036l-.473-2.945c-.414-.35-.821-.706-1.222-1.061a1.006,1.006,0,0,0-1.7.7q.369,8.931.739,17.86c.09,2.175.1,4.37.271,6.541,1.268,10.361,12.856,12.536,18.9,4.5h0a16.164,16.164,0,0,0,1.519-2.3.934.934,0,0,0,0-.946" transform="translate(-14.165 -96.621)" fill="#323232"/>
    <path id="Path_316" data-name="Path 316" d="M41.368,196.165a7.817,7.817,0,0,0,3.525-2.923,46.488,46.488,0,0,0,3.542-5.833.982.982,0,0,0,.118-.43l-.23-.669a1.1,1.1,0,0,0-.879-.39l.154,1.169-.154-1.169a.871.871,0,0,0-.725.485A52.425,52.425,0,0,1,43.5,191.8a6.777,6.777,0,0,1-2.548,2.408c-2.37.855-4.907-1.45-6.68-2.831l.473,2.945c2.014,1.482,4.341,2.621,6.621,1.845" transform="translate(-17.057 -92.524)" fill="#323232"/>
    <path id="Path_317" data-name="Path 317" d="M114.866,108.383c.083,1.275-.633,2.55-.633,3.825,0-1.275.716-2.55.633-3.825a.95.95,0,0,0-1.075.954,7.76,7.76,0,0,1-3.143,7.026c-.8.691-1.623,1.353-2.419,2.048a1,1,0,0,0,0,1.4,5.309,5.309,0,0,0,1.485-1.576,5.309,5.309,0,0,1-1.485,1.576l0,0a1.013,1.013,0,0,0,1.405,0,28.3,28.3,0,0,0,4.485-4.205,10.426,10.426,0,0,0,1.659-6.274.924.924,0,0,0-.913-.954" transform="translate(-53.718 -53.937)" fill="#323232"/>
    <path id="Path_318" data-name="Path 318" d="M98.9,215.547l-.472-2.464a3.68,3.68,0,0,0-.955,1.06,3.68,3.68,0,0,1,.955-1.06c-.135-1.347-2.178-.9-1.937.425l3.742,19.526h2.018L98.9,215.547" transform="translate(-48.011 -105.637)" fill="#323232"/>
    <path id="Path_319" data-name="Path 319" d="M134.055,121.027a37.736,37.736,0,0,0-8.425,7.262h0a64.35,64.35,0,0,0-12.369,22.669,62.045,62.045,0,0,0-2.279,9.644,1.1,1.1,0,0,0,1.136,1.245,4.342,4.342,0,0,0,.1-2.23,4.342,4.342,0,0,1-.1,2.23.775.775,0,0,0,.781-.717c2.268-13.836,9.072-28.846,20.577-37.33a26.75,26.75,0,0,1,2.048-1.853.978.978,0,0,0-1.469-.92" transform="translate(-55.225 -60.153)" fill="#323232"/>
    <path id="Path_320" data-name="Path 320" d="M155.775,124.865c.517-.366,1.041-.722,1.581-1.056a.926.926,0,0,0,.466-.8,26.55,26.55,0,0,0-2.047,1.853" transform="translate(-77.523 -61.218)" fill="#323232"/>
    <path id="Path_321" data-name="Path 321" d="M75.493,143.7c-.248.733-.529,1.453-.822,2.169v0c-1.323,3.226-3.017,6.3-4.372,9.512-2.2,4.807-1.5,10.1-.735,15.146a76.256,76.256,0,0,1,.544,7.769l1.291,3.75-1.291-3.75c.141,5.606.133,11.214.065,16.821l.383-.418-.383.418c-.011,1-.016,1.994-.032,2.991a.967.967,0,0,0,.1.462h1.767c.4-5.149.125-10.427.17-15.614-.037-3.387-.053-6.8-.369-10.172-.479-5.109-1.923-10.366-.18-15.392,1.571-4.528,4.239-8.612,5.779-13.162a.84.84,0,0,0-.306-1.009,13.488,13.488,0,0,0-.926,1.3,13.488,13.488,0,0,1,.926-1.3,1.041,1.041,0,0,0-1.611.481" transform="translate(-34.249 -71.173)" fill="#323232"/>
    <path id="Path_322" data-name="Path 322" d="M118.24,134.522h1.236a.942.942,0,0,0-.954-.938l-16.156-.188a7.106,7.106,0,0,0-2.416,1.954c.132.014.267.006.4.01l.317-.7-.317.7,15.872.184,2.3.027a.933.933,0,0,0,.954-1.05Z" transform="translate(-49.74 -66.386)" fill="#323232"/>
    <path id="Path_323" data-name="Path 323" d="M99.186,133.342a.886.886,0,0,0-.876.564,14.538,14.538,0,0,1,2.285-.547l-1.41-.017" transform="translate(-48.925 -66.359)" fill="#323232"/>
    <path id="Path_324" data-name="Path 324" d="M99.053,135.34a7.1,7.1,0,0,1,2.416-1.954l-.954-.011a14.481,14.481,0,0,0-2.285.547,1,1,0,0,0,.823,1.418" transform="translate(-48.845 -66.375)" fill="#323232"/>
    <path id="Path_325" data-name="Path 325" d="M87.523,143.752l1.788-3.935a1.07,1.07,0,0,0-1.945.08c-1.459,3.72-2.973,7.428-4.651,11.054a47.482,47.482,0,0,0-2.944,7,20.85,20.85,0,0,0-.542,6.592c.527,10.711,1.037,21.428,1.416,32.144H82.59c-.292-9.877-.637-19.765-1.22-29.631a29.924,29.924,0,0,1,.009-7.223,26.488,26.488,0,0,1,2.439-6.577c1.987-4.2,3.768-8.5,5.465-12.831a.851.851,0,0,0,.029-.608Z" transform="translate(-39.409 -69.29)" fill="#323232"/>
    <path id="Path_326" data-name="Path 326" d="M135.25,206.147q-2.159-12.474-4.318-24.948c-.217-1.258-2.133-.725-1.916.528q.607,3.508,1.214,7.016l-23.729,4.62a3.687,3.687,0,0,0,.06,1.445,3.687,3.687,0,0,1-.06-1.445l-5.16,1a1,1,0,0,0-.694,1.223l.436,1.14a3.469,3.469,0,0,0,.957-1.42,3.469,3.469,0,0,1-.957,1.42l7.836,20.486h2.119q-4.043-10.571-8.087-21.142l27.618-5.377,4.59,26.519h2.008l-1.915-11.068" transform="translate(-50.065 -89.818)" fill="#323232"/>
    <path id="Path_327" data-name="Path 327" d="M164.644,144.08c-5.25,1.868-7.794,5.8-9.092,11.03a1,1,0,0,0,1.916.528c1.084-4.5,3.185-8.022,7.7-9.642a1.023,1.023,0,0,0,.694-1.222,1,1,0,0,0-1.223-.694" transform="translate(-77.393 -71.678)" fill="#323232"/>
    <path id="Path_328" data-name="Path 328" d="M170.858,84.784c-3.33.323-6.3-1.6-8.255-4.176-2.267-2.978-2.934-6.7-3.2-10.346-.738-8.393,1.117-16.645,2.213-24.917a49.817,49.817,0,0,0-.028-14.4c-.21-1.258-2.126-.725-1.916.528a45.937,45.937,0,0,1,.082,12.761,3.485,3.485,0,0,0-2.559.616,12.644,12.644,0,0,0,3.452.334,12.644,12.644,0,0,1-3.452-.334,3.528,3.528,0,0,0-1.328,1.741.993.993,0,0,0,1.908.548,2.415,2.415,0,0,1,.195-.337,2.816,2.816,0,0,1,.277-.276,2.865,2.865,0,0,1,.379-.221,2.782,2.782,0,0,1,.414-.114,2.415,2.415,0,0,1,.372,0c.034.007.069.013.1.021-.4,3.009-.91,6.012-1.351,9.006a3.724,3.724,0,0,0-3.376,3.425,3.824,3.824,0,0,0,2.585,3.8A46.68,46.68,0,0,0,158.32,76.1a12.028,12.028,0,0,1,1.326-.779,12.028,12.028,0,0,0-1.326.779c1.369,5.593,6.349,11.185,12.538,10.669a1,1,0,0,0,.647-.312,8.824,8.824,0,0,0-1.812-1.09,8.824,8.824,0,0,1,1.812,1.09c.554-.585.347-1.772-.647-1.676M157.451,60.26a.383.383,0,0,0,.033.027.383.383,0,0,1-.033-.027m.294-1.933c-.081.665-.149,1.33-.21,1.995l-.014-.009-.026-.019a3.27,3.27,0,0,1-.326-.32,2.937,2.937,0,0,1-.278-.475,4,4,0,0,1-.112-.416v0c0-.009,0-.018,0-.027,0-.03.008-.289.006-.378-.006.054-.033.14,0-.021l0-.011,0,.007a2.886,2.886,0,0,1,.115-.4c.072-.125.146-.252.221-.374a3.12,3.12,0,0,1,.337-.341,3.049,3.049,0,0,1,.427-.26c-.046.352-.094.7-.137,1.056" transform="translate(-77.028 -15.042)" fill="#323232"/>
    <path id="Path_329" data-name="Path 329" d="M179.08,68.645c-1.268-2.919-2.836-5.716-3.846-8.74-2.78-8.657-3.082-17.856-3.5-26.869-.343-7.715-.156-16.319-5.178-22.7A20.3,20.3,0,0,0,159.573,4.9a1,1,0,0,0-1.3.352A6.6,6.6,0,0,1,161.783,7.4a6.6,6.6,0,0,0-3.513-2.156.877.877,0,0,0,.3,1.365c10.22,4.862,10.861,14.857,11.115,24.875.233,5.738.468,11.486,1.182,17.188A50.387,50.387,0,0,0,175.5,65.6c2.285,4.991,6.311,11.82,1.75,16.624.056.537.089,1.073.1,1.6.135-.164.323-.258.511-.07-.188-.188-.376-.094-.511.07,0,.144.009.289.009.433-.314.314-.235-.158-.009-.433-.012-.531-.044-1.067-.1-1.6-.18.192-.369.382-.573.565-.955.854.454,2.256,1.406,1.406a10.124,10.124,0,0,0,2.244-2.854l-.222-1.554.222,1.554c2.175-4.01.478-8.818-1.243-12.7" transform="translate(-78.663 -2.381)" fill="#323232"/>
    <path id="Path_330" data-name="Path 330" d="M115.84,18.091a7.846,7.846,0,0,1-1.14.088,7.846,7.846,0,0,0,1.14-.088.973.973,0,0,0-.906-.721c-7.5-.443-12.811,6.153-14.107,12.981a1.025,1.025,0,0,0,.718,1.182c.175-.75.372-1.513.6-2.3-.226.79-.422,1.552-.6,2.3a.859.859,0,0,0,1.2-.654c1.137-5.988,5.535-11.914,12.191-11.521a.92.92,0,0,0,.906-1.267" transform="translate(-50.167 -8.634)" fill="#323232"/>
    <path id="Path_331" data-name="Path 331" d="M145.129,38.478c-4.733-3.371-8.771-8.089-9.508-14.041a1,1,0,0,0-1.939-.346,4.821,4.821,0,0,0,1.4,2.65,4.821,4.821,0,0,1-1.4-2.65c.439,6.833,5.079,12.233,10.444,16.1a.843.843,0,0,0,.662.164,3.45,3.45,0,0,1-.665-1.059,3.45,3.45,0,0,0,.665,1.059,1.066,1.066,0,0,0,.342-1.88" transform="translate(-66.528 -11.67)" fill="#323232"/>
    <path id="Path_332" data-name="Path 332" d="M121.79,72.447c-3.352,3.68-10.068,5.542-14.64,3.248-5.381-2.623-6.629-9.042-7.024-14.465-.26-3.567-.178-7.144-.251-10.716a.941.941,0,0,0-.246-.636,32.53,32.53,0,0,0-.447,5.429,32.53,32.53,0,0,1,.447-5.429,1,1,0,0,0-1.742.636c.024,1.135.026,2.286.028,3.445.1.282.192.564.263.845-.07-.281-.162-.563-.263-.845.081,7.489-.173,16.294,5.709,21.752a11.536,11.536,0,0,0,.08-1.316,11.536,11.536,0,0,1-.08,1.316,11.892,11.892,0,0,0,6.143,2.833c-.012-.043-.021-.087-.035-.13h0c.014.043.023.087.035.13a15.993,15.993,0,0,0,13.429-4.69c.835-.962-.565-2.374-1.406-1.406" transform="translate(-48.714 -24.662)" fill="#323232"/>
    <path id="Path_333" data-name="Path 333" d="M134.687,55.693a.994.994,0,0,0,0,1.987.994.994,0,0,0,0-1.987" transform="translate(-66.55 -27.716)" fill="#323232"/>
    <path id="Path_334" data-name="Path 334" d="M112.031,52.175a.994.994,0,0,0,0,1.988.994.994,0,0,0,0-1.988" transform="translate(-55.276 -25.965)" fill="#323232"/>
    <path id="Path_335" data-name="Path 335" d="M121.336,84.57a1.011,1.011,0,1,0-1.573-1.257,4.953,4.953,0,0,1-.687.407l-.131.059a5.726,5.726,0,0,1-1.235.333,6.369,6.369,0,0,1-1.387,0,5.739,5.739,0,0,1-1.195-.329,5.231,5.231,0,0,1-.788-.463c.016.009-.147-.119-.147-.119a.994.994,0,0,0-1.406,1.405,6.666,6.666,0,0,0,8.548-.037m-3.629-.458c-.057.009-.082.009,0,0" transform="translate(-55.982 -41.248)" fill="#323232"/>
    <path id="Path_336" data-name="Path 336" d="M120.755,2.01c.815.136,1.667.236,2.515.358a.793.793,0,0,0-.5-.844c-11.3-5.21-24.971,3.763-28.938,14.559a16.6,16.6,0,0,0-.53,9.883.905.905,0,0,0,1.074.689,6.006,6.006,0,0,1-.24-3.044,6.006,6.006,0,0,0,.24,3.044.97.97,0,0,0,.843-1.218C92.445,14.695,102.867,4.185,112.8,2.277a14.787,14.787,0,0,1,8.963.962,1.081,1.081,0,0,0,1.508-.872c-.848-.122-1.7-.222-2.515-.358" transform="translate(-46.174 0)" fill="#323232"/>
    <path id="Path_337" data-name="Path 337" d="M158.764,86.808v0c0,.005,0,.012,0,.021a.074.074,0,0,0,0-.025" transform="translate(-79.01 -43.201)" fill="#323232"/>
    <path id="Path_338" data-name="Path 338" d="M114.148,64.137a9.481,9.481,0,0,0,3.1-5.236.994.994,0,0,0-1.917-.528,8.54,8.54,0,0,1-.44,1.468l0,.009v0a7.712,7.712,0,0,1-2.141,2.88.994.994,0,0,0,1.406,1.406" transform="translate(-55.958 -28.691)" fill="#323232"/>
    <path id="Path_339" data-name="Path 339" d="M93.633,106.91a10.6,10.6,0,0,1-2.178,2.978,10.6,10.6,0,0,0,2.178-2.978.848.848,0,0,0-1.291.347c-2.993,6.331-11.269,8.55-12.979,15.75a.958.958,0,0,0,.539,1.121v0a.927.927,0,0,0,1.378-.593c.788-3.318,3.414-5.681,5.938-7.778,2.61-2.17,5.357-4.357,6.841-7.5a1.038,1.038,0,0,0-.425-1.35" transform="translate(-39.48 -53.123)" fill="#323232"/>
  </g>
</svg>
