<svg xmlns="http://www.w3.org/2000/svg" xmlns:xlink="http://www.w3.org/1999/xlink" width="56.034" height="56" viewBox="0 0 56.034 56">
  <defs>
    <clipPath id="clip-path">
      <rect id="Rectangle_67" data-name="Rectangle 67" width="56.034" height="56" fill="none"/>
    </clipPath>
  </defs>
  <g id="Group_16" data-name="Group 16" clip-path="url(#clip-path)">
    <path id="Path_31" data-name="Path 31" d="M50.07,38.521C48.315,36.843,46.6,35.2,45.745,34.35a.6.6,0,0,0-.546-.17c-4.344.789-5.828,3.387-6.877,5.76a1.107,1.107,0,0,1-.9.611c-2.45.468-8.549-2.491-14.115-8.058s-8.516-11.659-8.058-14.115a1.1,1.1,0,0,1,.612-.9c2.372-1.049,4.969-2.532,5.76-6.878a.614.614,0,0,0-.17-.546c-.855-.855-2.5-2.57-4.173-4.325-1.757-1.839-3.554-3.721-4.538-4.7A.63.63,0,0,0,12.27.85C8.368,1.09,2.5,4.736.645,8.074c-2.916,5.241,4.326,19.12,16.144,30.938C26.841,49.063,38.379,55.8,44.831,55.8a5.93,5.93,0,0,0,2.9-.645c3.338-1.857,6.984-7.724,7.223-11.626a.611.611,0,0,0-.18-.473c-.983-.983-2.863-2.781-4.7-4.538" transform="translate(0 0.197)" fill="#f19f4d"/>
    <path id="Path_32" data-name="Path 32" d="M49.711,20.319A24.286,24.286,0,0,0,29.339.022a1.847,1.847,0,1,0-.575,3.649,20.593,20.593,0,0,1,17.3,17.236,1.847,1.847,0,0,0,3.647-.587" transform="translate(6.299 0.001)" fill="#f19f4d"/>
    <path id="Path_33" data-name="Path 33" d="M29.347,10.655a9.74,9.74,0,0,1,7.928,7.928,1.848,1.848,0,0,0,1.809,1.489,1.816,1.816,0,0,0,.362-.037A1.847,1.847,0,0,0,40.9,17.863,13.432,13.432,0,0,0,30.066,7.031a1.847,1.847,0,1,0-.719,3.623" transform="translate(6.451 1.621)" fill="#f19f4d"/>
    <path id="Path_34" data-name="Path 34" d="M27.719,16.09a3.949,3.949,0,0,1,3.238,3.237,1.847,1.847,0,0,0,1.81,1.489,1.9,1.9,0,0,0,.361-.034,1.85,1.85,0,0,0,1.453-2.172,7.636,7.636,0,0,0-6.143-6.142,1.847,1.847,0,1,0-.719,3.623" transform="translate(6.074 2.879)" fill="#f19f4d"/>
  </g>
</svg>
