<svg id="Group_40" data-name="Group 40" xmlns="http://www.w3.org/2000/svg" width="16.813" height="19.538" viewBox="0 0 16.813 19.538">
  <path id="Path_49" data-name="Path 49" d="M22.886,13.972h1.255v1.256H22.886Zm2.482,0h1.256v1.256H25.367Zm-2.482-2.549h1.255v1.256H22.886Zm2.482,0h1.256v1.256H25.367ZM22.886,8.875h1.255v1.255H22.886Zm2.482,0h1.256v1.255H25.367Zm-2.482-2.55h1.255V7.581H22.886Zm2.482,0h1.256V7.581H25.367ZM22.886,3.8h1.255V5.054H22.886Zm2.482,0h1.256V5.054H25.367ZM22.886,1.271h1.255V2.527H22.886Zm2.482,0h1.256V2.527H25.367ZM21.631,16.522h6.247V0H21.631Z" transform="translate(-16.348 0)" fill="#fff"/>
  <rect id="Rectangle_82" data-name="Rectangle 82" width="6.538" height="3.017" transform="translate(0 16.522)" fill="#fff"/>
  <rect id="Rectangle_83" data-name="Rectangle 83" width="0.636" height="3.017" transform="translate(8.088 16.522)" fill="#fff"/>
  <rect id="Rectangle_84" data-name="Rectangle 84" width="6.538" height="3.017" transform="translate(10.276 16.522)" fill="#fff"/>
  <path id="Path_50" data-name="Path 50" d="M50.269,24.318h3.845v-14H50.269Zm2.55-1.294H51.563V21.768H52.82Zm0-2.549H51.563V19.22H52.82Zm0-2.55H51.563V16.671H52.82Zm0-2.549H51.563V14.121H52.82Zm0-2.55H51.563V11.572H52.82Z" transform="translate(-37.992 -7.797)" fill="#fff"/>
  <path id="Path_51" data-name="Path 51" d="M2.829,24.318H6.674v-14H2.829ZM5.38,23.025H4.123V21.768H5.38Zm0-2.549H4.123V19.22H5.38Zm0-2.55H4.123V16.671H5.38Zm0-2.549H4.123V14.121H5.38Zm0-2.55H4.123V11.572H5.38Z" transform="translate(-2.138 -7.797)" fill="#fff"/>
</svg>
