<svg xmlns="http://www.w3.org/2000/svg" xmlns:xlink="http://www.w3.org/1999/xlink" width="32.792" height="17.729" viewBox="0 0 32.792 17.729">
  <defs>
    <clipPath id="clip-path">
      <rect id="Rectangle_64" data-name="Rectangle 64" width="32.792" height="17.729" fill="none"/>
    </clipPath>
  </defs>
  <g id="Group_14" data-name="Group 14" clip-path="url(#clip-path)">
    <path id="Path_27" data-name="Path 27" d="M39.858,1.4V16.324a1.406,1.406,0,0,1-1.4,1.4H17.672a1.407,1.407,0,0,1-1.406-1.4V1.4A1.407,1.407,0,0,1,17.672,0H38.453a1.406,1.406,0,0,1,1.4,1.4M32.839,7.691l4.377-3.2a.849.849,0,1,0-1-1.37l-8.151,5.96L19.911,3.12a.849.849,0,0,0-1,1.37l4.377,3.2-4.54,5.7a.849.849,0,0,0,1.328,1.057l4.583-5.759,2.9,2.124a.85.85,0,0,0,1,0l2.9-2.124,4.583,5.759A.849.849,0,0,0,37.379,13.4Z" transform="translate(-7.066 0)" fill="#fff"/>
    <path id="Path_28" data-name="Path 28" d="M8.871,8.766H6.852a.848.848,0,1,1,0-1.7H8.871a.848.848,0,0,1,0,1.7" transform="translate(-2.608 -3.071)" fill="#fff"/>
    <path id="Path_29" data-name="Path 29" d="M7.567,15.869H3.85a.848.848,0,0,1,0-1.7H7.567a.848.848,0,0,1,0,1.7" transform="translate(-1.304 -6.156)" fill="#fff"/>
    <path id="Path_30" data-name="Path 30" d="M6.263,22.973H.848a.848.848,0,0,1,0-1.7H6.263a.848.848,0,0,1,0,1.7" transform="translate(0 -9.242)" fill="#fff"/>
  </g>
</svg>
