<svg id="Group_53" data-name="Group 53" xmlns="http://www.w3.org/2000/svg" xmlns:xlink="http://www.w3.org/1999/xlink" width="13.308" height="14.601" viewBox="0 0 13.308 14.601">
  <defs>
    <clipPath id="clip-path">
      <rect id="Rectangle_97" data-name="Rectangle 97" width="13.308" height="14.601" fill="none"/>
    </clipPath>
  </defs>
  <g id="Group_52" data-name="Group 52" clip-path="url(#clip-path)">
    <path id="Path_67" data-name="Path 67" d="M10.889,84.826h-.665V86.5a1.366,1.366,0,0,1-2.733,0V84.826H5.816V86.5a1.366,1.366,0,0,1-2.733,0V84.826H2.419A2.421,2.421,0,0,0,0,87.245V95.63a2.422,2.422,0,0,0,2.419,2.419h8.471a2.422,2.422,0,0,0,2.419-2.419V87.245a2.421,2.421,0,0,0-2.419-2.419m1.049,10.8a1.05,1.05,0,0,1-1.049,1.049H2.419A1.05,1.05,0,0,1,1.37,95.63V89.715H11.938Z" transform="translate(0 -83.448)" fill="#4484ce"/>
    <path id="Path_68" data-name="Path 68" d="M218.746,0a.91.91,0,0,0-.91.91V3.054a.89.89,0,0,0,0,.093c0,.015,0,.031.006.046l.006.034c0,.011,0,.022.007.033s.005.022.008.033.006.022.009.032.009.028.014.042.01.028.016.041l.018.04.02.039.011.019.023.038.016.024.016.022.019.025.028.034.013.015.012.012.019.02.025.024.03.026.022.018.006,0,.024.018.023.016.047.03.024.014.05.026.026.012.026.011.027.01h0l.032.011h0l.014,0,.013,0,.022.006.051.012.029.005.029,0,.013,0,.013,0,.038,0h.056a.91.91,0,0,0,.91-.91V.91a.91.91,0,0,0-.91-.91" transform="translate(-214.297)" fill="#4484ce"/>
    <path id="Path_69" data-name="Path 69" d="M490.116,0a.91.91,0,0,0-.91.91V3.054a.91.91,0,0,0,1.82,0V.91a.91.91,0,0,0-.91-.91" transform="translate(-481.258)" fill="#4484ce"/>
    <path id="Path_70" data-name="Path 70" d="M140.9,469.424h-1.143a.194.194,0,0,0-.193.194v1.143a.194.194,0,0,0,.193.193H140.9a.194.194,0,0,0,.194-.193v-1.143a.194.194,0,0,0-.194-.194" transform="translate(-137.298 -461.797)" fill="#4484ce"/>
    <path id="Path_71" data-name="Path 71" d="M289.5,469.424h-1.143a.194.194,0,0,0-.193.194v1.143a.193.193,0,0,0,.193.193H289.5a.194.194,0,0,0,.193-.193v-1.143a.194.194,0,0,0-.193-.194" transform="translate(-283.482 -461.797)" fill="#4484ce"/>
    <path id="Path_72" data-name="Path 72" d="M438.1,469.424h-1.143a.194.194,0,0,0-.194.194v1.143a.194.194,0,0,0,.194.193H438.1a.194.194,0,0,0,.193-.193v-1.143a.194.194,0,0,0-.193-.194" transform="translate(-429.665 -461.797)" fill="#4484ce"/>
    <path id="Path_73" data-name="Path 73" d="M586.711,469.424h-1.143a.194.194,0,0,0-.193.194v1.143a.194.194,0,0,0,.193.193h1.143a.194.194,0,0,0,.194-.193v-1.143a.194.194,0,0,0-.194-.194" transform="translate(-575.864 -461.797)" fill="#4484ce"/>
    <path id="Path_74" data-name="Path 74" d="M140.9,636.235h-1.143a.193.193,0,0,0-.193.193v1.143a.194.194,0,0,0,.193.194H140.9a.194.194,0,0,0,.194-.194v-1.143a.194.194,0,0,0-.194-.193" transform="translate(-137.298 -625.898)" fill="#4484ce"/>
    <path id="Path_75" data-name="Path 75" d="M289.5,636.235h-1.143a.193.193,0,0,0-.193.193v1.143a.194.194,0,0,0,.193.194H289.5a.194.194,0,0,0,.193-.194v-1.143a.193.193,0,0,0-.193-.193" transform="translate(-283.482 -625.898)" fill="#4484ce"/>
    <path id="Path_76" data-name="Path 76" d="M438.1,636.235h-1.143a.194.194,0,0,0-.194.193v1.143a.194.194,0,0,0,.194.194H438.1a.194.194,0,0,0,.193-.194v-1.143a.193.193,0,0,0-.193-.193" transform="translate(-429.665 -625.898)" fill="#4484ce"/>
    <path id="Path_77" data-name="Path 77" d="M586.711,636.235h-1.143a.193.193,0,0,0-.193.193v1.143a.194.194,0,0,0,.193.194h1.143a.194.194,0,0,0,.194-.194v-1.143a.193.193,0,0,0-.194-.193" transform="translate(-575.864 -625.898)" fill="#4484ce"/>
  </g>
</svg>
