<svg xmlns="http://www.w3.org/2000/svg" xmlns:xlink="http://www.w3.org/1999/xlink" width="34.555" height="44.737" viewBox="0 0 34.555 44.737">
  <defs>
    <clipPath id="clip-path">
      <rect id="Rectangle_163" data-name="Rectangle 163" width="25.171" height="39.571" fill="none"/>
    </clipPath>
  </defs>
  <g id="Group_151" data-name="Group 151" transform="matrix(0.966, 0.259, -0.259, 0.966, 10.242, 0)">
    <rect id="Rectangle_158" data-name="Rectangle 158" width="1.66" height="5.522" transform="translate(9.364 0)" fill="#fff"/>
    <rect id="Rectangle_159" data-name="Rectangle 159" width="1.659" height="5.522" transform="translate(2.399 3.572) rotate(-45)" fill="#fff"/>
    <rect id="Rectangle_160" data-name="Rectangle 160" width="5.522" height="1.66" transform="translate(0 9.363)" fill="#fff"/>
    <rect id="Rectangle_161" data-name="Rectangle 161" width="5.522" height="1.66" transform="translate(14.865 9.363)" fill="#fff"/>
    <rect id="Rectangle_162" data-name="Rectangle 162" width="5.522" height="1.66" transform="translate(12.91 6.303) rotate(-45)" fill="#fff"/>
    <g id="Group_150" data-name="Group 150" transform="translate(0 0)">
      <g id="Group_149" data-name="Group 149" clip-path="url(#clip-path)">
        <path id="Path_184" data-name="Path 184" d="M26.594,30.194a2.4,2.4,0,0,0-1.809-.762,2.49,2.49,0,0,0-1.4.4,3.233,3.233,0,0,0-.725-1.426,2.427,2.427,0,0,0-1.858-.78,2.611,2.611,0,0,0-1.5.425,2.882,2.882,0,0,0-.606-1.066,2.512,2.512,0,0,0-1.927-.791,2.71,2.71,0,0,0-1.254.282l0-3.362a5.094,5.094,0,0,0-1.078-3.185,2.316,2.316,0,0,0-1.7-.7A2.408,2.408,0,0,0,10.91,20a4.616,4.616,0,0,0-.91,3.07L9.988,33.328a4.428,4.428,0,0,0-1.754-2.1,2.312,2.312,0,0,0-1.829-.152,2.407,2.407,0,0,0-1.542,1.316,4.032,4.032,0,0,0,.171,2.944c.222.66,1.382,3.905,2.744,7.044,2.582,5.954,3.788,6.776,4.708,6.777l11.33.014.153-.074a4.715,4.715,0,0,0,1.882-2.259c1.073-2.16,1.619-5.3,1.623-9.338l.005-4.187a4.569,4.569,0,0,0-.885-3.118M12.514,47.666c-.114-.048-1.08-.592-3.39-5.926C7.749,38.565,6.592,35.3,6.431,34.818l-.026-.064a2.631,2.631,0,0,1-.179-1.763.926.926,0,0,1,.628-.5.852.852,0,0,1,.689.051,3.61,3.61,0,0,1,1.262,1.838l1.21,3.778h1.456l.018-15.118,0-.042A3.16,3.16,0,0,1,12,21.012a.953.953,0,0,1,.747-.291.851.851,0,0,1,.641.257,3.6,3.6,0,0,1,.647,2.131l-.007,6.171c-.008.171,0,.3,0,.343l0,3.728,1.49,0,0-4.047a2.251,2.251,0,0,1,.44-1.319,1.041,1.041,0,0,1,.815-.3,1.06,1.06,0,0,1,.832.31,2.413,2.413,0,0,1,.422,1.563l0,1.233a5.352,5.352,0,0,0,0,.632l0,1.936h1.489l0-2.455a2.554,2.554,0,0,1,.459-1.466,1.037,1.037,0,0,1,.834-.32.971.971,0,0,1,.764.3,3.116,3.116,0,0,1,.489,1.978l-.006,3.013,1.489,0,0-1.527a2.945,2.945,0,0,1,.508-1.668A1.059,1.059,0,0,1,25.5,31.2a3.216,3.216,0,0,1,.493,2.026L25.985,37.5c-.009,7.6-2.025,9.746-2.566,10.183Z" transform="translate(-2.317 -9.598)" fill="#fff"/>
      </g>
    </g>
  </g>
</svg>
