<svg xmlns="http://www.w3.org/2000/svg" xmlns:xlink="http://www.w3.org/1999/xlink" width="20.679" height="20.666" viewBox="0 0 20.679 20.666">
  <defs>
    <clipPath id="clip-path">
      <rect id="Rectangle_63" data-name="Rectangle 63" width="20.679" height="20.666" fill="none"/>
    </clipPath>
  </defs>
  <g id="Group_118" data-name="Group 118" transform="translate(0 2.334)">
    <g id="Group_12" data-name="Group 12" transform="translate(0 -2.334)" clip-path="url(#clip-path)">
      <path id="Path_23" data-name="Path 23" d="M18.478,14.752c-.648-.619-1.281-1.224-1.6-1.539a.221.221,0,0,0-.2-.063,3.163,3.163,0,0,0-2.538,2.126.408.408,0,0,1-.331.225c-.9.173-3.155-.919-5.209-2.974s-3.143-4.3-2.974-5.209a.408.408,0,0,1,.226-.331A3.164,3.164,0,0,0,7.98,4.449a.227.227,0,0,0-.063-.2C7.6,3.932,7,3.3,6.377,2.652,5.729,1.973,5.066,1.279,4.7.916A.232.232,0,0,0,4.528.85,6.465,6.465,0,0,0,.238,3.516C-.838,5.45,1.835,10.572,6.2,14.933c3.709,3.709,7.967,6.2,10.348,6.2a2.188,2.188,0,0,0,1.069-.238,6.467,6.467,0,0,0,2.666-4.29.226.226,0,0,0-.066-.175c-.363-.363-1.057-1.026-1.735-1.675" transform="translate(0 -0.463)" fill="#fff"/>
      <path id="Path_24" data-name="Path 24" d="M35.51,7.5A8.962,8.962,0,0,0,27.992.008a.682.682,0,0,0-.212,1.347,7.6,7.6,0,0,1,6.384,6.361A.682.682,0,1,0,35.51,7.5" transform="translate(-14.84 0)" fill="#fff"/>
      <path id="Path_25" data-name="Path 25" d="M28.408,8.347a3.594,3.594,0,0,1,2.926,2.926.682.682,0,0,0,.668.549.67.67,0,0,0,.134-.014.682.682,0,0,0,.536-.8,4.957,4.957,0,0,0-4-4,.682.682,0,1,0-.265,1.337" transform="translate(-15.197 -3.817)" fill="#fff"/>
      <path id="Path_26" data-name="Path 26" d="M26.78,13.781a1.457,1.457,0,0,1,1.195,1.194.682.682,0,0,0,.668.549.7.7,0,0,0,.133-.013.683.683,0,0,0,.536-.8,2.818,2.818,0,0,0-2.267-2.267.682.682,0,1,0-.265,1.337" transform="translate(-14.309 -6.781)" fill="#fff"/>
    </g>
  </g>
</svg>
