<svg xmlns="http://www.w3.org/2000/svg" xmlns:xlink="http://www.w3.org/1999/xlink" width="11" height="14" viewBox="0 0 11 14">
  <defs>
    <clipPath id="clip-path">
      <rect id="Rectangle_74" data-name="Rectangle 74" width="11" height="14" transform="translate(-0.111)" fill="none"/>
    </clipPath>
  </defs>
  <g id="Group_119" data-name="Group 119" transform="translate(0.111)">
    <g id="Group_32" data-name="Group 32" clip-path="url(#clip-path)">
      <path id="Path_42" data-name="Path 42" d="M5.444,0A5.342,5.342,0,0,0,0,5.234c-.006,3.115,3.658,7.2,4.978,8.57a.649.649,0,0,0,.932,0c1.318-1.374,4.979-5.471,4.979-8.568A5.342,5.342,0,0,0,5.444,0m0,7.8A2.523,2.523,0,0,1,2.882,5.316,2.523,2.523,0,0,1,5.444,2.834,2.523,2.523,0,0,1,8.006,5.316,2.523,2.523,0,0,1,5.444,7.8" transform="translate(0)" fill="#2dacc2"/>
    </g>
    <g id="Group_55" data-name="Group 55">
      <g id="Group_54" data-name="Group 54" clip-path="url(#clip-path)">
        <path id="Path_78" data-name="Path 78" d="M5.444,0A5.342,5.342,0,0,0,0,5.234c-.006,3.115,3.658,7.2,4.978,8.57a.649.649,0,0,0,.932,0c1.318-1.374,4.979-5.471,4.979-8.568A5.342,5.342,0,0,0,5.444,0m0,7.8A2.523,2.523,0,0,1,2.882,5.316,2.523,2.523,0,0,1,5.444,2.834,2.523,2.523,0,0,1,8.006,5.316,2.523,2.523,0,0,1,5.444,7.8" transform="translate(0)" fill="#4484ce"/>
      </g>
    </g>
  </g>
</svg>
