<svg id="Group_96" data-name="Group 96" xmlns="http://www.w3.org/2000/svg" xmlns:xlink="http://www.w3.org/1999/xlink" width="11.367" height="14.614" viewBox="0 0 11.367 14.614">
  <defs>
    <clipPath id="clip-path">
      <rect id="Rectangle_133" data-name="Rectangle 133" width="11.367" height="14.614" fill="none"/>
    </clipPath>
  </defs>
  <g id="Group_95" data-name="Group 95" clip-path="url(#clip-path)">
    <path id="Path_133" data-name="Path 133" d="M5.683,0A5.576,5.576,0,0,0,0,5.463c-.006,3.252,3.818,7.515,5.2,8.946a.678.678,0,0,0,.973,0c1.375-1.434,5.2-5.711,5.2-8.944A5.576,5.576,0,0,0,5.683,0m0,8.141A2.634,2.634,0,0,1,3.009,5.549,2.633,2.633,0,0,1,5.683,2.959,2.633,2.633,0,0,1,8.358,5.549,2.634,2.634,0,0,1,5.683,8.141" transform="translate(0)" fill="#4484ce"/>
  </g>
</svg>
