<svg id="Group_15" data-name="Group 15" xmlns="http://www.w3.org/2000/svg" xmlns:xlink="http://www.w3.org/1999/xlink" width="32.907" height="17.791" viewBox="0 0 32.907 17.791">
  <defs>
    <clipPath id="clip-path">
      <rect id="Rectangle_64" data-name="Rectangle 64" width="32.907" height="17.791" fill="none"/>
    </clipPath>
  </defs>
  <g id="Group_14" data-name="Group 14" clip-path="url(#clip-path)">
    <path id="Path_27" data-name="Path 27" d="M39.94,1.41V16.381a1.411,1.411,0,0,1-1.41,1.41H17.676a1.412,1.412,0,0,1-1.41-1.41V1.41A1.412,1.412,0,0,1,17.676,0H38.531a1.411,1.411,0,0,1,1.41,1.41M32.9,7.717l4.392-3.211a.851.851,0,1,0-1.005-1.375L28.1,9.113l-8.18-5.981a.852.852,0,0,0-1.006,1.375L23.31,7.717l-4.556,5.725a.851.851,0,0,0,1.333,1.06l4.6-5.779L27.6,10.854a.853.853,0,0,0,1.006,0l2.915-2.131,4.6,5.779a.851.851,0,0,0,1.333-1.06Z" transform="translate(-7.034 0)" fill="#fff"/>
    <path id="Path_28" data-name="Path 28" d="M8.881,8.772H6.855a.851.851,0,0,1,0-1.7H8.881a.851.851,0,0,1,0,1.7" transform="translate(-2.596 -3.057)" fill="#fff"/>
    <path id="Path_29" data-name="Path 29" d="M7.583,15.875H3.853a.851.851,0,0,1,0-1.7h3.73a.851.851,0,0,1,0,1.7" transform="translate(-1.298 -6.128)" fill="#fff"/>
    <path id="Path_30" data-name="Path 30" d="M6.285,22.979H.851a.851.851,0,0,1,0-1.7H6.285a.851.851,0,0,1,0,1.7" transform="translate(0 -9.2)" fill="#fff"/>
  </g>
</svg>
