<svg id="Group_120" data-name="Group 120" xmlns="http://www.w3.org/2000/svg" xmlns:xlink="http://www.w3.org/1999/xlink" width="12.745" height="13.984" viewBox="0 0 12.745 13.984">
  <defs>
    <clipPath id="clip-path">
      <rect id="Rectangle_97" data-name="Rectangle 97" width="12.745" height="13.984" fill="none"/>
    </clipPath>
  </defs>
  <g id="Group_52" data-name="Group 52" clip-path="url(#clip-path)">
    <path id="Path_67" data-name="Path 67" d="M10.429,84.826H9.792v1.6a1.308,1.308,0,0,1-2.617,0v-1.6H5.57v1.6a1.308,1.308,0,0,1-2.617,0v-1.6H2.316A2.319,2.319,0,0,0,0,87.142v8.031A2.319,2.319,0,0,0,2.316,97.49h8.113a2.319,2.319,0,0,0,2.316-2.316V87.142a2.319,2.319,0,0,0-2.316-2.316m1,10.347a1.006,1.006,0,0,1-1,1H2.316a1.006,1.006,0,0,1-1-1V89.508H11.434Z" transform="translate(0 -83.506)" fill="#4484ce"/>
    <path id="Path_68" data-name="Path 68" d="M218.708,0a.872.872,0,0,0-.872.872V2.925a.853.853,0,0,0,0,.089c0,.015,0,.029.005.044l.006.032c0,.011,0,.021.007.032s.005.021.008.031.006.021.009.031.009.027.014.041.01.026.016.04l.017.039.019.038.01.019.022.036.015.023.015.021.018.024.027.032.013.014.011.012.018.019.024.023.028.025.021.017.005,0,.023.017.022.015.045.029.023.014.048.025.025.011.025.011.025.01h0l.031.011h0l.013,0,.013,0,.021.006.049.011.027,0,.028,0,.012,0,.012,0,.036,0h.053a.872.872,0,0,0,.872-.872V.872A.872.872,0,0,0,218.708,0" transform="translate(-214.446)" fill="#4484ce"/>
    <path id="Path_69" data-name="Path 69" d="M490.078,0a.872.872,0,0,0-.872.872V2.925a.872.872,0,0,0,1.743,0V.872A.872.872,0,0,0,490.078,0" transform="translate(-481.594)" fill="#4484ce"/>
    <path id="Path_70" data-name="Path 70" d="M140.846,469.424h-1.094a.185.185,0,0,0-.185.186V470.7a.185.185,0,0,0,.185.185h1.094a.185.185,0,0,0,.186-.185V469.61a.185.185,0,0,0-.186-.186" transform="translate(-137.394 -462.12)" fill="#4484ce"/>
    <path id="Path_71" data-name="Path 71" d="M289.444,469.424h-1.095a.185.185,0,0,0-.185.186V470.7a.185.185,0,0,0,.185.185h1.095a.185.185,0,0,0,.185-.185V469.61a.185.185,0,0,0-.185-.186" transform="translate(-283.68 -462.12)" fill="#4484ce"/>
    <path id="Path_72" data-name="Path 72" d="M438.041,469.424h-1.094a.185.185,0,0,0-.186.186V470.7a.185.185,0,0,0,.186.185h1.094a.185.185,0,0,0,.185-.185V469.61a.185.185,0,0,0-.185-.186" transform="translate(-429.965 -462.12)" fill="#4484ce"/>
    <path id="Path_73" data-name="Path 73" d="M586.655,469.424H585.56a.185.185,0,0,0-.185.186V470.7a.185.185,0,0,0,.185.185h1.094a.185.185,0,0,0,.185-.185V469.61a.185.185,0,0,0-.185-.186" transform="translate(-576.266 -462.12)" fill="#4484ce"/>
    <path id="Path_74" data-name="Path 74" d="M140.846,636.235h-1.094a.185.185,0,0,0-.185.185v1.094a.185.185,0,0,0,.185.185h1.094a.185.185,0,0,0,.186-.185V636.42a.185.185,0,0,0-.186-.185" transform="translate(-137.394 -626.335)" fill="#4484ce"/>
    <path id="Path_75" data-name="Path 75" d="M289.444,636.235h-1.095a.185.185,0,0,0-.185.185v1.094a.185.185,0,0,0,.185.185h1.095a.185.185,0,0,0,.185-.185V636.42a.185.185,0,0,0-.185-.185" transform="translate(-283.68 -626.335)" fill="#4484ce"/>
    <path id="Path_76" data-name="Path 76" d="M438.041,636.235h-1.094a.185.185,0,0,0-.186.185v1.094a.185.185,0,0,0,.186.185h1.094a.185.185,0,0,0,.185-.185V636.42a.185.185,0,0,0-.185-.185" transform="translate(-429.965 -626.335)" fill="#4484ce"/>
    <path id="Path_77" data-name="Path 77" d="M586.655,636.235H585.56a.185.185,0,0,0-.185.185v1.094a.185.185,0,0,0,.185.185h1.094a.185.185,0,0,0,.185-.185V636.42a.185.185,0,0,0-.185-.185" transform="translate(-576.266 -626.335)" fill="#4484ce"/>
  </g>
</svg>
