<svg id="Group_227" data-name="Group 227" xmlns="http://www.w3.org/2000/svg" xmlns:xlink="http://www.w3.org/1999/xlink" width="56.575" height="63.558" viewBox="0 0 56.575 63.558">
  <defs>
    <clipPath id="clip-path">
      <rect id="Rectangle_231" data-name="Rectangle 231" width="56.575" height="63.558" fill="none"/>
    </clipPath>
  </defs>
  <g id="Group_226" data-name="Group 226" clip-path="url(#clip-path)">
    <path id="Path_385" data-name="Path 385" d="M59.055,118.506l14.666-7.916c-7.314.066-7.321-15.567-7.321-15.567H51.71s-.007,15.633-7.321,15.567Z" transform="translate(-30.735 -65.794)" fill="#fff"/>
    <path id="Path_386" data-name="Path 386" d="M71.463,128.208l-9.154-3.249v23.148a34.273,34.273,0,0,0,18.308-.028v-23.12Z" transform="translate(-43.143 -86.522)" fill="#fff"/>
    <path id="Path_387" data-name="Path 387" d="M76.784,24.532s-1.218,10-3.141,13.518-5.459,6.728-9.076,6.728-7.153-3.209-9.076-6.728-3.141-13.518-3.141-13.518,1.31-13.284,12.218-13.284c11.227,0,12.217,13.284,12.217,13.284" transform="translate(-36.247 -7.788)" fill="#fff"/>
    <path id="Path_388" data-name="Path 388" d="M124.187,70.319c3.627-.153,4.446-3.756,3.708-4.947a2.157,2.157,0,0,0-2.912-.626l-1.24.428-.353,5.213Z" transform="translate(-85.436 -44.604)" fill="#fff"/>
    <path id="Path_389" data-name="Path 389" d="M49.335,70.319c-3.627-.153-4.446-3.756-3.708-4.947a2.157,2.157,0,0,1,2.912-.626l1.24.428.353,5.213Z" transform="translate(-31.421 -44.604)" fill="#fff"/>
    <path id="Path_390" data-name="Path 390" d="M83.785,140.549h5.225l-1.02,5.767H84.463Z" transform="translate(-58.013 -97.317)" fill="#4484ce"/>
    <path id="Path_391" data-name="Path 391" d="M75.49,11.212C73.8,6.539,69.462,2.367,64.117,2.5c-2.629.067-4.062.927-4.832,1.963a10.919,10.919,0,0,0-8.535,6.847A17.914,17.914,0,0,0,50.2,21.547a2.461,2.461,0,0,1,.549.051c2.747-1.082,3.074-7.065,4.016-8.789C56.8,9.1,59.838,9.32,59.838,9.32l5.018.473a6.761,6.761,0,0,1,5.889,3.045,38.318,38.318,0,0,1,3.218,9.035,2.766,2.766,0,0,1,1.58-.3c.472-2.273,1.181-6.945-.053-10.357" transform="translate(-34.416 -1.731)" fill="#4484ce"/>
    <path id="Path_392" data-name="Path 392" d="M83.944,159.3l-.907,13.708q1.35.107,2.727.109t2.731-.109L87.473,159.3Z" transform="translate(-57.495 -110.299)" fill="#4484ce"/>
    <path id="Path_393" data-name="Path 393" d="M17.627,127.955s-9.522,4.3-15.146,7.429a34.037,34.037,0,0,0,26.131,13.924c-3.643-8.831-7.728-24.349-7.728-24.349Z" transform="translate(-1.718 -86.522)" fill="#fff"/>
    <path id="Path_394" data-name="Path 394" d="M122.762,135.345c-5.632-3.122-15.073-7.388-15.073-7.388l-3.257-3s-4.085,15.513-7.728,24.346a34.039,34.039,0,0,0,26.058-13.961" transform="translate(-66.958 -86.523)" fill="#fff"/>
    <path id="Path_395" data-name="Path 395" d="M66.43,93.9c-4.044,0-7.811-3.58-9.751-7.128a20.73,20.73,0,0,1-1.617-4.731.769.769,0,1,1,1.494-.364,19.359,19.359,0,0,0,1.472,4.358c1.722,3.15,4.987,6.328,8.4,6.328s6.68-3.178,8.4-6.328a19.364,19.364,0,0,0,1.474-4.364.769.769,0,1,1,1.494.364,20.727,20.727,0,0,1-1.619,4.737C74.241,90.323,70.474,93.9,66.43,93.9" transform="translate(-38.11 -56.144)" fill="#37434c"/>
    <path id="Path_396" data-name="Path 396" d="M124.792,69.335a.769.769,0,0,1-.055-1.536,3.12,3.12,0,0,0,2.723-1.711,2.5,2.5,0,0,0,.221-2.054,1.361,1.361,0,0,0-1.885-.359.769.769,0,0,1-.751-1.342,2.852,2.852,0,0,1,3.943.891,3.887,3.887,0,0,1-.157,3.563,4.648,4.648,0,0,1-3.981,2.546l-.056,0" transform="translate(-85.874 -42.861)" fill="#37434c"/>
    <path id="Path_397" data-name="Path 397" d="M47.44,69.335l-.057,0A4.647,4.647,0,0,1,43.4,66.787a3.885,3.885,0,0,1-.157-3.563,2.852,2.852,0,0,1,3.943-.891.769.769,0,0,1-.756,1.34,1.359,1.359,0,0,0-1.88.361,2.5,2.5,0,0,0,.22,2.054A3.12,3.12,0,0,0,47.5,67.8a.769.769,0,0,1-.055,1.536" transform="translate(-29.692 -42.861)" fill="#37434c"/>
    <path id="Path_398" data-name="Path 398" d="M51.373,33.111a.769.769,0,0,1-.282-1.485c1.513-.6,2.229-3.52,2.751-5.655a12.99,12.99,0,0,1,.872-2.788c1.889-3.455,4.616-3.855,5.51-3.889a8.55,8.55,0,0,1,6.287-1.086.769.769,0,1,1-.321,1.5,7.035,7.035,0,0,0-5.271.968.768.768,0,0,1-.514.149c-.1,0-2.595-.1-4.341,3.091a12.83,12.83,0,0,0-.728,2.415c-.636,2.6-1.427,5.832-3.681,6.72a.771.771,0,0,1-.282.054" transform="translate(-35.038 -12.476)" fill="#37434c"/>
    <path id="Path_399" data-name="Path 399" d="M106.336,37.323a.769.769,0,0,1-.745-.58,39.167,39.167,0,0,0-3.122-8.812,6,6,0,0,0-5.151-2.69h-.089a.769.769,0,1,1,0-1.538h.063a7.589,7.589,0,0,1,6.456,3.372c.012.018.024.036.035.054a38.826,38.826,0,0,1,3.3,9.234.77.77,0,0,1-.746.959" transform="translate(-66.789 -16.411)" fill="#37434c"/>
    <path id="Path_400" data-name="Path 400" d="M74.9,129.029a.768.768,0,0,1-.257-.044l-6.858-2.434A.769.769,0,1,1,68.3,125.1l6.6,2.343,6.666-2.367a.769.769,0,0,1,.515,1.45l-6.924,2.458a.771.771,0,0,1-.257.044" transform="translate(-46.58 -86.573)" fill="#37434c"/>
    <path id="Path_401" data-name="Path 401" d="M115.94,110.841a.769.769,0,0,1-.737-.551,32.533,32.533,0,0,1-1.1-5.911.769.769,0,0,1,1.53-.155,30.961,30.961,0,0,0,1.046,5.629.77.77,0,0,1-.738.988" transform="translate(-79.001 -71.686)" fill="#37434c"/>
    <path id="Path_402" data-name="Path 402" d="M62.267,110.788a.769.769,0,0,1-.737-.99,30.91,30.91,0,0,0,1.066-5.724.769.769,0,0,1,1.531.153A32.477,32.477,0,0,1,63,110.239a.769.769,0,0,1-.736.549" transform="translate(-42.581 -71.582)" fill="#37434c"/>
    <path id="Path_403" data-name="Path 403" d="M74.221,18.171a.827.827,0,0,1-.1-.006.769.769,0,0,1-.664-.861,17.339,17.339,0,0,0-.424-7.562C71.571,5.7,67.62,1.408,62.4,1.541c-2.033.052-3.458.608-4.235,1.653a.768.768,0,0,1-.487.3,10.132,10.132,0,0,0-7.945,6.36,16.321,16.321,0,0,0-.908,7.415.769.769,0,1,1-1.53.152,17.846,17.846,0,0,1,1-8.108,11.587,11.587,0,0,1,8.832-7.28C58.223.746,59.981.064,62.364,0c5.974-.155,10.471,4.67,12.116,9.215a18.806,18.806,0,0,1,.5,8.282.769.769,0,0,1-.762.671" transform="translate(-32.683 0)" fill="#37434c"/>
    <path id="Path_404" data-name="Path 404" d="M26.895,148.349a.769.769,0,0,1-.711-.476c-3.024-7.331-6.382-19.363-7.431-23.22l-2.323,2.137a.774.774,0,0,1-.2.135c-.1.043-9.551,4.323-15.083,7.4A.769.769,0,1,1,.4,132.977c5.257-2.921,13.988-6.9,15.084-7.4l3.166-2.913a.769.769,0,0,1,1.264.37c.041.155,4.115,15.573,7.7,24.254a.769.769,0,0,1-.711,1.062" transform="translate(0 -84.791)" fill="#37434c"/>
    <path id="Path_405" data-name="Path 405" d="M94.972,148.344a.769.769,0,0,1-.711-1.062c3.581-8.683,7.654-24.1,7.7-24.25a.769.769,0,0,1,1.264-.37l3.167,2.913c1.09.5,9.755,4.449,15.017,7.366a.769.769,0,0,1-.746,1.345c-5.54-3.071-14.924-7.319-15.018-7.361a.773.773,0,0,1-.2-.135l-2.324-2.137c-1.048,3.856-4.406,15.884-7.43,23.216a.769.769,0,0,1-.711.476" transform="translate(-65.227 -84.791)" fill="#37434c"/>
    <path id="Path_406" data-name="Path 406" d="M87,156.427a.769.769,0,0,1-.766-.712l-.826-11.073a.766.766,0,0,1,.01-.191l.86-4.864H82.834l.576,4.908a.766.766,0,0,1,0,.141l-.715,10.8a.769.769,0,0,1-1.535-.1l.71-10.732-.669-5.7a.769.769,0,0,1,.763-.859h5.226a.769.769,0,0,1,.757.9l-1,5.672.819,10.977a.769.769,0,0,1-.71.824l-.058,0" transform="translate(-56.197 -95.586)" fill="#37434c"/>
    <path id="Path_407" data-name="Path 407" d="M87.785,158.336H84.256a.769.769,0,1,1,0-1.538h3.529a.769.769,0,1,1,0,1.538" transform="translate(-57.807 -108.568)" fill="#37434c"/>
  </g>
</svg>
