<svg id="Group_218" data-name="Group 218" xmlns="http://www.w3.org/2000/svg" xmlns:xlink="http://www.w3.org/1999/xlink" width="43.775" height="62" viewBox="0 0 43.775 62">
  <defs>
    <clipPath id="clip-path">
      <rect id="Rectangle_206" data-name="Rectangle 206" width="43.775" height="62" fill="none"/>
    </clipPath>
  </defs>
  <rect id="Rectangle_197" data-name="Rectangle 197" width="24.008" height="3.708" transform="translate(9.884 2.84)" fill="#fff"/>
  <g id="Group_217" data-name="Group 217">
    <g id="Group_216" data-name="Group 216" clip-path="url(#clip-path)">
      <path id="Path_365" data-name="Path 365" d="M44.094,69.6V19.832H6V69.6H17.518V60.512a1.6,1.6,0,0,1,1.577-1.577h12.29a1.6,1.6,0,0,1,1.577,1.577V69.6ZM40.551,28.1v7.431a1.31,1.31,0,0,1-.385.967c-.008.01-.018.018-.026.028s-.031.031-.048.045a1.311,1.311,0,0,1-.961.38H32.819a1.441,1.441,0,0,1-1.42-1.42V28.1a1.441,1.441,0,0,1,1.42-1.42h6.311a1.441,1.441,0,0,1,1.42,1.42M19.087,48.851a1.31,1.31,0,0,1-.385.967l-.027.028c-.016.015-.031.031-.048.045a1.311,1.311,0,0,1-.961.38H11.355a1.441,1.441,0,0,1-1.42-1.42V41.419A1.441,1.441,0,0,1,11.355,40h6.311a1.441,1.441,0,0,1,1.42,1.42Zm0-13.324a1.31,1.31,0,0,1-.385.967l-.026.028c-.017.015-.032.031-.049.045a1.309,1.309,0,0,1-.96.38H11.355a1.441,1.441,0,0,1-1.42-1.42V28.1a1.441,1.441,0,0,1,1.42-1.42h6.311a1.441,1.441,0,0,1,1.42,1.42ZM29.819,48.851a1.309,1.309,0,0,1-.385.967c-.008.01-.018.018-.026.028s-.031.031-.048.045a1.311,1.311,0,0,1-.961.38H22.087a1.441,1.441,0,0,1-1.42-1.42V41.419A1.441,1.441,0,0,1,22.087,40H28.4a1.441,1.441,0,0,1,1.42,1.42Zm0-13.324a1.308,1.308,0,0,1-.385.967c-.008.01-.018.018-.026.028s-.032.031-.049.045a1.311,1.311,0,0,1-.961.38H22.087a1.441,1.441,0,0,1-1.42-1.42V28.1a1.441,1.441,0,0,1,1.42-1.42H28.4a1.441,1.441,0,0,1,1.42,1.42Zm3,14.744a1.441,1.441,0,0,1-1.42-1.42V41.419A1.441,1.441,0,0,1,32.819,40h6.311a1.441,1.441,0,0,1,1.42,1.42v7.431a1.31,1.31,0,0,1-.385.967c-.008.01-.018.018-.026.028s-.031.031-.048.045a1.311,1.311,0,0,1-.961.38Z" transform="translate(-3.16 -10.443)" fill="#fff"/>
      <path id="Path_366" data-name="Path 366" d="M42.354,6.548H36.732V1.42A1.441,1.441,0,0,0,35.312,0H8.464a1.441,1.441,0,0,0-1.42,1.42V6.548H1.42A1.441,1.441,0,0,0,0,7.968V60.58A1.441,1.441,0,0,0,1.42,62H42.354a1.311,1.311,0,0,0,.961-.38c.017-.014.032-.031.048-.045s.018-.018.026-.028a1.308,1.308,0,0,0,.385-.967V7.968a1.441,1.441,0,0,0-1.42-1.42m-18.717,45.1h3.011v6.912H23.637Zm-3.155,6.912h-2.97V51.646h2.97Zm7.743-10.067H15.935a1.6,1.6,0,0,0-1.577,1.577V59.16H2.84V9.389H40.934V59.16H29.8V50.068a1.6,1.6,0,0,0-1.577-1.577M9.884,2.84H33.891V6.548H9.884Z" fill="#37434c"/>
      <rect id="Rectangle_198" data-name="Rectangle 198" width="2.97" height="6.912" transform="translate(17.513 51.646)" fill="#fff"/>
      <rect id="Rectangle_199" data-name="Rectangle 199" width="3.011" height="6.912" transform="translate(23.637 51.646)" fill="#fff"/>
      <rect id="Rectangle_200" data-name="Rectangle 200" width="3.471" height="4.591" transform="translate(9.616 19.072)" fill="#4484ce"/>
      <path id="Path_367" data-name="Path 367" d="M22.044,34.287H15.732a1.441,1.441,0,0,0-1.42,1.42v7.431a1.441,1.441,0,0,0,1.42,1.42h6.311a1.309,1.309,0,0,0,.96-.38c.017-.014.032-.031.049-.046l.026-.027a1.31,1.31,0,0,0,.385-.967V35.707a1.441,1.441,0,0,0-1.42-1.42m-1.42,7.431H17.152V37.127h3.471Z" transform="translate(-7.537 -18.055)" fill="#37434c"/>
      <rect id="Rectangle_201" data-name="Rectangle 201" width="3.471" height="4.591" transform="translate(20.348 19.072)" fill="#4484ce"/>
      <path id="Path_368" data-name="Path 368" d="M44.713,34.287H38.4a1.441,1.441,0,0,0-1.42,1.42v7.431a1.441,1.441,0,0,0,1.42,1.42h6.311a1.311,1.311,0,0,0,.961-.38c.017-.014.032-.031.049-.046s.018-.018.026-.027a1.309,1.309,0,0,0,.385-.967V35.707a1.441,1.441,0,0,0-1.42-1.42m-1.42,7.431H39.821V37.127h3.471Z" transform="translate(-19.474 -18.055)" fill="#37434c"/>
      <rect id="Rectangle_202" data-name="Rectangle 202" width="3.471" height="4.591" transform="translate(31.08 19.072)" fill="#4484ce"/>
      <path id="Path_369" data-name="Path 369" d="M61.071,34.287a1.441,1.441,0,0,0-1.42,1.42v7.431a1.441,1.441,0,0,0,1.42,1.42h6.311a1.311,1.311,0,0,0,.961-.38c.017-.014.032-.031.048-.046s.018-.018.026-.027a1.31,1.31,0,0,0,.385-.967V35.707a1.441,1.441,0,0,0-1.42-1.42Zm4.891,7.431H62.491V37.127h3.471Z" transform="translate(-31.412 -18.055)" fill="#37434c"/>
      <rect id="Rectangle_203" data-name="Rectangle 203" width="3.471" height="4.591" transform="translate(9.616 32.396)" fill="#4484ce"/>
      <path id="Path_370" data-name="Path 370" d="M22.044,62.432H15.732a1.441,1.441,0,0,0-1.42,1.42v7.431a1.441,1.441,0,0,0,1.42,1.42h6.311a1.311,1.311,0,0,0,.961-.38c.017-.014.032-.03.048-.045l.027-.028a1.31,1.31,0,0,0,.385-.967V63.852a1.441,1.441,0,0,0-1.42-1.42m-1.42,7.431H17.152V65.272h3.471Z" transform="translate(-7.537 -32.876)" fill="#37434c"/>
      <rect id="Rectangle_204" data-name="Rectangle 204" width="3.471" height="4.591" transform="translate(20.348 32.396)" fill="#4484ce"/>
      <path id="Path_371" data-name="Path 371" d="M44.713,62.432H38.4a1.441,1.441,0,0,0-1.42,1.42v7.431A1.441,1.441,0,0,0,38.4,72.7h6.311a1.311,1.311,0,0,0,.961-.38c.017-.014.032-.03.048-.045s.018-.018.026-.028a1.309,1.309,0,0,0,.385-.967V63.852a1.441,1.441,0,0,0-1.42-1.42m-1.42,7.431H39.821V65.272h3.471Z" transform="translate(-19.474 -32.876)" fill="#37434c"/>
      <rect id="Rectangle_205" data-name="Rectangle 205" width="3.471" height="4.591" transform="translate(31.08 32.396)" fill="#4484ce"/>
      <path id="Path_372" data-name="Path 372" d="M68.343,72.324c.017-.014.032-.03.048-.045s.018-.018.026-.028a1.31,1.31,0,0,0,.385-.967V63.852a1.441,1.441,0,0,0-1.42-1.42H61.071a1.441,1.441,0,0,0-1.42,1.42v7.431a1.441,1.441,0,0,0,1.42,1.42h6.311a1.311,1.311,0,0,0,.961-.38m-2.381-2.461H62.491V65.272h3.471Z" transform="translate(-31.412 -32.876)" fill="#37434c"/>
    </g>
  </g>
</svg>
