<svg xmlns="http://www.w3.org/2000/svg" xmlns:xlink="http://www.w3.org/1999/xlink" width="160.099" height="215.456" viewBox="0 0 160.099 215.456">
  <defs>
    <clipPath id="clip-path">
      <rect id="Rectangle_167" data-name="Rectangle 167" width="160.099" height="215.456" transform="translate(0 0)" fill="none"/>
    </clipPath>
  </defs>
  <g id="Group_158" data-name="Group 158" clip-path="url(#clip-path)">
    <path id="Path_208" data-name="Path 208" d="M768.707,248.784s1.409-19.691-12.086-22.983-35.4,22.8-35.4,22.8-6.083-2.728-6.006,8.41,8.148,8.795,8.148,8.795,2.113,9.43,5.251,14.041c0,0,1.761,20.45-6.454,22.032l5.851,116.836H761.6l9.982-115.139s-6.421-2.145-8.161-6.067-1.337-19.118-1.337-19.118A27.018,27.018,0,0,0,767.06,265.8s5.333,1.694,7.682-6.286-2.451-13.038-6.036-10.734" transform="translate(-649.362 -204.75)" fill="#fff"/>
    <path id="Path_209" data-name="Path 209" d="M79.768,638.438s-2.474-.838-6.623-8.918-11.806-6.173-12.916-15.58c0,0,2.447-1.654,9.871,4.12,0,0-11.226-23.3,1.391-19.314,0,0,.2-4.289,3.789-4.039s1.01,6.106,5.817,17.691c0,0,3.168-7.833,9-8.448s15.277,5.007,10.4,6.91c0,0-.533,1.154-5.022.406s-8.73-1.682-8.031,4.621,8.287,7.088,8.865,4.533,1.13-9.628,4.861-8.493,2.269,11.1-1.937,15.248c-2.183,4.931-2.776,6.314-2.776,6.314v10.141H79.956Z" transform="translate(-54.683 -539.939)" fill="#fff"/>
    <path id="Path_210" data-name="Path 210" d="M722.564,38.795c.611,6.171,3.565,6.69,4.152,6.731q.052,0,.105,0a1.46,1.46,0,0,0,1.118-.523,1.147,1.147,0,0,1,.925-.481,1.714,1.714,0,0,1,.8.215h0a1.56,1.56,0,0,0,1.6-.005c11.743-7.272,4.893-18.454,1.953-23.229-.417-.679-.779-1.265-1.009-1.7A51.84,51.84,0,0,1,729.39,13.5a13.77,13.77,0,0,0-5.137-7.249,8.984,8.984,0,0,0-5.775-2.04,12.786,12.786,0,0,0-5.7,1.487c-1.739-1.9-5.986-5.7-12.14-5.7a15.347,15.347,0,0,0-2.989.3c-6.766,1.349-9.27,4.769-12.17,8.728a48.684,48.684,0,0,1-4.129,5.108c-1.308,1.374-2.708,2.673-4.062,3.929-4.837,4.487-9.405,8.726-7.923,14.835,1.781,7.344,9.114,11.677,9.426,11.858a1.46,1.46,0,0,0,.761.2c5.115-.033,14.56-2.789,18.585-8.6a32.13,32.13,0,0,0,2.851-5.391c1.468-3.295,2.528-5.675,5.819-6.42a7.818,7.818,0,0,1,1.721-.2,5.479,5.479,0,0,1,4.853,2.835,1.5,1.5,0,0,0,1.464.853c6.1-.453,7.084,4.368,7.717,10.766" transform="translate(-607.477 0.001)" fill="#666664"/>
    <path id="Path_211" data-name="Path 211" d="M251.644,1039.936a1.5,1.5,0,0,0-2.19-1.163c-.084.045-8.481,4.5-14.065,6.606a77.313,77.313,0,0,0-10.334,4.97v-5.066a1.523,1.523,0,0,0-1.528-1.495H197.5a1.5,1.5,0,0,0-1.5,1.477c-.007.532-.663,53.312-.663,62.119a30.624,30.624,0,0,0,3.163,14c2.959,5.52,7.691,8.182,13.553,7.613a16.913,16.913,0,0,0,12.97-8.335l2.74,36.379a1.5,1.5,0,0,0,1.493,1.383h28.128a1.5,1.5,0,0,0,1.492-1.384c1.36-18.307,2.306-44.513-.911-65.4-2.673-17.357-6.288-51.357-6.324-51.7" transform="translate(-177.355 -942.967)" fill="#f9ce00"/>
    <path id="Path_212" data-name="Path 212" d="M1234.078,1156.852c-.04-.773-3.966-77.377-4.754-87.449-.948-12.118-6.37-19.333-17.065-22.705a118.536,118.536,0,0,1-18.658-7.917,1.5,1.5,0,0,0-2.207,1.154c-.036.342-3.651,34.341-6.324,51.7-3.217,20.892-2.271,47.1-.911,65.4a1.5,1.5,0,0,0,1.492,1.384h46.932a1.495,1.495,0,0,0,1.495-1.57" transform="translate(-1073.981 -942.966)" fill="#f9ce00"/>
    <path id="Path_213" data-name="Path 213" d="M946.982,700.287c-5.974,0-8.755-5.552-9.391-8.488a1.51,1.51,0,0,1,1.462-1.829H954.91a1.509,1.509,0,0,1,1.462,1.825c-.636,2.936-3.417,8.492-9.391,8.492m-5.834-7.371c.817,1.842,2.543,4.316,5.834,4.316s5.017-2.474,5.834-4.316Z" transform="translate(-851.23 -626.44)" fill="#494949"/>
    <path id="Path_214" data-name="Path 214" d="M799.96,584.44c-19.954,0-24.444-24.1-24.444-32.537a1.5,1.5,0,1,1,2.993,0c0,7.665,3.941,29.545,21.452,29.545s21.451-21.88,21.451-29.545a1.5,1.5,0,0,1,2.993,0c0,8.441-4.491,32.537-24.444,32.537" transform="translate(-704.109 -499.726)" fill="#494949"/>
    <path id="Path_215" data-name="Path 215" d="M1273.6,476.37a5.531,5.531,0,0,1-2.011-.393,1.5,1.5,0,0,1,1.085-2.789,2.355,2.355,0,0,0,2.822-.793c2.262-2.4,3.34-8.4,2.025-11.258a3.97,3.97,0,0,0-1.988-2.278,1.755,1.755,0,0,0-1.3.1,1.485,1.485,0,0,1-2.042-.516,1.509,1.509,0,0,1,.522-2.061,4.738,4.738,0,0,1,3.67-.4,6.6,6.6,0,0,1,3.859,3.9c1.848,4.011.578,11.223-2.563,14.561a5.562,5.562,0,0,1-4.075,1.924" transform="translate(-1153.639 -413.818)" fill="#494949"/>
    <path id="Path_216" data-name="Path 216" d="M705.248,476.368a5.558,5.558,0,0,1-4.074-1.924c-3.142-3.338-4.411-10.55-2.564-14.561a6.6,6.6,0,0,1,3.859-3.9,4.736,4.736,0,0,1,3.671.4,1.5,1.5,0,0,1-1.524,2.575,1.763,1.763,0,0,0-1.3-.1,3.971,3.971,0,0,0-1.988,2.278c-1.316,2.857-.237,8.854,2.026,11.258a2.354,2.354,0,0,0,2.819.792,1.5,1.5,0,0,1,1.086,2.789,5.535,5.535,0,0,1-2.01.393" transform="translate(-633.506 -413.815)" fill="#494949"/>
    <path id="Path_217" data-name="Path 217" d="M1136.611,505.047a1.433,1.433,0,1,0-1.194,1.639,1.432,1.432,0,0,0,1.194-1.639" transform="translate(-1029.37 -457.445)" fill="#494949"/>
    <path id="Path_218" data-name="Path 218" d="M917.12,505.047a1.433,1.433,0,1,1,1.193,1.639,1.432,1.432,0,0,1-1.193-1.639" transform="translate(-832.659 -457.445)" fill="#494949"/>
    <path id="Path_219" data-name="Path 219" d="M1105.638,428.041a1.5,1.5,0,0,1-1.333-.814,3.652,3.652,0,0,0-2.361-1.8,4.267,4.267,0,0,0-2.977,1.085,1.5,1.5,0,0,1-2.053-2.178,7.256,7.256,0,0,1,5.4-1.876,6.647,6.647,0,0,1,4.649,3.4,1.5,1.5,0,0,1-1.33,2.179" transform="translate(-995.493 -383.52)" fill="#494949"/>
    <path id="Path_220" data-name="Path 220" d="M793.9,272.338a1.5,1.5,0,0,1-1.18-2.415,57.767,57.767,0,0,1,12.942-12.445,1.5,1.5,0,0,1,1.616,2.52,55.9,55.9,0,0,0-12.2,11.763,1.492,1.492,0,0,1-1.182.578" transform="translate(-719.444 -233.556)" fill="#494949"/>
    <path id="Path_221" data-name="Path 221" d="M839.986,256.159a1.5,1.5,0,0,1-.345-2.952c7.973-1.9,10.574-6.882,12.867-11.279a21.553,21.553,0,0,1,3.577-5.481c4.4-4.341,9.968-1.924,10.2-1.82a1.5,1.5,0,0,1-1.215,2.735c-.171-.074-3.967-1.669-6.888,1.214a19.255,19.255,0,0,0-3.025,4.736c-2.462,4.718-5.527,10.59-14.828,12.806a1.513,1.513,0,0,1-.348.041" transform="translate(-761.285 -212.329)" fill="#494949"/>
    <path id="Path_222" data-name="Path 222" d="M1162.236,297.775a1.53,1.53,0,0,1-.154-.008c-3.467-.353-4.076-4.481-4.664-8.473-.44-2.98-.937-6.357-2.5-7.784-1.18-1.075-3.512-.656-4.311-.4a1.5,1.5,0,0,1-.916-2.849c.184-.059,4.534-1.426,7.242,1.041,2.356,2.146,2.937,6.085,3.449,9.56.381,2.591.857,5.815,2.007,5.932a1.5,1.5,0,0,1-.15,2.985" transform="translate(-1042.89 -252.244)" fill="#494949"/>
    <path id="Path_223" data-name="Path 223" d="M1101.064,46.967a1.494,1.494,0,0,1-1.335-.82,17.648,17.648,0,0,0-4.38-4.991,1.5,1.5,0,0,1,1.88-2.329A20.215,20.215,0,0,1,1102.4,44.8a1.5,1.5,0,0,1-1.335,2.168" transform="translate(-993.987 -34.951)" fill="#494949"/>
    <path id="Path_224" data-name="Path 224" d="M808.723,822.558a1.5,1.5,0,0,1-.954-2.649c3.14-2.6,3.443-13.007,2.9-18.96a1.5,1.5,0,1,1,2.98-.274c.16,1.737,1.4,17.1-3.969,21.54a1.487,1.487,0,0,1-.952.343" transform="translate(-732.899 -725.718)" fill="#494949"/>
    <path id="Path_225" data-name="Path 225" d="M1207.648,822.56a1.486,1.486,0,0,1-.952-.343c-5.374-4.441-4.128-19.8-3.969-21.54a1.5,1.5,0,0,1,2.981.274c-.546,5.955-.242,16.368,2.895,18.96a1.5,1.5,0,0,1-.954,2.65" transform="translate(-1091.769 -725.719)" fill="#494949"/>
    <path id="Path_226" data-name="Path 226" d="M188.844,623.915a1.5,1.5,0,0,1-.831-2.742c1.114-.746,4.079-3.219,4.44-5.679.282-1.926,1.632-3.556,2.939-5.133,1.647-1.988,3.2-3.866,2.767-6.166a29.151,29.151,0,0,0-1.41-5.484,8.231,8.231,0,0,0-2.049,5.1,4.293,4.293,0,0,1-1.938,3.867,5.031,5.031,0,0,1-5.121.12c-3.419-1.753-5.628-4.662-5.628-7.412,0-3.78,2.216-6.036,5.927-6.036a14.552,14.552,0,0,1,3.726.611c2.137.556,3.323.795,4.831-.319l.055-.043c-.4-.445-2.007-1.775-8.071-3.572a6.6,6.6,0,0,0-6.6,1.953,23.178,23.178,0,0,0-3.038,5.248,1.5,1.5,0,0,1-2.838,0c-.126-.373-3.071-9.182-3.627-12.867-.472-3.144-.972-3.711-1.1-3.807-.006,0-.027,0-.059.008a1.913,1.913,0,0,0-1.127.9c-.552.836-1.316,2.886-.228,7.219,1.721,6.857,3.471,9.707,3.489,9.735a1.5,1.5,0,0,1-2.529,1.6c-.081-.127-2-3.2-3.863-10.608-1.3-5.172-.372-8.073.633-9.6a4.816,4.816,0,0,1,3.154-2.2,2.988,2.988,0,0,1,2.285.524c1.337.978,1.887,3.02,2.3,5.785a78.7,78.7,0,0,0,2.386,8.89c.581-.961,1.21-1.887,1.766-2.626a9.593,9.593,0,0,1,9.844-3.023c8.616,2.553,10.017,4.569,10.277,6.04a2.673,2.673,0,0,1-.747,2.331c.965,1.154,1.53,3.361,2.24,7.112.7,3.682-1.578,6.426-3.4,8.631-1.091,1.317-2.122,2.561-2.282,3.658-.63,4.289-5.534,7.6-5.743,7.736a1.489,1.489,0,0,1-.828.251m-.9-26.575c-1.451,0-2.934.362-2.934,3.044,0,1.563,1.682,3.56,4,4.748a2.069,2.069,0,0,0,2.106.048,1.278,1.278,0,0,0,.6-1.157,10.936,10.936,0,0,1,1.569-5.667,18.017,18.017,0,0,1-2.371-.5,11.861,11.861,0,0,0-2.972-.515" transform="translate(-151.01 -525.292)" fill="#494949"/>
    <path id="Path_227" data-name="Path 227" d="M63.4,812.743a1.507,1.507,0,0,1-.243-.02c-5.07-.826-9.356-8.758-10-10a31.949,31.949,0,0,0-6.506-6.663c-2.088-1.646-6.966-5.835-7.183-9.182a3.019,3.019,0,0,1,.833-2.374c3.008-3.078,11.061,3.778,11.139,3.851.931.859,5.091,2.946,7.495,4.059a1.5,1.5,0,0,1-1.258,2.716c-1.109-.514-6.721-3.149-8.268-4.576-1.618-1.495-5.727-3.957-6.98-3.881-.048.752,1.613,3.522,6.073,7.038a33.64,33.64,0,0,1,7.21,7.455c.025.039.048.081.07.122,1.555,3.037,5.061,8.026,7.853,8.481a1.5,1.5,0,0,1-.239,2.973" transform="translate(-35.827 -711.55)" fill="#494949"/>
    <path id="Path_228" data-name="Path 228" d="M108.156,637.939a1.5,1.5,0,0,1-1.384-.925c-.1-.235-2.395-5.8-3.7-9.644-1.48-4.367-1.384-9.953,1.71-11.7a5.134,5.134,0,0,1,5.7.294,1.5,1.5,0,0,1-1.852,2.351,2.176,2.176,0,0,0-2.371-.042c-1.207.684-1.623,4.387-.351,8.14s3.609,9.405,3.632,9.462a1.5,1.5,0,0,1-1.382,2.069" transform="translate(-92.739 -558.32)" fill="#494949"/>
    <path id="Path_229" data-name="Path 229" d="M4.4,451.416a1.317,1.317,0,0,1-.976-.431L.345,447.614A1.321,1.321,0,1,1,2.3,445.833L5.373,449.2a1.321,1.321,0,0,1-.976,2.212" transform="translate(0 -404.391)" fill="#f9ce00"/>
    <path id="Path_230" data-name="Path 230" d="M87.077,383.785a1.5,1.5,0,0,1-1.413-1l-2.195-6.29a1.5,1.5,0,0,1,2.825-.986l2.195,6.29a1.5,1.5,0,0,1-1.413,1.99" transform="translate(-75.708 -340.019)" fill="#f9ce00"/>
    <path id="Path_231" data-name="Path 231" d="M185.748,375.3c-.034,0-.068,0-.1,0a1.5,1.5,0,0,1-1.392-1.594l.343-5.084a1.5,1.5,0,1,1,2.986.2l-.343,5.084a1.5,1.5,0,0,1-1.492,1.4" transform="translate(-167.286 -333.41)" fill="#f9ce00"/>
    <path id="Path_232" data-name="Path 232" d="M491.447,1225.9a1.5,1.5,0,0,1-1.494-1.458l-1.281-50.664a1.5,1.5,0,0,1,2.992-.076l1.281,50.665a1.5,1.5,0,0,1-1.458,1.534h-.039" transform="translate(-443.676 -1064.309)" fill="#494949"/>
    <path id="Path_233" data-name="Path 233" d="M1506.876,1491.272h-.011a1.5,1.5,0,0,1-1.485-1.507c.2-28.336,5.449-82.172,5.5-82.713a1.5,1.5,0,0,1,2.979.292c-.053.54-5.285,54.242-5.489,82.442a1.5,1.5,0,0,1-1.5,1.486" transform="translate(-1366.77 -1276.27)" fill="#494949"/>
    <path id="Path_234" data-name="Path 234" d="M819.659,1115.795c-12.792,0-20.764-2.909-21.1-3.033a1.5,1.5,0,0,1,1.043-2.805c.076.028,7.844,2.845,20.055,2.845s19.978-2.817,20.055-2.846a1.5,1.5,0,0,1,1.041,2.806c-.333.124-8.3,3.033-21.1,3.033" transform="translate(-724.148 -1007.669)" fill="#494949"/>
    <path id="Path_235" data-name="Path 235" d="M843.358,1196.745a67.545,67.545,0,0,1-18.621-2.3,1.5,1.5,0,0,1,.9-2.856,73.861,73.861,0,0,0,35.451,0,1.5,1.5,0,0,1,.894,2.856,67.542,67.542,0,0,1-18.62,2.3" transform="translate(-747.846 -1081.813)" fill="#494949"/>
    <path id="Path_236" data-name="Path 236" d="M1028.3,641.772a1.433,1.433,0,1,1-1.433-1.433,1.433,1.433,0,0,1,1.433,1.433" transform="translate(-931.012 -581.379)" fill="#494949"/>
  </g>
</svg>
