<svg xmlns="http://www.w3.org/2000/svg" xmlns:xlink="http://www.w3.org/1999/xlink" width="146.501" height="219.742" viewBox="0 0 146.501 219.742">
  <defs>
    <clipPath id="clip-path">
      <rect id="Rectangle_168" data-name="Rectangle 168" width="146.501" height="219.742" transform="translate(0 0)" fill="none"/>
    </clipPath>
    <clipPath id="clip-path-2">
      <rect id="Rectangle_169" data-name="Rectangle 169" width="26.674" height="49.225" fill="none"/>
    </clipPath>
  </defs>
  <g id="Group_161" data-name="Group 161" transform="translate(0 -0.004)">
    <g id="Group_160" data-name="Group 160" transform="translate(0 0.004)" clip-path="url(#clip-path)">
      <path id="Path_237" data-name="Path 237" d="M559.85,20.288s-7.571-8.1-21.358-2.312-17.549,18.639-18.426,24.007-2.968,13.5-.77,24.174l-4.274,8.708s1.005,1.24,4.274,0c0,0,.751,27.6-7.014,43.694,0,0-6.236,26.343.8,31.543s19.063,5.011,27.97-6.118c0,0,32.4-.781,37.495-11.038a54.215,54.215,0,0,0,5.139-26.589c-.385-5.451-2.447-24.868-2.539-37.974s1.152-49.117-21.3-48.093" transform="translate(-461.871 -14.401)" fill="#fff"/>
      <path id="Path_238" data-name="Path 238" d="M424.9,1094.088c-4.588-10.632-19.272-15.81-19.9-16.025a1.53,1.53,0,0,0-1.986,1.087c-.027.11-2.7,11.057-6.372,15.131a4.94,4.94,0,0,1-3.716,1.832,5.865,5.865,0,0,1-2.907-.845,1.53,1.53,0,0,0-2.059.306c-.061.075-6.211,7.574-19.3,7.574a29.117,29.117,0,0,1-12-2.445,1.53,1.53,0,0,0-2.1.988,14.238,14.238,0,0,1-5.928,7.776,1.529,1.529,0,0,0-.635.7l-1.187,2.624a17.639,17.639,0,0,1-2.225.152h0a25.009,25.009,0,0,1-11.286-3.064,87.982,87.982,0,0,0,5.445-18.582c.334-1.6.649-3.125.995-4.616a1.533,1.533,0,0,0-.41-1.43,18.937,18.937,0,0,1-3.43-5.7,1.529,1.529,0,0,0-1.853-.938l-10.186,2.9a1.543,1.543,0,0,0-.264.1c-8.865,4.431-13.36,12.5-13.36,23.98,0,20.107,4.737,50.6,6.376,56.645,2.293,8.461,5.231,11.116,7.2,11.891l-.707,20.764a1.562,1.562,0,0,0,.429,1.129,1.543,1.543,0,0,0,1.1.48h87.642a1.553,1.553,0,0,0,1.529-1.591l-.534-20.284a18.78,18.78,0,0,0,5.956-4.51c4.087-4.238,5.223-15.3,6.137-24.184.092-.893.18-1.748.266-2.551,1.919-17.719,3.569-39.334-.73-49.3" transform="translate(-281.109 -976.763)" fill="#4484ce"/>
      <path id="Path_239" data-name="Path 239" d="M661.535,1763.861l-14.429-9.026-4.534,19.812s4.649,3.265,17.477,2.22Z" transform="translate(-582.239 -1590.065)" fill="#fff"/>
      <path id="Path_240" data-name="Path 240" d="M640.44,1763.845h0c-9.545,0-13.349-2.594-13.506-2.7a1.53,1.53,0,0,1-.612-1.593l4.534-19.812a1.53,1.53,0,0,1,2.3-.955l14.429,9.026a1.529,1.529,0,0,1,.708,1.47l-1.485,13.007a1.529,1.529,0,0,1-1.4,1.35c-1.721.14-3.394.212-4.972.212m-10.873-4.771c1.469.628,4.871,1.712,10.872,1.712h0c1.112,0,2.275-.037,3.473-.111l1.232-10.787-11.788-7.373Z" transform="translate(-567.477 -1575.307)" fill="#fff"/>
      <path id="Path_241" data-name="Path 241" d="M668.185,551.567a1.53,1.53,0,0,1-1.431-.989,49.379,49.379,0,0,1-3.12-16.044,1.53,1.53,0,0,1,3.059,0,46.78,46.78,0,0,0,2.922,14.962,1.53,1.53,0,0,1-1.43,2.071" transform="translate(-601.323 -482.959)" fill="#494949"/>
      <path id="Path_242" data-name="Path 242" d="M773.983,614.55a20.575,20.575,0,0,1-15.739-6.85,1.529,1.529,0,1,1,2.253-2.07,17.626,17.626,0,0,0,13.487,5.86c16.818,0,20.761-19.565,21.568-25.561a1.529,1.529,0,1,1,3.032.408c-.891,6.618-5.3,28.212-24.6,28.212" transform="translate(-686.683 -529.713)" fill="#494949"/>
      <path id="Path_243" data-name="Path 243" d="M1025.669,487.56a1.465,1.465,0,1,0-1.22,1.675,1.464,1.464,0,0,0,1.22-1.675" transform="translate(-926.726 -440.66)" fill="#494949"/>
      <path id="Path_244" data-name="Path 244" d="M921.412,630.913a1.465,1.465,0,1,0-1.22,1.675,1.464,1.464,0,0,0,1.22-1.675" transform="translate(-832.258 -570.553)" fill="#494949"/>
      <path id="Path_245" data-name="Path 245" d="M812.1,487.56a1.464,1.464,0,1,1,1.219,1.675,1.463,1.463,0,0,1-1.219-1.675" transform="translate(-735.832 -440.66)" fill="#494949"/>
      <path id="Path_246" data-name="Path 246" d="M759.4,410.447a1.529,1.529,0,0,1-1.359-2.221,6.794,6.794,0,0,1,4.752-3.479,7.428,7.428,0,0,1,5.525,1.917,1.53,1.53,0,0,1-2.1,2.225,4.342,4.342,0,0,0-3.042-1.108,3.736,3.736,0,0,0-2.418,1.85,1.539,1.539,0,0,1-1.358.816" transform="translate(-686.712 -366.702)" fill="#494949"/>
      <path id="Path_280" data-name="Path 280" d="M759.4,410.447a1.529,1.529,0,0,1-1.359-2.221,6.794,6.794,0,0,1,4.752-3.479,7.428,7.428,0,0,1,5.525,1.917,1.53,1.53,0,0,1-2.1,2.225,4.342,4.342,0,0,0-3.042-1.108,3.736,3.736,0,0,0-2.418,1.85,1.539,1.539,0,0,1-1.358.816" transform="matrix(0.978, 0.208, -0.208, 0.978, -563.681, -516.502)" fill="#494949"/>
      <path id="Path_247" data-name="Path 247" d="M1090.079,792.837a1.529,1.529,0,0,1-1.5-1.223c-1.275-6.21-.209-13.961-.163-14.288a1.529,1.529,0,0,1,3.029.425c-.01.075-1.037,7.562.131,13.247a1.53,1.53,0,0,1-1.191,1.806,1.569,1.569,0,0,1-.309.032" transform="translate(-985.805 -703.147)" fill="#494949"/>
      <path id="Path_248" data-name="Path 248" d="M609.944,201.288a1.529,1.529,0,0,1-1.059-2.633c4.436-4.256,7.071-12.714,9.619-20.893,2.947-9.46,5.731-18.4,11.362-21.433,2.74-1.478,5.263-1.865,7.5-1.152a7.547,7.547,0,0,1,4.23,3.525,1.529,1.529,0,0,1-2.735,1.369,4.484,4.484,0,0,0-2.461-1.991c-1.41-.434-3.121-.117-5.084.941-4.534,2.445-7.259,11.192-9.894,19.651-2.663,8.549-5.417,17.39-10.422,22.191a1.525,1.525,0,0,1-1.059.425" transform="translate(-551.288 -140.293)" fill="#494949"/>
      <path id="Path_249" data-name="Path 249" d="M1007.668,224.39a1.53,1.53,0,0,1-1.514-1.327c-.324-2.43-.47-5.411-.639-8.862-.383-7.844-.86-17.6-3.844-24.7-3.333-7.928-10.266-8.231-10.559-8.24a1.479,1.479,0,1,1,.039-2.958h.033c.373,0,9.183.253,13.308,10.063,3.193,7.594,3.684,17.629,4.079,25.713.166,3.383.308,6.292.616,8.594a1.524,1.524,0,0,1-1.314,1.712,1.573,1.573,0,0,1-.2.007" transform="translate(-896.705 -161.559)" fill="#494949"/>
      <path id="Path_250" data-name="Path 250" d="M785.877,209.279a1.53,1.53,0,0,1-.52-2.968,21.231,21.231,0,0,1,8.987-.994,1.53,1.53,0,1,1-.419,3.03,18.34,18.34,0,0,0-7.533.843,1.537,1.537,0,0,1-.514.09" transform="translate(-710.7 -185.908)" fill="#494949"/>
      <path id="Path_251" data-name="Path 251" d="M551.3,344.194a1.53,1.53,0,0,1-1.277-2.369c5.936-9.048,10.19-28.968,10.232-29.169a1.53,1.53,0,0,1,2.993.632c-.177.84-4.414,20.684-10.667,30.215a1.529,1.529,0,0,1-1.281.691" transform="translate(-498.148 -282.2)" fill="#494949"/>
      <path id="Path_252" data-name="Path 252" d="M1088.845,808.411a1.53,1.53,0,0,1-.117-3.055c.185-.018,4.914-.565,7.133-7.489,1.433-4.473.094-9.155-1.325-14.111a67.069,67.069,0,0,1-1.7-6.832c-1.306-7.474-.066-18.435-.012-18.9a1.529,1.529,0,0,1,3.039.351c-.013.109-1.242,10.987-.013,18.022a64.667,64.667,0,0,0,1.625,6.516c1.481,5.177,3.013,10.53,1.3,15.887-2.872,8.963-9.526,9.584-9.808,9.606-.04,0-.081,0-.12,0" transform="translate(-985.224 -685.624)" fill="#494949"/>
      <path id="Path_253" data-name="Path 253" d="M1186.579,501.563a1.53,1.53,0,0,1-.78-2.846c9.094-5.38,9.008-24.849,7.523-35.5-1.307-9.385-1.85-30.258-1.85-39.347,0-1.148-.013-2.214-.04-3.258a1.529,1.529,0,1,1,3.058-.079c.028,1.069.041,2.161.041,3.336,0,9.015.534,29.688,1.821,38.925.438,3.143,3.905,30.927-9,38.559a1.523,1.523,0,0,1-.777.214" transform="translate(-1073.778 -379.694)" fill="#494949"/>
      <path id="Path_254" data-name="Path 254" d="M1036.657,76.687a1.53,1.53,0,0,1-1.525-1.428c-.739-11.128-3.509-19.461-8.235-24.769-6.86-7.705-11.538-4.587-11.733-4.451a1.539,1.539,0,0,1-2.126-.357,1.52,1.52,0,0,1,.325-2.116c.282-.209,7.018-5,15.819,4.889,5.189,5.828,8.218,14.777,9,26.6a1.53,1.53,0,0,1-1.425,1.628c-.034,0-.069,0-.1,0" transform="translate(-917.656 -38.262)" fill="#494949"/>
      <path id="Path_255" data-name="Path 255" d="M541.4,707.479a1.532,1.532,0,0,1-1.424-2.086c4.531-11.6,5.075-28.134,5.1-34.7a1.548,1.548,0,0,1,1.535-1.524,1.529,1.529,0,0,1,1.524,1.535c-.024,6.74-.59,23.722-5.308,35.8a1.53,1.53,0,0,1-1.425.974" transform="translate(-489.18 -606.335)" fill="#494949"/>
      <path id="Path_256" data-name="Path 256" d="M589.265,240.179a1.529,1.529,0,0,1-1.526-1.451c-.689-13.355.349-23.268,3.266-31.2a1.53,1.53,0,1,1,2.871,1.056c-2.769,7.529-3.749,17.056-3.082,29.984a1.53,1.53,0,0,1-1.449,1.607l-.08,0" transform="translate(-532.368 -187.137)" fill="#494949"/>
      <path id="Path_257" data-name="Path 257" d="M645.223,18.152a1.53,1.53,0,0,1-1.354-2.239A27.8,27.8,0,0,1,654.883,4.3c16.91-9.528,26.981-.292,27.4.106a1.53,1.53,0,0,1-2.1,2.227c-.363-.336-8.941-8.04-23.8.332a24.793,24.793,0,0,0-9.805,10.368,1.529,1.529,0,0,1-1.356.82" transform="translate(-583.255 -0.003)" fill="#494949"/>
      <path id="Path_258" data-name="Path 258" d="M543.369,778.112a1.53,1.53,0,0,1-1.357-2.233,46.127,46.127,0,0,0,2.984-7.44,98.961,98.961,0,0,0,3.218-16,19.115,19.115,0,0,1,2.623-8.715c.226-.4.421-.747.562-1.066.936-2.11,1.592-5.6,2.409-10.92.843-5.484.968-17.664.969-17.785a1.651,1.651,0,0,1,1.529-1.649h.015a1.646,1.646,0,0,1,1.515,1.679c0,.5-.129,12.455-1,18.153s-1.556,9.3-2.636,11.729c-.2.451-.439.893-.693,1.343a16.253,16.253,0,0,0-2.242,7.5,102.047,102.047,0,0,1-3.318,16.552,48.464,48.464,0,0,1-3.213,8.026,1.531,1.531,0,0,1-1.359.828" transform="translate(-490.964 -645.419)" fill="#494949"/>
      <path id="Path_259" data-name="Path 259" d="M695.32,1207.411a1.53,1.53,0,0,1-.789-2.841c3.725-2.235,6.34-5.454,6.663-8.2a41.843,41.843,0,0,0-.48-8.849,1.528,1.528,0,0,1,.6-1.474l3.66-2.7a1.53,1.53,0,1,1,1.814,2.463l-2.921,2.151a40.365,40.365,0,0,1,.362,8.761c-.521,4.433-4.54,8.313-8.127,10.465a1.524,1.524,0,0,1-.786.218" transform="translate(-628.646 -1071.972)" fill="#494949"/>
      <path id="Path_260" data-name="Path 260" d="M768.585,1133.211a1.529,1.529,0,0,1-1.031-2.659,17.9,17.9,0,0,1,4.774-3.093,4.418,4.418,0,0,0,1.426-.847,7.653,7.653,0,0,0,.08-4.366,1.261,1.261,0,0,0-.42-.693c-1.165-.551-5.006-.823-7.361-.841a1.529,1.529,0,0,1-1.518-1.54,1.554,1.554,0,0,1,1.541-1.519c1.06.008,6.458.1,8.646,1.135a3.983,3.983,0,0,1,2.005,2.464,10.324,10.324,0,0,1-.242,6.738,5.392,5.392,0,0,1-2.842,2.231,15.006,15.006,0,0,0-4.028,2.591,1.523,1.523,0,0,1-1.03.4" transform="translate(-692.749 -1012.711)" fill="#494949"/>
      <path id="Path_261" data-name="Path 261" d="M757.642,1064.61a1.529,1.529,0,0,1-1.375-2.2,4.02,4.02,0,0,0-.207-3.792c-.34-.53-.641-.677-.749-.687-1.5.031-6.319.73-8.047,1a1.529,1.529,0,1,1-.467-3.023c.262-.041,6.437-.99,8.451-1.031a4,4,0,0,1,3.387,2.095,7.082,7.082,0,0,1,.384,6.776,1.53,1.53,0,0,1-1.378.863" transform="translate(-675.502 -955.829)" fill="#494949"/>
      <path id="Path_262" data-name="Path 262" d="M704.419,1001.842a1.531,1.531,0,0,1-1.513-1.766c.251-1.605.063-2.837-.515-3.379a1.635,1.635,0,0,0-1.474-.293c-2.068.461-9.058,2.545-9.128,2.566a1.529,1.529,0,0,1-.875-2.931c.292-.087,7.165-2.136,9.338-2.621a4.609,4.609,0,0,1,4.231,1.048c.952.894,1.976,2.674,1.444,6.082a1.53,1.53,0,0,1-1.51,1.294" transform="translate(-625.052 -900.024)" fill="#494949"/>
      <path id="Path_263" data-name="Path 263" d="M837.325,1022.757a1.53,1.53,0,0,1-1.211-2.462c2.106-2.737,2.042-4.923,1.336-5.537-.408-.355-1.991-.149-3.028.259a1.53,1.53,0,0,1-1.121-2.846c.671-.264,4.121-1.492,6.158.281,1.889,1.645,2.406,5.385-.919,9.71a1.528,1.528,0,0,1-1.214.6" transform="translate(-754.179 -916.534)" fill="#494949"/>
      <path id="Path_264" data-name="Path 264" d="M693.825,737.7a1.526,1.526,0,0,1-1.116-.483c-1.449-1.546-1.345-6.166-.536-16.621.2-2.579.388-5.015.329-5.8a5.021,5.021,0,0,0-4.308-4.628,1.53,1.53,0,0,1,.409-3.032,8.072,8.072,0,0,1,6.95,7.433,58.786,58.786,0,0,1-.33,6.266c-.323,4.181-.994,12.854-.229,14.352a1.53,1.53,0,0,1-1.168,2.517" transform="translate(-622.375 -640.721)" fill="#494949"/>
      <path id="Path_265" data-name="Path 265" d="M1010.529,1040.613a1.527,1.527,0,0,1-1.418-.955l-3.782-9.347a1.529,1.529,0,1,1,2.836-1.147l3.07,7.587,7.4-5.047a1.529,1.529,0,1,1,1.724,2.526l-8.966,6.118a1.532,1.532,0,0,1-.862.266" transform="translate(-910.832 -931.664)" fill="#494949"/>
      <path id="Path_266" data-name="Path 266" d="M890.26,957.433a1.529,1.529,0,0,1-1.494-1.2l-3.013-13.721a1.53,1.53,0,0,1,2.988-.656l1.519,6.918,3.861-17.583a1.53,1.53,0,0,1,.733-1l13.352-7.665a1.53,1.53,0,0,1,1.523,2.653l-12.764,7.327-5.21,23.725a1.53,1.53,0,0,1-1.494,1.2" transform="translate(-802.553 -835.722)" fill="#494949"/>
      <path id="Path_267" data-name="Path 267" d="M762.858,949.924a1.522,1.522,0,0,1-.76-.2l-10.305-5.916a1.529,1.529,0,1,1,1.523-2.653l10.305,5.916a1.529,1.529,0,0,1-.763,2.856" transform="translate(-680.507 -852.599)" fill="#494949"/>
      <path id="Path_268" data-name="Path 268" d="M380.179,1437.808a1.531,1.531,0,0,1-1.453-2.01l11.013-33.343a1.53,1.53,0,1,1,2.9.96l-11.012,33.342a1.53,1.53,0,0,1-1.452,1.05" transform="translate(-343.095 -1269.821)" fill="#494949"/>
      <path id="Path_269" data-name="Path 269" d="M459.034,1520.2a17.161,17.161,0,0,1-5.112-.857,1.53,1.53,0,0,1,.915-2.919c3.375,1.058,6.043.959,8.159-.3,3.881-2.31,5.519-8.439,6.514-13.52,1.818-9.29,8.252-42.69,8.317-43.026a1.53,1.53,0,0,1,3,.579c-.065.336-6.5,33.741-8.319,43.035-1.186,6.06-3.058,12.648-7.952,15.56a10.607,10.607,0,0,1-5.527,1.448" transform="translate(-410.33 -1321.409)" fill="#494949"/>
      <path id="Path_270" data-name="Path 270" d="M895.392,1790.282h-.055l-37.321-1.32a1.529,1.529,0,1,1,.108-3.057l37.321,1.32a1.529,1.529,0,0,1-.053,3.058" transform="translate(-776.116 -1618.217)" fill="#494949"/>
      <path id="Path_271" data-name="Path 271" d="M1267.491,1425.406a1.5,1.5,0,0,1-.289-.028,1.529,1.529,0,0,1-1.215-1.79l6.628-34.628a1.53,1.53,0,1,1,3,.575l-6.628,34.628a1.53,1.53,0,0,1-1.5,1.242" transform="translate(-1147.092 -1257.419)" fill="#494949"/>
      <path id="Path_272" data-name="Path 272" d="M881.062,2029.344c-20.8,0-45.9-5.871-46.155-5.931a1.53,1.53,0,0,1,.7-2.978c.254.06,25.586,5.99,46.146,5.848a1.53,1.53,0,1,1,.02,3.059q-.357,0-.716,0" transform="translate(-755.446 -1830.689)" fill="#494949"/>
      <path id="Path_273" data-name="Path 273" d="M691.408,1744.973a1.526,1.526,0,0,1-.749-.2l-11.682-6.577a1.53,1.53,0,0,1,1.5-2.666l11.682,6.577a1.53,1.53,0,0,1-.752,2.863" transform="translate(-614.519 -1572.397)" fill="#494949"/>
      <path id="Path_274" data-name="Path 274" d="M815.664,1845.731a1.531,1.531,0,0,1-1.517-1.741l2.473-17.742a1.529,1.529,0,0,1,3.03.422l-2.473,17.743a1.53,1.53,0,0,1-1.513,1.319" transform="translate(-737.689 -1653.578)" fill="#494949"/>
      <path id="Path_275" data-name="Path 275" d="M636.737,1967.045a43.949,43.949,0,0,1-12.724-2.315,1.529,1.529,0,0,1,1.016-2.885c.083.029,8.32,2.888,14.346,1.955a1.53,1.53,0,0,1,.468,3.023,20.356,20.356,0,0,1-3.106.222" transform="translate(-564.496 -1777.558)" fill="#494949"/>
      <path id="Path_276" data-name="Path 276" d="M889.843,698.324a4.8,4.8,0,1,1,4.586-4.792,4.7,4.7,0,0,1-4.586,4.792m0-6.524a1.747,1.747,0,1,0,1.527,1.733,1.642,1.642,0,0,0-1.527-1.733" transform="translate(-802.136 -624.071)" fill="#494949"/>
    </g>
    <g id="Group_163" data-name="Group 163" transform="translate(18 9.246)">
      <g id="Group_162" data-name="Group 162" clip-path="url(#clip-path-2)">
        <path id="Path_278" data-name="Path 278" d="M205.551,497.932a2.439,2.439,0,1,1-3.253-1.15,2.439,2.439,0,0,1,3.253,1.15" transform="translate(-182.968 -452.198)" fill="#bcbcbc"/>
        <path id="Path_279" data-name="Path 279" d="M17.382,39.59a1.456,1.456,0,0,1-1.421-1.15c-2.129-9.9,1.392-14.6,4.221-18.371a22.954,22.954,0,0,0,2.5-3.824,9.561,9.561,0,0,0-.042-8.925c-1.554-2.627-4.5-4.145-8.522-4.39-7.986-.486-11.167,7.953-11.3,8.312a1.455,1.455,0,0,1-2.736-.99C1.44,6.5,6.143-.471,14.3.025c4.957.3,8.81,2.367,10.849,5.813a12.454,12.454,0,0,1,.169,11.65,25.513,25.513,0,0,1-2.806,4.327c-2.731,3.641-5.554,7.406-3.7,16.014a1.457,1.457,0,0,1-1.424,1.761" transform="translate(0 0)" fill="#bcbcbc"/>
      </g>
    </g>
  </g>
</svg>
