<svg xmlns="http://www.w3.org/2000/svg" xmlns:xlink="http://www.w3.org/1999/xlink" width="280.7" height="250.537" viewBox="0 0 280.7 250.537">
  <defs>
    <clipPath id="clip-path">
      <path id="Rectangle_170" data-name="Rectangle 170" d="M182.52,0H0V232.537H182.52Z" fill="none"/>
    </clipPath>
    <clipPath id="clip-path-2">
      <rect id="Rectangle_172" data-name="Rectangle 172" width="27.7" height="32.949" fill="none"/>
    </clipPath>
  </defs>
  <g id="Group_205" data-name="Group 205" transform="translate(-374.3 -7623.217)">
    <g id="Group_166" data-name="Group 166" transform="translate(14 7060.217)">
      <circle id="Ellipse_7" data-name="Ellipse 7" cx="61.5" cy="61.5" r="61.5" transform="translate(518 563)" fill="#fbc500"/>
      <path id="Polygon_11" data-name="Polygon 11" d="M12,0,24,21H0Z" transform="matrix(-0.225, -0.974, 0.974, -0.225, 509.056, 653.868)" fill="#fbc500"/>
      <text id="お気軽に_ご相談_ください_" data-name="お気軽に
ご相談
ください!!" transform="translate(581.936 605.67) rotate(8)" fill="#fff" font-size="18" font-family="PingFangSC-Regular, PingFang SC"><tspan x="-36" y="0">お気軽に</tspan><tspan y="0" font-family="Helvetica"></tspan><tspan x="-27" y="24">ご相談</tspan><tspan y="24" font-family="Helvetica"></tspan><tspan x="-41" y="48">ください</tspan><tspan y="48" font-family="Helvetica">!!</tspan></text>
    </g>
    <g id="Group_165" data-name="Group 165" transform="translate(402 7641.217)">
      <g id="Group_164" data-name="Group 164" clip-path="url(#clip-path)">
        <path id="Path_281" data-name="Path 281" d="M0,0,0,.019V.012L0,0" transform="translate(42.306 76.652)" fill="#6ec878"/>
        <path id="Path_282" data-name="Path 282" d="M0,.047.043.011.058,0,.044.013,0,.047" transform="translate(41.073 79.497)" fill="#6ec878"/>
        <path id="Path_283" data-name="Path 283" d="M0,.012.005,0C.018.034.026.057.03.072s0,.019,0,.017A.115.115,0,0,1,.02.064C.014.051.007.033,0,.012" transform="translate(135.244 115.727)" fill="#6ec878"/>
        <path id="Path_284" data-name="Path 284" d="M0,.036S0,.029,0,.025V.007S0,0,0,0c.014.07.021.114.025.138s0,.028,0,.021A.377.377,0,0,1,.013.11C.008.087,0,.06,0,.036" transform="translate(42.306 76.671)" fill="#6ec878"/>
        <path id="Path_285" data-name="Path 285" d="M0,.026V0L0,.008l0,.007,0,.007,0,.008L.005.039,0,.026" transform="translate(135.234 115.69)" fill="#6ec878"/>
        <path id="Path_286" data-name="Path 286" d="M0,0,.075.009l.017,0-.029,0L0,0" transform="translate(74.003 75.358)" fill="#6ec878"/>
        <path id="Path_287" data-name="Path 287" d="M0,.082A.239.239,0,0,1,0,.054.123.123,0,0,1,0,.029.053.053,0,0,1,.008.011.026.026,0,0,1,.02,0s0,0,0,.012,0,.017,0,.029,0,.026,0,.041,0,.03,0,.046l0-.01L0,.082" transform="translate(135.216 115.563)" fill="#6ec878"/>
        <path id="Path_288" data-name="Path 288" d="M0,.015,0,0l0,.011,0,.009L0,.03,0,.04,0,.051V.015" transform="translate(135.236 115.729)" fill="#6ec878"/>
        <path id="Path_289" data-name="Path 289" d="M.048,0C.041.075.033.133.026.174A.456.456,0,0,1,.006.253C0,.265,0,.262,0,.248A.457.457,0,0,1,.017.17c0-.014.008-.028.01-.042S.033.1.035.085L.041.043C.043.028.046.014.048,0" transform="translate(135.859 123.838)" fill="#6ec878"/>
        <path id="Path_290" data-name="Path 290" d="M.013,0l0,0,0,.007,0,.008L0,.027,0,.019,0,.013l0-.005,0,0,0,0" transform="translate(135.246 115.701)" fill="#6ec878"/>
        <path id="Path_291" data-name="Path 291" d="M0,0C.068.033.133.067.2.1S.324.175.386.213.51.291.57.332.692.414.752.457.858.548.909.6s.1.1.151.148.1.1.145.154.094.1.14.157l.1.163.1.165.1.165.1.165q.03.087.059.175t.055.176q.026.089.048.178c.015.06.028.12.04.18a.055.055,0,0,0,0,.008.1.1,0,0,0,0,.01s0,.008,0,.012,0,.009,0,.013c0,.039,0,.1,0,.162s0,.139,0,.209,0,.137,0,.189,0,.091,0,.1v.049l0,.006q-.019.092-.041.184t-.047.184q-.025.091-.052.182t-.057.181c-.036.072-.072.145-.109.216s-.075.143-.115.213-.081.139-.125.207-.09.134-.139.2c-.041.049-.086.1-.132.146s-.095.1-.144.144-.1.094-.149.14l-.148.134L.67,5.323l-.01.008-.011.008-.014.009-.006,0-.006,0-.007,0-.007,0Q.549,4.693.481,4.022T.337,2.68Q.261,2.009.176,1.339T0,0" transform="translate(40.372 74.242)" fill="#f9ce00"/>
        <path id="Path_292" data-name="Path 292" d="M.735,42.376,2.568,31.782,4.4,21.188,6.235,10.594,8.069,0,20.208,2.363,32.346,4.727,44.485,7.09,56.623,9.452l-3.555,9.292-3.555,9.292L45.96,37.329l-3.554,9.292H0L.184,45.56.367,44.5l.184-1.061.184-1.061" transform="translate(32.92 177.352)" fill="#f9ce00"/>
        <path id="Path_293" data-name="Path 293" d="M.556,107.98l1.139-17.7,1.139-17.7,1.139-17.7L5.111,37.2a1.677,1.677,0,0,0-.128-.8,1.376,1.376,0,0,0-.431-.542,1.655,1.655,0,0,0-.626-.287,2.017,2.017,0,0,0-.712-.033l.581-4.068q.364.7.8,1.363t.926,1.294q.495.629,1.052,1.22t1.173,1.142a1.7,1.7,0,0,0,1.328.456,1.95,1.95,0,0,0,1.165-.567,1.756,1.756,0,0,0,.536-1.129,1.516,1.516,0,0,0-.558-1.23q-.135-.121-.264-.243t-.255-.247q-.126-.124-.247-.25T9.2,33.024a29.706,29.706,0,0,1,.743-4.218A23.833,23.833,0,0,1,11.341,24.8a18.872,18.872,0,0,1,2.13-3.6,15.945,15.945,0,0,1,2.952-2.991,1.808,1.808,0,0,0,.225.2,1.723,1.723,0,0,0,.264.164,1.75,1.75,0,0,0,.3.118,1.918,1.918,0,0,0,.345.065,16.9,16.9,0,0,0,7.7-1.165,21.019,21.019,0,0,0,6.5-4.185,26.907,26.907,0,0,0,4.914-6.2A27.51,27.51,0,0,0,39.6,0q.227.152.449.31t.44.319q.218.161.431.327t.424.334a1.685,1.685,0,0,0,.05.39,1.568,1.568,0,0,0,.147.373,1.612,1.612,0,0,0,.253.342,1.894,1.894,0,0,0,.369.295q.356.221.708.448t.7.46q.347.233.691.47t.684.479l.29.286.289.287.289.288.288.288-.288-.288-.289-.288-.289-.287-.29-.286A75.137,75.137,0,0,1,58.572,17.67,96.448,96.448,0,0,1,69.125,33.83a117.048,117.048,0,0,1,7.509,17.925,124.72,124.72,0,0,1,4.491,18.421,1.725,1.725,0,0,0,.177.559,1.272,1.272,0,0,0,.723.619,1.569,1.569,0,0,0,.471.082c.07.27.146.539.222.808s.153.537.227.807.142.54.2.813.113.547.152.825l-10.429-2.03L62.443,70.629,52.013,68.6,41.584,66.567l.534-3.083.534-3.083.534-3.083.533-3.083a1.769,1.769,0,0,0-.312-1.386,2.031,2.031,0,0,0-1.086-.734,1.7,1.7,0,0,0-1.23.093,1.444,1.444,0,0,0-.741,1.1l-2.74,15.83L34.87,84.964l-2.74,15.829-2.74,15.83H0l.139-2.161L.278,112.3l.139-2.161.139-2.161M28.2,23.308a25.975,25.975,0,0,1,2.446,1.083,21.312,21.312,0,0,1,2.265,1.328,18.565,18.565,0,0,1,2.059,1.607,17.447,17.447,0,0,1,1.83,1.922,18.379,18.379,0,0,1,1.69,2.475,25.039,25.039,0,0,1,1.344,2.734c.4.942.749,1.909,1.064,2.883s.594,1.953.848,2.921a1.585,1.585,0,0,0,.847,1.079,1.828,1.828,0,0,0,1.265.089,1.87,1.87,0,0,0,1.051-.728,1.628,1.628,0,0,0,.206-1.37c-.295-1.125-.621-2.246-.992-3.35s-.785-2.192-1.256-3.253a28.645,28.645,0,0,0-1.593-3.09,23.622,23.622,0,0,0-2-2.861,18.771,18.771,0,0,0-2.161-2.226,21.6,21.6,0,0,0-2.455-1.85,26.4,26.4,0,0,0-2.682-1.521c-.924-.458-1.875-.868-2.841-1.24a1.336,1.336,0,0,0-.677-.071,1.72,1.72,0,0,0-.643.238,1.994,1.994,0,0,0-.52.46,1.664,1.664,0,0,0-.355,1.292,1.639,1.639,0,0,0,.226.614,1.922,1.922,0,0,0,.441.495,2.255,2.255,0,0,0,.6.342" transform="translate(0 107.35)" fill="#4484ce"/>
        <path id="Path_294" data-name="Path 294" d="M.085,27.7Q.1,27.02.107,26.341t.025-1.357q.014-.678.03-1.357T.2,22.272L7.864,0c0,.061.009.122.019.184A1.777,1.777,0,0,0,7.92.372a1.651,1.651,0,0,0,.062.19,1.681,1.681,0,0,0,.091.193c.478.874.956,1.753,1.441,2.63S10.49,5.135,11,6s1.032,1.719,1.579,2.556S13.7,10.214,14.3,11.01A15.17,15.17,0,0,0,18.229,15a9.025,9.025,0,0,0,4.312,1.529,10.6,10.6,0,0,0,4.65-.757A20.3,20.3,0,0,0,32.137,12.9l-.1.636.1-.636q.3-.22.593-.446t.582-.454q.288-.229.57-.459t.557-.462q-.23,4.854-.417,9.712t-.37,9.716q-.182,4.858-.379,9.714t-.443,9.707a14.824,14.824,0,0,1-3.547,8.329,14.222,14.222,0,0,1-3.462,2.913,13.4,13.4,0,0,1-4.29,1.649,13.242,13.242,0,0,1-5.66-.108,15.571,15.571,0,0,1-5.022-2.235,21.241,21.241,0,0,1-4.2-3.742A25.989,25.989,0,0,1,3.44,52.111a1.649,1.649,0,0,0-.7-.709,1.525,1.525,0,0,0-.861-.146A1.982,1.982,0,0,0,.42,52.21l-.337-.367q-.038-3.018-.06-6.036T0,39.771q0-3.018.019-6.036T.085,27.7" transform="translate(119.283 166.06)" fill="#4484ce"/>
        <path id="Path_295" data-name="Path 295" d="M8.6,35.134a61.135,61.135,0,0,0,6.739-5.6,45.943,45.943,0,0,0,5.689-6.6,34.645,34.645,0,0,0,4.065-7.575,29.175,29.175,0,0,0,1.868-8.534,6.819,6.819,0,0,0,.026-1.932,6.326,6.326,0,0,0-.534-1.844,6.509,6.509,0,0,0-1.116-1.662A7.679,7.679,0,0,0,23.621,0c.5.165.991.33,1.486.489S26.1.8,26.593.944s.991.272,1.486.385.991.209,1.486.282a2.058,2.058,0,0,0-.074.8,1.781,1.781,0,0,0,.24.736,1.412,1.412,0,0,0,.555.527,1.648,1.648,0,0,0,.872.169,17.3,17.3,0,0,1,8,1.392,19.562,19.562,0,0,1,6.35,4.527,26.308,26.308,0,0,1,4.531,6.631,30.933,30.933,0,0,1,2.547,7.7,1.671,1.671,0,0,0,.3.707,1.335,1.335,0,0,0,.511.41,1.575,1.575,0,0,0,.632.138,1.972,1.972,0,0,0,.664-.107q.121.516.231,1.028t.212,1.02q.1.508.194,1.014t.176,1.01a1.622,1.622,0,0,0-.173.224,1.583,1.583,0,0,0-.134.26,1.667,1.667,0,0,0-.089.3,1.909,1.909,0,0,0-.036.337c-.032,1.57-.047,3.141-.059,4.712s-.02,3.142-.039,4.712-.047,3.141-.1,4.71-.129,3.138-.243,4.706a68.921,68.921,0,0,1-.892,7.347,38.349,38.349,0,0,1-2,7.214,22.946,22.946,0,0,1-3.639,6.291A17.478,17.478,0,0,1,42.291,74.7a17.277,17.277,0,0,1-6.585,1.72,23.7,23.7,0,0,1-7.089-.635,26.315,26.315,0,0,1-6.687-2.6A21.447,21.447,0,0,1,16.551,69a1.492,1.492,0,0,0-1.216-.57,1.733,1.733,0,0,0-1.124.533,1.979,1.979,0,0,0-.572,1.169,1.725,1.725,0,0,0,.441,1.339,24.046,24.046,0,0,0,4.94,4.091,28.17,28.17,0,0,0,5.9,2.8,29.532,29.532,0,0,0,6.38,1.416,26.882,26.882,0,0,0,6.393-.061q-.034.124-.062.248t-.048.248q-.021.124-.035.248t-.022.248a1.956,1.956,0,0,0-.6.136,1.662,1.662,0,0,0-.514.324,1.5,1.5,0,0,0-.359.513,1.775,1.775,0,0,0-.133.7c0,.965.041,1.937.132,2.9a21.773,21.773,0,0,0,.452,2.865,15.849,15.849,0,0,0,.889,2.738,12.847,12.847,0,0,0,1.444,2.524,19.715,19.715,0,0,0,1.759,2.054c.629.645,1.293,1.257,1.976,1.851s1.382,1.171,2.08,1.747,1.395,1.151,2.071,1.741a2.065,2.065,0,0,0,.588.362,1.866,1.866,0,0,0,.651.136,1.67,1.67,0,0,0,.649-.113,1.7,1.7,0,0,0,.584-.385l.005-.007q.335.244.683.468t.7.435q.355.211.715.414c.24.136.481.27.721.4q-.236-.017-.472-.031t-.474-.024q-.238-.01-.476-.015t-.478-.005q.239,0,.478.005t.476.015q.238.01.474.024t.472.031l.123.068.123.068.123.068.123.069-7.1.083-7.1.082-7.1.082-7.1.083a1.791,1.791,0,0,0-.709.146,1.528,1.528,0,0,0-.515.371,1.7,1.7,0,0,0-.323.525,1.976,1.976,0,0,0-.131.607H21.246q-1.621-1.845-3.353-3.585t-3.58-3.348q-1.849-1.609-3.817-3.074T6.434,92.006a1.654,1.654,0,0,0-.972-.269,1.535,1.535,0,0,0-.829.309,1.981,1.981,0,0,0-.781,1.577q-.211-.169-.425-.334T3,92.962q-.218-.161-.44-.319t-.448-.31a55.158,55.158,0,0,0,1.145-5.919c.278-1.994.46-4.006.568-6.023s.142-4.04.125-6.058-.085-4.029-.182-6.023a6.842,6.842,0,0,0,1.9-1.029,7.065,7.065,0,0,0,1.492-1.555A6.586,6.586,0,0,0,8.086,63.8a5.946,5.946,0,0,0,.222-2.159,6.551,6.551,0,0,0-.588-2.2,7.115,7.115,0,0,0-1.292-1.911,6.391,6.391,0,0,0-1.835-1.359,5.356,5.356,0,0,0-2.218-.548q-.29-1.975-.6-3.952t-.616-3.957q-.307-1.979-.6-3.961T0,39.782l.045-.01.045-.009.045-.009.045-.009.164-.009.164,0,.164,0,.164.009q.093.018.184.04t.183.047q.091.025.181.054t.179.061q.087.042.172.087t.168.094q.083.048.165.1t.161.107q.066.056.129.115t.124.119q.061.061.12.124t.115.128q.049.071.095.143t.089.146q.043.074.083.15t.077.153a1.8,1.8,0,0,0,.925,1.07,1.785,1.785,0,0,0,1.245.088,1.684,1.684,0,0,0,1.185-2.119,6.153,6.153,0,0,0-.4-.9,6.184,6.184,0,0,0-.529-.818,6.242,6.242,0,0,0-.65-.725,6.3,6.3,0,0,0-.759-.618,9.258,9.258,0,0,0,.937-.325,7.681,7.681,0,0,0,.883-.428,6.612,6.612,0,0,0,.813-.543,6.033,6.033,0,0,0,.727-.672A1.366,1.366,0,0,0,8,35.412a1.521,1.521,0,0,0,.3-.1,1.855,1.855,0,0,0,.3-.177m36.642-4.07a1.608,1.608,0,0,0-1.267.546,1.921,1.921,0,0,0,0,2.4,1.74,1.74,0,0,0,2.532,0,1.921,1.921,0,0,0,0-2.4,1.606,1.606,0,0,0-1.265-.546M45.192,44.83a12.972,12.972,0,0,1-1.162-1.09,13.376,13.376,0,0,1-1.019-1.219,13.776,13.776,0,0,1-.87-1.33,14.105,14.105,0,0,1-.714-1.424l0,0-.005-.015q-.126-.313-.237-.631t-.208-.641q-.1-.323-.179-.65t-.15-.658a1.438,1.438,0,0,0-.3-.623,1.67,1.67,0,0,0-.525-.421,1.984,1.984,0,0,0-.652-.2,1.919,1.919,0,0,0-.677.028,1.5,1.5,0,0,0-.622.3,1.657,1.657,0,0,0-.418.519,1.973,1.973,0,0,0-.2.646,2.036,2.036,0,0,0,.022.682,16.182,16.182,0,0,0,.772,2.6,16.838,16.838,0,0,0,2.763,4.674A16.079,16.079,0,0,0,42.721,47.3a2.147,2.147,0,0,0,.6.364,1.8,1.8,0,0,0,.64.13,1.685,1.685,0,0,0,.64-.117,1.91,1.91,0,0,0,.6-.377,1.516,1.516,0,0,0,.375-.557,1.9,1.9,0,0,0,.133-.682,1.8,1.8,0,0,0-.121-.68,1.389,1.389,0,0,0-.387-.552M30.126,61.149a10.332,10.332,0,0,0,3.491,2.081,11.8,11.8,0,0,0,4,.677,12.237,12.237,0,0,0,4.013-.685,11.04,11.04,0,0,0,3.52-2.007,1.75,1.75,0,0,0-1.128-2.969,1.829,1.829,0,0,0-1.344.5l-.044.035-.095.075-.09.073c-.023.019-.035.03-.029.026q-.162.119-.331.228t-.344.209q-.175.1-.353.194t-.358.182q-.252.1-.511.188T40,60.113q-.264.072-.53.129t-.535.1q-.3.031-.609.048t-.611.017q-.305,0-.611-.016t-.609-.052q-.282-.045-.556-.1t-.544-.129q-.27-.072-.536-.159t-.534-.194l-.069-.032-.077-.035-.061-.028-.023-.011q-.159-.075-.313-.159t-.305-.174q-.151-.09-.3-.186t-.292-.2a2.045,2.045,0,0,0-1.385-.75,1.793,1.793,0,0,0-1.26.4,1.685,1.685,0,0,0-.629,1.126,1.891,1.891,0,0,0,.508,1.439M25.234,37.665a1.608,1.608,0,0,0,1.266-.546,1.92,1.92,0,0,0,0-2.4,1.74,1.74,0,0,0-2.532,0,1.92,1.92,0,0,0,0,2.4,1.607,1.607,0,0,0,1.265.546" transform="translate(37.497 15.015)" fill="#fff"/>
        <path id="Path_296" data-name="Path 296" d="M.347,124.162a48.734,48.734,0,0,1,2.479-7.847c1.021-2.545,2.189-5.038,3.36-7.53s2.346-4.984,3.381-7.528a50.394,50.394,0,0,0,2.543-7.841c.923-3.735,1.649-7.5,2.228-11.3s1.012-7.605,1.35-11.431.581-7.663.78-11.5.355-7.675.519-11.5c.114-4.41.268-8.813.717-13.07a56.878,56.878,0,0,1,2.48-12.2,31.7,31.7,0,0,1,5.767-10.5,31.046,31.046,0,0,1,10.577-7.97,1.678,1.678,0,0,0,.611-.492,1.364,1.364,0,0,0,.257-.621,1.622,1.622,0,0,0-.045-.664,2,2,0,0,0-.3-.623q.532-.151,1.077-.277t1.1-.233q.554-.107,1.114-.2T41.473.675a1.888,1.888,0,0,0,.28.779,2.073,2.073,0,0,0,.6.619,1.8,1.8,0,0,0,.82.3,1.815,1.815,0,0,0,.954-.169A23.392,23.392,0,0,1,47.915.845,25.129,25.129,0,0,1,51.864.132a27.058,27.058,0,0,1,4.019-.1,28.662,28.662,0,0,1,4,.482A39.3,39.3,0,0,1,72.763,5.637a44.418,44.418,0,0,1,10.95,9.413,34.859,34.859,0,0,1,6.763,12.325A25.8,25.8,0,0,1,90.8,41.231a1.769,1.769,0,0,0-.029.813,1.551,1.551,0,0,0,.3.646,1.8,1.8,0,0,0,.537.451,2.035,2.035,0,0,0,.668.231c-.126.4-.266.8-.413,1.2s-.3.783-.457,1.169-.312.768-.463,1.148-.3.757-.433,1.133q0-.764,0-1.525t.007-1.519q.005-.758.014-1.511t.025-1.5A1.551,1.551,0,0,0,89.4,40.351a2.009,2.009,0,0,0-1.017-.016,1.757,1.757,0,0,0-.88.506q-.084-.5-.176-1.01t-.194-1.014q-.1-.509-.213-1.02t-.231-1.028a2.079,2.079,0,0,0,.561-.29,1.872,1.872,0,0,0,.444-.455,1.681,1.681,0,0,0,.257-.6,1.847,1.847,0,0,0,0-.73,33.057,33.057,0,0,0-2.982-8.739,29.65,29.65,0,0,0-5.328-7.464,23.016,23.016,0,0,0-7.373-5.068,20.2,20.2,0,0,0-9.119-1.549,1.872,1.872,0,0,0-.588.127,1.634,1.634,0,0,0-.461.279,1.707,1.707,0,0,0-.335.393,1.921,1.921,0,0,0-.209.468c-.5-.073-.991-.169-1.486-.282s-.991-.244-1.486-.386-.991-.3-1.486-.455-.991-.324-1.486-.49a7.68,7.68,0,0,1,1.718,1.385,6.508,6.508,0,0,1,1.116,1.662,6.325,6.325,0,0,1,.535,1.844,6.819,6.819,0,0,1-.026,1.932,1.921,1.921,0,0,0-.856-.937A1.711,1.711,0,0,0,57,17.25a1.737,1.737,0,0,0-.973.539,1.933,1.933,0,0,0-.483,1.169A28.261,28.261,0,0,1,53.554,26.4,33.066,33.066,0,0,1,49.818,33a42.11,42.11,0,0,1-5.052,5.755,53.564,53.564,0,0,1-5.94,4.886,1.777,1.777,0,0,0-.682.908,1.873,1.873,0,0,0-.024,1.032,2.043,2.043,0,0,0,.479.888,1.54,1.54,0,0,0,.827.477,6.028,6.028,0,0,1-.727.672,6.6,6.6,0,0,1-.813.544,7.661,7.661,0,0,1-.883.427,9.229,9.229,0,0,1-.937.324,5.645,5.645,0,0,0-1.022-.6,6.066,6.066,0,0,0-1.122-.382,6.3,6.3,0,0,0-1.175-.162,6.21,6.21,0,0,0-1.18.062c-.208-1.866-.382-3.733-.505-5.6s-.2-3.737-.205-5.607.049-3.74.186-5.612.355-3.743.669-5.616a1.776,1.776,0,0,0-.319-1.385,2.043,2.043,0,0,0-1.089-.735,1.691,1.691,0,0,0-1.227.093,1.435,1.435,0,0,0-.735,1.1c-.352,2.1-.6,4.209-.749,6.318s-.212,4.22-.2,6.333.11,4.225.264,6.337.37,4.223.63,6.331c.482,3.636,1.047,7.269,1.6,10.905s1.1,7.274,1.552,10.918.794,7.3.947,10.958a84.972,84.972,0,0,1-.211,11.024c-.115,1.6-.275,3.216-.512,4.813a40.03,40.03,0,0,1-.975,4.725,28.312,28.312,0,0,1-1.636,4.5,22.655,22.655,0,0,1-2.494,4.148,22.068,22.068,0,0,1-2.9,3.136,18.657,18.657,0,0,1-3.455,2.445,15.177,15.177,0,0,1-3.907,1.49,13.375,13.375,0,0,1-4.253.271,1.518,1.518,0,0,0-1.052.244,1.446,1.446,0,0,0-.538.78,2.01,2.01,0,0,0-.027,1,1.955,1.955,0,0,0,.479.918,15.944,15.944,0,0,0-2.952,2.991,18.878,18.878,0,0,0-2.13,3.6,23.848,23.848,0,0,0-1.394,4.008,29.726,29.726,0,0,0-.743,4.218A14.033,14.033,0,0,1,1.65,134.1a12.866,12.866,0,0,1-1.224-3.071A13.942,13.942,0,0,1,0,127.708a17.268,17.268,0,0,1,.347-3.546" transform="translate(5.507 3.488)" fill="#fff"/>
        <path id="Path_297" data-name="Path 297" d="M38.542,69.856a1.758,1.758,0,0,0-.32-1.43,1.975,1.975,0,0,0-1.134-.7,1.712,1.712,0,0,0-1.259.176,1.519,1.519,0,0,0-.692,1.209l-.262-.225-.264-.231q-.132-.117-.264-.237t-.262-.246l.192-.5.192-.5.192-.5.191-.5a1.333,1.333,0,0,0,.066-.664,1.852,1.852,0,0,0-.231-.66,1.905,1.905,0,0,0-.454-.535,1.4,1.4,0,0,0-.6-.29l-2.268-.442-2.268-.442-2.268-.442-2.268-.441c-.039-.278-.092-.553-.152-.826s-.13-.543-.2-.813-.15-.538-.227-.807-.152-.538-.222-.808a1.982,1.982,0,0,0,.772-.142,2.105,2.105,0,0,0,.686-.439,1.8,1.8,0,0,0,.54-1.608q-.324-2.156-.742-4.3t-.923-4.261q-.5-2.121-1.092-4.221t-1.251-4.177c-1.162-3.618-2.476-7.2-3.949-10.714s-3.107-6.967-4.909-10.325A107.58,107.58,0,0,0,6.971,9.045,96.933,96.933,0,0,0,0,0H1.179a2.009,2.009,0,0,0,.075.675,1.717,1.717,0,0,0,.3.595,1.484,1.484,0,0,0,.534.421,1.742,1.742,0,0,0,.766.154l1.01-.011,1.01-.012,1.01-.012L6.9,1.8l6.977-.081,6.976-.081,6.976-.081L34.8,1.474,36.044,4.2a1.32,1.32,0,0,0-.06.238,1.391,1.391,0,0,0-.015.258A1.579,1.579,0,0,0,36,4.978a1.914,1.914,0,0,0,.09.3q1.119,2.852,2.269,5.695t2.344,5.666q1.194,2.824,2.44,5.625T45.7,27.831c.439.928.881,1.86,1.309,2.8s.842,1.887,1.223,2.846.73,1.929,1.029,2.914a25.934,25.934,0,0,1,.728,3,26.336,26.336,0,0,1,.354,3.15c.058,1.059.064,2.124.038,3.19s-.084,2.133-.154,3.194-.151,2.118-.223,3.162q-.384,6.5-.7,13.016t-.569,13.024q-.258,6.513-.473,13.028t-.408,13.026h-15.9L33.608,95.6l1.645-8.582L36.9,78.438l1.645-8.582" transform="translate(58.743 119.789)" fill="#fff"/>
        <path id="Path_298" data-name="Path 298" d="M16.987,91.651q.194-5.371.437-10.739t.5-10.735q.262-5.367.528-10.733t.508-10.734c.044-.973.072-1.948.074-2.922s-.024-1.946-.088-2.916-.166-1.935-.319-2.894a25.388,25.388,0,0,0-.619-2.857c-.3-1.072-.657-2.126-1.053-3.167s-.831-2.067-1.287-3.086-.932-2.029-1.411-3.036-.96-2.011-1.425-3.017q-1.106-2.391-2.161-4.807T8.6,15.16q-1.016-2.433-2-4.879t-1.945-4.9a1.793,1.793,0,0,0-.748-.9,1.937,1.937,0,0,0-1.041-.266,2.029,2.029,0,0,0-1,.284,1.444,1.444,0,0,0-.63.746L0,2.511c.059,0,.118,0,.176,0H.353c.059,0,.117,0,.176,0S.646,2.5.7,2.494l.11.152q.055.077.109.155t.106.159q.052.081.1.165-.05-.084-.1-.165T.923,2.8Q.869,2.722.814,2.646L.7,2.494a1.679,1.679,0,0,0,.865-.283A1.6,1.6,0,0,0,2.1,1.593,1.933,1.933,0,0,0,2.292.8,1.956,1.956,0,0,0,2.15,0a25.1,25.1,0,0,1,3.3,1.353,24.728,24.728,0,0,1,3.044,1.79,24.363,24.363,0,0,1,2.743,2.2,24.028,24.028,0,0,1,2.4,2.572,1.62,1.62,0,0,0-.337.32,1.412,1.412,0,0,0-.224.408A1.427,1.427,0,0,0,13,9.127a1.806,1.806,0,0,0,.1.559c.676,2,1.477,3.949,2.341,5.871s1.79,3.819,2.718,5.714,1.858,3.789,2.729,5.706,1.682,3.859,2.372,5.85a26.792,26.792,0,0,1,1.362,6.693,42.888,42.888,0,0,1-.055,6.783c-.179,2.269-.479,4.542-.788,6.81s-.625,4.529-.836,6.775c-.139,1.483-.245,2.97-.327,4.46s-.139,2.981-.182,4.474-.069,2.986-.09,4.478-.035,2.983-.051,4.472c.02,2.28.005,4.57-.018,6.864s-.054,4.592-.066,6.888,0,4.589.051,6.874.157,4.562.334,6.825H16.476q.1-1.692.16-3.389t.117-3.394q.053-1.7.106-3.4t.128-3.393" transform="translate(93.546 118.751)" fill="#4484ce"/>
        <path id="Path_299" data-name="Path 299" d="M.6.273H.49L.368.205.245.137.123.068,0,0Q.274.02.547.046T1.09.105q.271.032.54.07t.537.08l-.391,0-.391,0-.391,0L.6.273" transform="translate(89.513 117.535)" fill="#6ec878"/>
        <path id="Path_300" data-name="Path 300" d="M.167,4.981a20.944,20.944,0,0,0,2.9-.639A21.716,21.716,0,0,0,5.908,3.284,20.741,20.741,0,0,0,8.577,1.829,18.535,18.535,0,0,0,10.968,0q.076.667.2,1.3t.287,1.23q.166.6.378,1.17T12.3,4.815a2.092,2.092,0,0,0-.491.423,1.9,1.9,0,0,0-.333.562,1.7,1.7,0,0,0-.108.663,1.852,1.852,0,0,0,.184.725,22.634,22.634,0,0,0,2.335,3.852,31.979,31.979,0,0,0,2.937,3.378c1.054,1.064,2.169,2.075,3.308,3.058s2.3,1.939,3.448,2.893c1.109.922,2.229,1.873,3.308,2.872a36.053,36.053,0,0,1,3.056,3.16,21.9,21.9,0,0,1,2.483,3.563,16.206,16.206,0,0,1,1.591,4.079,1.7,1.7,0,0,0,.378.752,1.448,1.448,0,0,0,.608.4,1.75,1.75,0,0,0,.721.085,2.035,2.035,0,0,0,.717-.2v6.489q-.193-.472-.382-.945t-.371-.949q-.182-.476-.356-.955t-.338-.963a1.774,1.774,0,0,0-.51-.783,1.7,1.7,0,0,0-.747-.373,2,2,0,0,0-.826-.006,1.953,1.953,0,0,0-.746.318,24.028,24.028,0,0,0-2.4-2.572,24.359,24.359,0,0,0-2.743-2.2,24.72,24.72,0,0,0-3.044-1.79,25.086,25.086,0,0,0-3.3-1.352,1.369,1.369,0,0,0-.686-.773A2.631,2.631,0,0,0,18.94,28a11.325,11.325,0,0,0-1.187.029,8.06,8.06,0,0,1-1.091.016q-.268-.042-.537-.08t-.54-.07q-.271-.032-.543-.059t-.547-.046q-.361-.2-.721-.4t-.715-.414q-.355-.211-.7-.435t-.683-.467a1.7,1.7,0,0,0,.365-.567,1.929,1.929,0,0,0,.135-.672,1.738,1.738,0,0,0-.116-.669,1.428,1.428,0,0,0-.389-.557q-.525-.458-1.057-.907t-1.067-.9q-.534-.447-1.068-.894T7.415,20a15.945,15.945,0,0,1-2.67-2.58,12.215,12.215,0,0,1-1.731-2.862A13.419,13.419,0,0,1,2.1,11.332,20.393,20.393,0,0,1,1.89,7.652a1.762,1.762,0,0,0-.169-.771,1.518,1.518,0,0,0-.435-.535,1.753,1.753,0,0,0-.605-.3A2.023,2.023,0,0,0,0,5.974q.008-.124.022-.248t.035-.248q.021-.124.048-.248t.062-.248" transform="translate(75.018 89.747)" fill="#fff"/>
        <path id="Path_301" data-name="Path 301" d="M.482,38.337c-.105-.267-.2-.526-.284-.781A4.379,4.379,0,0,1,.024,36.8a2.692,2.692,0,0,1,.006-.757,2.593,2.593,0,0,1,.254-.777,4.78,4.78,0,0,0,1.116.727,5.516,5.516,0,0,0,1.308.427,5.439,5.439,0,0,0,1.385.09,4.719,4.719,0,0,0,1.346-.283c.134.565.3,1.119.49,1.667s.387,1.092.583,1.638.386,1.092.551,1.647a13.209,13.209,0,0,1,.393,1.695q.033.3.049.6t.014.6q0,.3-.019.6t-.052.6a1.291,1.291,0,0,0,.105.678,1.639,1.639,0,0,0,.4.546,2.091,2.091,0,0,0,.587.371,1.918,1.918,0,0,0,.65.153,1.514,1.514,0,0,0,.866-.216,1.675,1.675,0,0,0,.565-.605,2.733,2.733,0,0,0,.3-.826,3.565,3.565,0,0,0,.06-.877,1.564,1.564,0,0,0,.97-.22,2.213,2.213,0,0,0,.675-.689,5.42,5.42,0,0,0,.468-.923c.131-.32.242-.64.348-.921q.2-.475.4-.952t.385-.958q.188-.48.366-.965t.341-.974c.084-.253.171-.514.254-.781s.161-.539.226-.814a6.966,6.966,0,0,0,.148-.827,4.444,4.444,0,0,0,.021-.82A5.7,5.7,0,0,0,15.116,33a9.349,9.349,0,0,0-.857-1.492c-.33-.478-.693-.94-1.058-1.392s-.732-.9-1.07-1.337a1.812,1.812,0,0,0,.4-1.487,1.945,1.945,0,0,0-.737-1.161,1.753,1.753,0,0,0-1.27-.375,1.621,1.621,0,0,0-1.2.87q-.253.48-.529.95t-.567.93q-.292.46-.6.913t-.614.9a10.024,10.024,0,0,1-.844,1.2,5.628,5.628,0,0,1-1.1,1.044,2.5,2.5,0,0,1-1.276.485,2.037,2.037,0,0,1-1.379-.473c.048.037.055.034.039.009a1.283,1.283,0,0,0-.1-.12c-.046-.049-.1-.1-.139-.139s-.07-.06-.07-.049L2.1,32.2q-.025-.04-.049-.08t-.046-.082q-.022-.041-.043-.083a.353.353,0,0,1-.018-.079c0-.033-.008-.071-.011-.109s-.006-.077-.009-.111a.747.747,0,0,0-.012-.086c.39-.691.809-1.382,1.245-2.074s.889-1.384,1.345-2.076S5.42,26.032,5.87,25.34s.888-1.383,1.3-2.074a13.223,13.223,0,0,1,.979-1.6,4.185,4.185,0,0,1,1.153-1.128,1.773,1.773,0,0,1,1.369-.231A3.438,3.438,0,0,1,12.3,21.395q.807.827,1.6,1.667t1.591,1.681q.8.84,1.6,1.672t1.626,1.641a2.029,2.029,0,0,0,.643.381,1.843,1.843,0,0,0,.734.113,1.556,1.556,0,0,0,.717-.219,1.745,1.745,0,0,0,.595-.612Q22.22,26.361,23.03,25t1.617-2.721q.807-1.361,1.611-2.724t1.606-2.727Q28.9,15.065,29.942,13.3t2.066-3.54Q33.035,7.985,34.04,6.2t1.973-3.591c.093-.173.183-.367.276-.568s.188-.411.29-.614a4.9,4.9,0,0,1,.336-.578,2.22,2.22,0,0,1,.413-.462,1.672,1.672,0,0,1,.6-.311A2.053,2.053,0,0,1,38.6,0a2.516,2.516,0,0,1,.676.134,2.574,2.574,0,0,1,.609.3,1.8,1.8,0,0,1,.7.811,1.622,1.622,0,0,1,.068.906,3.825,3.825,0,0,1-.33.943c-.15.314-.327.625-.492.923q-1.494,2.694-2.993,5.385t-3,5.382l-3,5.38-3,5.38a1.627,1.627,0,0,0,.216,1.974,2.009,2.009,0,0,0,.834.541,1.709,1.709,0,0,0,.975.046l.013.019a1.784,1.784,0,0,0-.6,1.175,1.972,1.972,0,0,0,.283,1.174,1.937,1.937,0,0,0,.865.785,1.409,1.409,0,0,0,1.145.008l.005.011.006.011.006.011.005.011-.005-.011-.006-.011-.006-.011-.005-.011a1.494,1.494,0,0,0,.156-.08,1.593,1.593,0,0,0,.153-.1,1.745,1.745,0,0,0,.148-.127,1.967,1.967,0,0,0,.143-.152q1.588-1.849,3.157-3.713t3.138-3.729q1.568-1.865,3.144-3.724t3.176-3.7l.485-.537.486-.537.485-.538.483-.54c.236-.265.472-.559.714-.861s.49-.611.75-.906a7.909,7.909,0,0,1,.821-.82,4.04,4.04,0,0,1,.929-.6,2.1,2.1,0,0,1,.5-.159,1.379,1.379,0,0,1,.472-.005,1.026,1.026,0,0,1,.412.166,1.129,1.129,0,0,1,.326.356,1.654,1.654,0,0,1,.24.776,2.22,2.22,0,0,1-.108.766,5.431,5.431,0,0,1-.3.746c-.117.244-.241.484-.347.717q-1.595,1.988-3.2,3.968t-3.217,3.954q-1.612,1.975-3.226,3.947t-3.227,3.946a1.829,1.829,0,0,0-.469.975,1.8,1.8,0,0,0,.138.993,1.7,1.7,0,0,0,.651.751,1.762,1.762,0,0,0,1.069.249l-.02.073-.021.074-.021.074-.021.074q-.508.3-1.017.591t-1.022.583q-.512.289-1.026.574t-1.032.564a1.551,1.551,0,0,0-.839,1.072,1.791,1.791,0,0,0,.235,1.237,1.908,1.908,0,0,0,.978.837,1.665,1.665,0,0,0,1.389-.129q1.1-.595,2.2-1.211T41.6,35.908q1.082-.635,2.153-1.289T45.887,33.3a18.943,18.943,0,0,0,2.125-1.431c.861-.63,1.836-1.351,2.808-1.978a11.574,11.574,0,0,1,2.788-1.406,1.964,1.964,0,0,1,2.065.284A1.7,1.7,0,0,1,55.95,29.9a2.211,2.211,0,0,1-.441,1.034,4.41,4.41,0,0,1-.873.868,6.279,6.279,0,0,1-1.018.633q-.395.247-.787.5t-.781.508q-.389.257-.774.518t-.767.529a35.382,35.382,0,0,0-6.886,5.692,36.41,36.41,0,0,0-4.78,6.494,68.227,68.227,0,0,0-3.619,7.3c-1.118,2.566-2.2,5.267-3.4,8.1-.2.461-.419.927-.641,1.4s-.449.944-.666,1.422-.423.959-.606,1.443a13.022,13.022,0,0,0-.464,1.461c-.125.5-.225,1.02-.309,1.541s-.151,1.048-.21,1.576-.11,1.057-.161,1.584-.1,1.049-.163,1.564q-.19,1.631-.372,3.263t-.356,3.265q-.175,1.633-.343,3.266T27.2,87.122a1.547,1.547,0,0,0,.191.976,1.376,1.376,0,0,0,.657.552,1.9,1.9,0,0,0,.891.131,2.069,2.069,0,0,0,.893-.286l-.714,4.448c-.777.606-1.64,1.315-2.561,2.012a25.356,25.356,0,0,1-2.915,1.95,10.752,10.752,0,0,1-3.113,1.213,5.824,5.824,0,0,1-3.154-.2,6.271,6.271,0,0,1-1.305-.754,9.976,9.976,0,0,1-1.184-1.041c-.374-.381-.727-.789-1.06-1.2s-.643-.833-.932-1.237q-.8-1.122-1.538-2.29T9.92,89.031q-.695-1.195-1.36-2.406t-1.326-2.42a1.861,1.861,0,0,0-.262-.369,1.531,1.531,0,0,0-.309-.259,1.452,1.452,0,0,0-.342-.158,1.545,1.545,0,0,0-.362-.067l.413-3.14a1.629,1.629,0,0,0,.908.327,1.685,1.685,0,0,0,.875-.211,1.86,1.86,0,0,0,.669-.624,1.809,1.809,0,0,0,.288-.912q.129-1.365.286-2.726t.325-2.722q.168-1.36.337-2.721t.324-2.722a1.656,1.656,0,0,0,1.016-.392,2.007,2.007,0,0,0,.616-.9,1.665,1.665,0,0,0,.018-1.063,1.607,1.607,0,0,0-.779-.891,29.27,29.27,0,0,1-3.587-2.365,23.213,23.213,0,0,1-3.382-3.158,13.85,13.85,0,0,1-2.393-3.781,8.463,8.463,0,0,1-.619-4.232c.089-.742.219-1.47.353-2.191S1.9,47.5,2,46.779a15.54,15.54,0,0,0,.186-2.162,9.824,9.824,0,0,0-.225-2.22c-.079-.355-.178-.7-.29-1.044s-.238-.68-.371-1.014-.272-.667-.411-1-.279-.666-.411-1M19.415,57.823a1.665,1.665,0,0,0,1.316-.178,1.881,1.881,0,0,0,.5-.439,2.051,2.051,0,0,0,.334-.6,27.86,27.86,0,0,1,2.115-4.626,28.7,28.7,0,0,1,2.9-4.161,29.041,29.041,0,0,1,3.583-3.591,28.752,28.752,0,0,1,4.166-2.916,1.6,1.6,0,0,0,.823-1.1,1.836,1.836,0,0,0-.24-1.248,1.859,1.859,0,0,0-.972-.827,1.622,1.622,0,0,0-1.374.16,31.743,31.743,0,0,0-4.716,3.318A32.379,32.379,0,0,0,23.822,45.7a32.694,32.694,0,0,0-5.628,9.978,1.43,1.43,0,0,0-.063.68,1.74,1.74,0,0,0,.232.641,1.93,1.93,0,0,0,.453.518,1.688,1.688,0,0,0,.6.31" transform="translate(123.138 80.845)" fill="#fff"/>
        <path id="Path_302" data-name="Path 302" d="M.036,0,.013.027,0,.007l.009,0H.018L.027,0,.036,0" transform="translate(153.002 108.947)" fill="#6ec878"/>
        <path id="Path_303" data-name="Path 303" d="M13.776,0q.13.125.262.246T14.3.483l.264.231.262.225L13.148,9.708l-1.681,8.769L9.787,27.246,8.106,36.015H0l3.444-9,3.444-9,3.444-9,3.444-9" transform="translate(79.051 187.958)" fill="#fff"/>
        <path id="Path_304" data-name="Path 304" d="M0,.017H0L.007,0,0,.017" transform="translate(133.515 120.905)" fill="#6ec878"/>
        <path id="Path_305" data-name="Path 305" d="M.022.018C.019.049.016.074.014.094S.009.13.007.14A.14.14,0,0,1,0,.161s0,0,0,0L0,.127.009.086.015.043C.017.028.02.014.022,0V.018" transform="translate(135.214 115.781)" fill="#6ec878"/>
        <path id="Path_306" data-name="Path 306" d="M1.414,49.24c.06-.515.111-1.038.163-1.564s.1-1.055.161-1.583.126-1.055.21-1.576.184-1.036.309-1.541a13.03,13.03,0,0,1,.464-1.461c.183-.484.39-.965.606-1.443s.443-.952.666-1.422.441-.936.641-1.4C6.1,33.768,7.344,30.69,8.592,27.9a55.648,55.648,0,0,1,4-7.6A34.156,34.156,0,0,1,18.07,13.77a49.752,49.752,0,0,1,8.363-6.156,6.129,6.129,0,0,0,1.016-.632,4.43,4.43,0,0,0,.875-.872,2.223,2.223,0,0,0,.443-1.037,1.672,1.672,0,0,0-.28-1.127,1.954,1.954,0,0,0-2.063-.285,11.641,11.641,0,0,0-2.8,1.411c-.974.628-1.951,1.351-2.812,1.98A18.683,18.683,0,0,1,18.7,8.477q-1.06.668-2.131,1.321t-2.153,1.289q-1.082.635-2.174,1.252t-2.2,1.211a1.666,1.666,0,0,1-1.39.129,1.908,1.908,0,0,1-.978-.837A1.791,1.791,0,0,1,7.445,11.6a1.551,1.551,0,0,1,.839-1.072q.517-.279,1.032-.563T10.343,9.4q.512-.289,1.021-.583t1.017-.591c-.088.315-.18.632-.286.947a9.544,9.544,0,0,1-.362.931,6.416,6.416,0,0,1-.486.885,5.182,5.182,0,0,1-.657.807,5.182,5.182,0,0,0,.657-.807,6.416,6.416,0,0,0,.486-.885,9.544,9.544,0,0,0,.362-.931c.105-.315.2-.632.286-.947q1.25-.727,2.484-1.479t2.451-1.531q1.217-.779,2.417-1.584t2.382-1.636c.4-.28.821-.55,1.257-.8A11.052,11.052,0,0,1,24.724.544,8.027,8.027,0,0,1,26.153.119,6.255,6.255,0,0,1,27.639.006,4.855,4.855,0,0,1,30.75,1.3,4.776,4.776,0,0,1,32.125,4,5.8,5.8,0,0,1,29.6,9.735c-.521.38-1.054.743-1.592,1.1s-1.081.7-1.624,1.052-1.085.7-1.62,1.061-1.064.733-1.579,1.125A31.8,31.8,0,0,0,20.4,16.337,30.5,30.5,0,0,0,17.9,18.9a29.224,29.224,0,0,0-2.173,2.842,28.15,28.15,0,0,0-1.808,3.1c-.393.713-.757,1.44-1.1,2.176s-.673,1.481-.991,2.23-.628,1.5-.939,2.255-.623,1.5-.946,2.25c-.4,1.041-.862,2.071-1.337,3.1s-.963,2.056-1.417,3.094a31.85,31.85,0,0,0-1.211,3.154,17.3,17.3,0,0,0-.72,3.28Q5,48.371,4.771,50.359t-.444,3.978q-.215,1.99-.418,3.981T3.5,62.3a1.924,1.924,0,0,1-.1.45,1.718,1.718,0,0,1-.448.686,1.872,1.872,0,0,1-.316.238l.576-3.581-.576,3.581a2.07,2.07,0,0,1-.893.286,1.906,1.906,0,0,1-.891-.131A1.375,1.375,0,0,1,.2,63.276,1.546,1.546,0,0,1,.011,62.3q.164-1.634.333-3.267t.343-3.266q.175-1.633.356-3.264t.372-3.263" transform="translate(150.324 105.667)" fill="#323232"/>
        <path id="Path_307" data-name="Path 307" d="M.441.21.485.158.529.105.574.053.618,0C.759.223.9.461,1.041.709s.282.508.423.774.282.54.423.818.282.56.423.842a1.388,1.388,0,0,1-1.071.016A1.941,1.941,0,0,1,.368,2.47,1.924,1.924,0,0,1,0,1.384,1.755,1.755,0,0,1,.441.21" transform="translate(152.397 108.974)" fill="#323232"/>
        <path id="Path_308" data-name="Path 308" d="M1.641,45.459C1.386,44.71,1.1,44,.834,43.3a15.521,15.521,0,0,1-.655-2.064,6.436,6.436,0,0,1-.15-2.086,5.941,5.941,0,0,1,.706-2.225A1.853,1.853,0,0,1,1,36.544a1.511,1.511,0,0,1,.315-.264,1.433,1.433,0,0,1,.351-.158,1.539,1.539,0,0,1,.371-.061,4.424,4.424,0,0,1-.112-.857,4.26,4.26,0,0,1,.063-.879,4.365,4.365,0,0,1,.257-.885,4.839,4.839,0,0,1,.468-.873Q3.361,31.6,4,30.622t1.262-1.958q.627-.981,1.251-1.965t1.25-1.965A10.334,10.334,0,0,1,9.319,22.4a6.856,6.856,0,0,1,2.022-1.571,5.215,5.215,0,0,1,2.415-.555,6.33,6.33,0,0,1,2.739.715,16.2,16.2,0,0,1,1.761,1.454c.556.523,1.088,1.079,1.61,1.645s1.036,1.143,1.558,1.71,1.05,1.124,1.6,1.65q1.736-2.891,3.474-5.785t3.446-5.807q1.708-2.912,3.37-5.849T36.563,4.1c.146-.273.286-.547.43-.815s.293-.532.454-.786a6.391,6.391,0,0,1,.533-.729,4.694,4.694,0,0,1,.666-.644A5.081,5.081,0,0,1,41.939,0a6.061,6.061,0,0,1,3.225,1.02,5.7,5.7,0,0,1,2.15,2.556,4.84,4.84,0,0,1,.07,3.487A10.423,10.423,0,0,1,46.9,8.232c-.185.385-.389.765-.6,1.141s-.435.748-.654,1.117-.434.733-.636,1.1l-2.538,4.556L39.933,20.7l-2.54,4.555-2.541,4.554q1.372-1.6,2.727-3.209t2.709-3.224Q41.642,21.761,43,20.155t2.749-3.189c.5-.491.967-1.023,1.427-1.566s.911-1.1,1.378-1.632a17.3,17.3,0,0,1,1.473-1.521,9.113,9.113,0,0,1,1.711-1.23,5.392,5.392,0,0,1,2.1-.54,4.954,4.954,0,0,1,2.031.324,4.485,4.485,0,0,1,1.681,1.141A4.638,4.638,0,0,1,58.6,13.854a5.537,5.537,0,0,1,.2,1.662,6.217,6.217,0,0,1-.268,1.608,7.86,7.86,0,0,1-.644,1.515,10.011,10.011,0,0,1-.924,1.384q-.816,1.032-1.643,2.056t-1.658,2.044q-.832,1.02-1.666,2.038T50.333,28.2l-1.54,1.887-1.54,1.886-1.541,1.885L44.17,35.741a1.246,1.246,0,0,1-.224.213,1.343,1.343,0,0,1-.262.151,1.56,1.56,0,0,1-.29.093,1.842,1.842,0,0,1-.307.04c.057-.209.113-.416.17-.619s.115-.4.177-.6.127-.385.2-.569.147-.361.232-.529c-.085.169-.161.346-.232.529s-.136.374-.2.569-.12.4-.177.6-.113.411-.17.619a1.772,1.772,0,0,1-1.068-.251,1.7,1.7,0,0,1-.652-.749,1.79,1.79,0,0,1-.139-.992,1.838,1.838,0,0,1,.47-.978q1.613-1.974,3.227-3.945t3.226-3.947q1.611-1.975,3.217-3.954t3.2-3.968c.106-.233.23-.473.347-.717a5.428,5.428,0,0,0,.3-.746,2.22,2.22,0,0,0,.108-.765,1.655,1.655,0,0,0-.24-.776,1.133,1.133,0,0,0-.326-.356,1.027,1.027,0,0,0-.412-.167,1.375,1.375,0,0,0-.471.005,2.093,2.093,0,0,0-.5.16,4.04,4.04,0,0,0-.929.6,7.909,7.909,0,0,0-.821.82c-.26.295-.508.6-.75.906s-.478.6-.714.861l-.483.54-.485.538-.486.537-.485.537q-1.6,1.837-3.176,3.7T41.9,26.857q-1.568,1.865-3.138,3.729T35.61,34.3a1.994,1.994,0,0,1-.143.152,1.74,1.74,0,0,1-.148.127,1.564,1.564,0,0,1-.153.1,1.454,1.454,0,0,1-.156.08c-.141-.282-.282-.564-.423-.842s-.282-.552-.423-.818-.282-.526-.423-.774-.282-.486-.424-.709l.023-.026-.009,0h-.009l-.009,0-.009,0q-.115-.181-.23-.35t-.23-.321q-.115-.153-.23-.288t-.23-.25q.115.115.23.25t.23.288q.115.153.23.321t.23.35a1.709,1.709,0,0,1-.975-.046,2.01,2.01,0,0,1-.834-.541,1.627,1.627,0,0,1-.216-1.974l3-5.38,3-5.38q1.5-2.69,3-5.382t2.993-5.385c.165-.3.342-.608.492-.922a3.82,3.82,0,0,0,.329-.943,1.622,1.622,0,0,0-.069-.906,1.8,1.8,0,0,0-.7-.811,2.575,2.575,0,0,0-.609-.3,2.514,2.514,0,0,0-.675-.134,2.051,2.051,0,0,0-.673.071,1.672,1.672,0,0,0-.6.311,2.214,2.214,0,0,0-.413.462,4.892,4.892,0,0,0-.336.578c-.1.2-.2.412-.29.614s-.183.4-.276.569q-.968,1.8-1.974,3.591t-2.032,3.56q-1.026,1.774-2.066,3.54T31.3,20.32q-.8,1.364-1.606,2.727T28.086,25.77q-.807,1.361-1.617,2.721t-1.622,2.717a1.745,1.745,0,0,1-.595.612,1.556,1.556,0,0,1-.717.219,1.843,1.843,0,0,1-.734-.113,2.029,2.029,0,0,1-.643-.381q-.823-.809-1.626-1.641t-1.6-1.672q-.8-.84-1.59-1.681t-1.6-1.667A3.441,3.441,0,0,0,14.114,23.8a1.772,1.772,0,0,0-1.369.231,4.182,4.182,0,0,0-1.153,1.128,13.239,13.239,0,0,0-.98,1.6c-.416.691-.855,1.382-1.3,2.074S8.4,30.214,7.944,30.906,7.035,32.291,6.6,32.983s-.855,1.383-1.245,2.074a.748.748,0,0,1,.012.086c0,.034.006.073.009.111s.007.076.011.109a.346.346,0,0,0,.018.079q.021.042.043.083t.046.082q.024.041.049.08l.052.078c0-.011.029.012.07.049s.093.09.139.139a1.288,1.288,0,0,1,.1.12c.017.024.01.027-.039-.009a2.041,2.041,0,0,0,1.38.473,2.5,2.5,0,0,0,1.275-.484,5.622,5.622,0,0,0,1.1-1.043,10.058,10.058,0,0,0,.844-1.2q.31-.445.614-.9t.6-.913q.292-.46.568-.93t.529-.95a1.62,1.62,0,0,1,1.195-.87,1.754,1.754,0,0,1,1.27.375,1.944,1.944,0,0,1,.738,1.16,1.812,1.812,0,0,1-.4,1.488c.338.441.7.884,1.07,1.337s.728.914,1.058,1.392a9.359,9.359,0,0,1,.857,1.492,5.7,5.7,0,0,1,.467,1.637,4.459,4.459,0,0,1-.022.82,6.977,6.977,0,0,1-.149.827c-.065.274-.143.547-.226.814s-.17.528-.255.781q-.163.49-.34.974t-.366.965q-.188.48-.385.958t-.4.952c-.105.279-.216.6-.348.919a5.436,5.436,0,0,1-.468.924,2.219,2.219,0,0,1-.676.691,1.554,1.554,0,0,1-.969.219,3.567,3.567,0,0,1-.06.877,2.733,2.733,0,0,1-.3.826,1.674,1.674,0,0,1-.566.605,1.514,1.514,0,0,1-.866.216,1.915,1.915,0,0,1-.65-.153,2.092,2.092,0,0,1-.586-.371,1.641,1.641,0,0,1-.4-.546,1.292,1.292,0,0,1-.106-.678q.034-.3.053-.6t.019-.6q0-.3-.015-.6t-.049-.6a13.2,13.2,0,0,0-.393-1.695c-.164-.555-.355-1.1-.55-1.647s-.4-1.089-.583-1.638-.356-1.1-.49-1.667A4.722,4.722,0,0,1,7.531,40a5.437,5.437,0,0,1-1.385-.09,5.512,5.512,0,0,1-1.308-.427,4.779,4.779,0,0,1-1.116-.728,2.6,2.6,0,0,0-.254.778,2.692,2.692,0,0,0-.006.757,4.381,4.381,0,0,0,.174.758c.08.255.179.515.284.782.132.336.272.668.411,1s.279.665.411,1,.259.672.371,1.014.211.689.29,1.044a9.833,9.833,0,0,1,.225,2.22,15.553,15.553,0,0,1-.186,2.162c-.106.716-.244,1.431-.378,2.152s-.264,1.449-.353,2.19a8.463,8.463,0,0,0,.618,4.232,13.848,13.848,0,0,0,2.393,3.781,23.212,23.212,0,0,0,3.383,3.158,29.277,29.277,0,0,0,3.587,2.365,1.608,1.608,0,0,1,.779.891,1.665,1.665,0,0,1-.018,1.063,2.007,2.007,0,0,1-.616.9,1.656,1.656,0,0,1-1.016.392q-.154,1.362-.324,2.722t-.337,2.721q-.168,1.36-.325,2.722t-.286,2.726a1.807,1.807,0,0,1-.288.911,1.861,1.861,0,0,1-.669.624,1.685,1.685,0,0,1-.875.211A1.627,1.627,0,0,1,9.81,83.7l.552-4.195L9.81,83.7a1.964,1.964,0,0,1-.324-.275,1.735,1.735,0,0,1-.25-.337,1.46,1.46,0,0,1-.152-.386,1.3,1.3,0,0,1-.029-.42c.1-1.054.214-2.106.335-3.158s.252-2.1.383-3.152.262-2.1.388-3.152.245-2.1.351-3.156A33.109,33.109,0,0,1,7.119,66.9a24.254,24.254,0,0,1-2.984-3.326A16.575,16.575,0,0,1,2,59.744a12.273,12.273,0,0,1-.846-4.277,18.393,18.393,0,0,1,.289-2.542c.143-.831.311-1.65.439-2.468a13.951,13.951,0,0,0,.2-2.466,8.3,8.3,0,0,0-.437-2.534m14.567,1.024c0,.014,0,.029-.006.043l-.006.043c0,.014,0,.028-.007.043s-.006.028-.01.042a.453.453,0,0,0-.017.077c0,.014,0,.017.006.005a.453.453,0,0,0,.019-.079c.007-.042.015-.1.022-.175m-3.945-7.594c.105.4.224.791.352,1.182s.262.778.4,1.165.277.773.412,1.161.267.777.389,1.169l.007-.016-.007.016c.164-.4.328-.807.488-1.213s.316-.814.464-1.224.286-.824.411-1.241.237-.839.331-1.265l0-.035c0,.005,0,0,0,0s0-.018.007-.033.005-.035.008-.056,0-.046.005-.071l0-.011,0-.011,0-.01,0-.009c.007.02.014.038.019.052a.117.117,0,0,0,.012.024s0,0,0-.017-.012-.037-.025-.071l0-.008,0-.008,0-.007,0,0,0,0,0,0,0,.006,0,.006-.011-.03c0-.015,0-.031,0-.046s0-.029,0-.041,0-.022,0-.029,0-.011,0-.012a.026.026,0,0,0-.012.011.053.053,0,0,0-.006.019.123.123,0,0,0,0,.024.24.24,0,0,0,0,.028l-.024-.064-.024-.065-.022-.065-.021-.065.029.091.018.055.008.025s0,0,0,0a8.189,8.189,0,0,0-.393-.755c-.143-.245-.3-.483-.458-.717s-.328-.463-.5-.689-.342-.45-.512-.671c-.155.226-.312.452-.473.677s-.325.447-.494.666-.341.433-.518.64-.359.408-.546.6a1.786,1.786,0,0,1,.223.181,1.664,1.664,0,0,1,.191.218,1.6,1.6,0,0,1,.152.253,1.618,1.618,0,0,1,.106.289" transform="translate(119.699 77.355)" fill="#323232"/>
        <path id="Path_309" data-name="Path 309" d="M0,0,.012.036l0,.01V.071L.011.053l0-.018L0,.018,0,0" transform="translate(135.219 115.645)" fill="#323232"/>
        <path id="Path_310" data-name="Path 310" d="M.023,0V.036c0,.014,0,.029-.007.043L.011.123.006.164,0,.2A.129.129,0,0,1,0,.171C0,.157,0,.138,0,.119s0-.041.008-.062A.5.5,0,0,1,.023,0" transform="translate(135.213 115.744)" fill="#323232"/>
        <path id="Path_311" data-name="Path 311" d="M.006,0l0,.007V.021L0,.009.006,0" transform="translate(135.239 115.719)" fill="#323232"/>
        <path id="Path_312" data-name="Path 312" d="M0,.028V0L0,.013,0,.028" transform="translate(135.235 115.716)" fill="#323232"/>
        <path id="Path_313" data-name="Path 313" d="M14.448.246a1.621,1.621,0,0,1,1.374-.16,1.859,1.859,0,0,1,.972.827,1.837,1.837,0,0,1,.24,1.248,1.6,1.6,0,0,1-.822,1.1,28.753,28.753,0,0,0-4.166,2.916A29.044,29.044,0,0,0,8.463,9.77a28.7,28.7,0,0,0-2.9,4.161,27.87,27.87,0,0,0-2.116,4.626,2.047,2.047,0,0,1-.333.6,1.881,1.881,0,0,1-.5.439A1.669,1.669,0,0,1,.7,19.466a1.93,1.93,0,0,1-.453-.518,1.74,1.74,0,0,1-.232-.641,1.43,1.43,0,0,1,.063-.68A32.608,32.608,0,0,1,9.733,3.563,31.747,31.747,0,0,1,14.448.246" transform="translate(141.254 118.891)" fill="#323232"/>
        <path id="Path_314" data-name="Path 314" d="M.407,0,0,1.175A1.65,1.65,0,0,1,.016.847,1.607,1.607,0,0,1,.092.539,1.644,1.644,0,0,1,.224.255,1.737,1.737,0,0,1,.407,0" transform="translate(127.144 164.884)" fill="#323232"/>
        <path id="Path_315" data-name="Path 315" d="M.224,46.8l1.709,1.863L.224,46.8a1.984,1.984,0,0,1,1.458-.955A1.524,1.524,0,0,1,2.543,46a1.646,1.646,0,0,1,.7.708,26,26,0,0,0,3.206,4.63,21.244,21.244,0,0,0,4.2,3.742,15.57,15.57,0,0,0,5.022,2.235,13.239,13.239,0,0,0,5.66.108,13.4,13.4,0,0,0,4.29-1.649,14.222,14.222,0,0,0,3.463-2.913,14.819,14.819,0,0,0,3.546-8.329q.247-4.851.443-9.707t.379-9.714q.182-4.858.37-9.716t.417-9.712q-.276.231-.558.462t-.57.459q-.288.229-.582.454t-.593.446l.832-5.177q.273-.231.544-.463t.539-.466L34.39.924l.53-.469a1.826,1.826,0,0,1,.926-.431,1.989,1.989,0,0,1,.991.094,1.659,1.659,0,0,1,.778.571,1.555,1.555,0,0,1,.287,1q-.162,3.925-.325,7.85l-.325,7.85-.325,7.85-.325,7.85c-.04.956-.07,1.914-.1,2.873s-.055,1.919-.085,2.879-.066,1.92-.112,2.878-.1,1.915-.18,2.869A19.8,19.8,0,0,1,31.489,55.5a16.41,16.41,0,0,1-8.827,5.178,18,18,0,0,1-10.4-.886A21.619,21.619,0,0,1,2.9,52.508h0q-.377-.476-.733-.968t-.691-1q-.334-.506-.646-1.025t-.6-1.049a1.905,1.905,0,0,1-.178-.451A1.625,1.625,0,0,1,0,47.582a1.583,1.583,0,0,1,.064-.407,1.693,1.693,0,0,1,.16-.371" transform="translate(119.478 171.465)" fill="#323232"/>
        <path id="Path_316" data-name="Path 316" d="M12.633,18.013a9.139,9.139,0,0,1-1.848-.877A11.663,11.663,0,0,1,9.16,15.917a16.8,16.8,0,0,1-1.438-1.455c-.452-.513-.879-1.048-1.288-1.587-.6-.8-1.174-1.618-1.722-2.455S3.642,8.728,3.134,7.864s-1-1.738-1.485-2.614S.686,3.494.208,2.619a1.634,1.634,0,0,1-.152-.383,1.779,1.779,0,0,1-.037-.187C.009,1.987,0,1.926,0,1.864L.4.689a2.052,2.052,0,0,1,.7-.524A1.887,1.887,0,0,1,1.521.032,1.664,1.664,0,0,1,1.95,0L1.679,2.06,1.95,0A1.537,1.537,0,0,1,2.312.07a1.446,1.446,0,0,1,.342.158,1.531,1.531,0,0,1,.309.259,1.87,1.87,0,0,1,.262.37q.661,1.208,1.326,2.419t1.36,2.406q.695,1.195,1.431,2.363t1.538,2.29c.289.4.6.823.931,1.237s.685.821,1.059,1.2a9.97,9.97,0,0,0,1.184,1.041,6.269,6.269,0,0,0,1.305.754,5.832,5.832,0,0,0,3.155.2,10.738,10.738,0,0,0,3.111-1.212,25.364,25.364,0,0,0,2.914-1.949c.921-.7,1.784-1.406,2.563-2.013l-.832,5.177a27.368,27.368,0,0,1-2.749,1.8,16.65,16.65,0,0,1-2.9,1.312,10.666,10.666,0,0,1-2.984.568,8.325,8.325,0,0,1-3.012-.435" transform="translate(127.146 164.194)" fill="#323232"/>
        <path id="Path_317" data-name="Path 317" d="M1.6,0a7.108,7.108,0,0,0,.112,1.681c.1.56.241,1.121.389,1.681s.3,1.121.417,1.681A8.328,8.328,0,0,1,2.717,6.73a8.328,8.328,0,0,0-.194-1.681c-.116-.56-.268-1.121-.417-1.681s-.292-1.121-.389-1.681A7.108,7.108,0,0,1,1.6,0a2.025,2.025,0,0,1,.681.069,1.752,1.752,0,0,1,.605.3,1.518,1.518,0,0,1,.435.535,1.763,1.763,0,0,1,.169.771,20.441,20.441,0,0,0,.213,3.683,13.412,13.412,0,0,0,.912,3.228A12.2,12.2,0,0,0,6.35,11.454a15.965,15.965,0,0,0,2.67,2.579q.527.455,1.061.9t1.068.895q.534.447,1.067.9t1.057.907a1.429,1.429,0,0,1,.389.557,1.738,1.738,0,0,1,.116.669,1.927,1.927,0,0,1-.135.672,1.7,1.7,0,0,1-.365.567c-.248-.18-.491-.369-.726-.57s-.464-.413-.684-.641a8.754,8.754,0,0,1-.632-.728,8.512,8.512,0,0,1-.569-.832,8.512,8.512,0,0,0,.569.832,8.754,8.754,0,0,0,.632.728c.22.227.449.44.684.641s.478.39.726.57l-.005.006a1.7,1.7,0,0,1-.583.385,1.669,1.669,0,0,1-.649.113,1.865,1.865,0,0,1-.65-.136,2.066,2.066,0,0,1-.587-.362c-.676-.59-1.373-1.165-2.071-1.741s-1.4-1.153-2.08-1.747S5.3,15.411,4.675,14.766a19.713,19.713,0,0,1-1.759-2.054,12.839,12.839,0,0,1-1.444-2.524A15.84,15.84,0,0,1,.583,7.45,21.76,21.76,0,0,1,.132,4.585C.041,3.619,0,2.646,0,1.682a1.775,1.775,0,0,1,.133-.7A1.5,1.5,0,0,1,.491.464,1.661,1.661,0,0,1,1,.14,1.955,1.955,0,0,1,1.6,0" transform="translate(73.414 95.717)" fill="#323232"/>
        <path id="Path_318" data-name="Path 318" d="M5.892,5.764,6.1,4.681,6.307,3.6l.208-1.083.207-1.083c.173.148.342.295.5.442s.318.3.462.448a5.038,5.038,0,0,1,.4.469A3.384,3.384,0,0,1,8.4,3.3a3.384,3.384,0,0,0-.314-.506,5.038,5.038,0,0,0-.4-.469c-.145-.152-.3-.3-.462-.448s-.332-.294-.5-.442A1.518,1.518,0,0,1,7.414.223,1.714,1.714,0,0,1,8.673.047a1.973,1.973,0,0,1,1.135.7,1.758,1.758,0,0,1,.319,1.43L8.482,10.762,6.838,19.344,5.193,27.926,3.549,36.508H0L5.892,5.764" transform="translate(87.157 187.465)" fill="#323232"/>
        <path id="Path_319" data-name="Path 319" d="M2.582.272q2.094,1.3,4.062,2.761t3.817,3.074q1.849,1.609,3.58,3.348t3.353,3.585h0a96.937,96.937,0,0,1,6.971,9.046,107.593,107.593,0,0,1,5.916,9.768c1.8,3.358,3.435,6.809,4.909,10.325s2.788,7.1,3.95,10.714q.663,2.077,1.251,4.177t1.092,4.221q.5,2.121.922,4.261t.742,4.3a1.8,1.8,0,0,1-.54,1.608,2.1,2.1,0,0,1-.686.439,1.98,1.98,0,0,1-.772.142c-.081-.31-.155-.622-.215-.938a8.657,8.657,0,0,1-.131-.959,6.631,6.631,0,0,1,0-.991,6.075,6.075,0,0,1,.166-1.033,6.075,6.075,0,0,0-.166,1.033,6.631,6.631,0,0,0,0,.991,8.657,8.657,0,0,0,.131.959c.06.316.134.627.215.938a1.569,1.569,0,0,1-.471-.082,1.274,1.274,0,0,1-.724-.619,1.727,1.727,0,0,1-.178-.559,124.722,124.722,0,0,0-4.49-18.419,117.034,117.034,0,0,0-7.508-17.924,96.436,96.436,0,0,0-10.553-16.16A75.143,75.143,0,0,0,3.6,5.147Q3.168,4.721,2.73,4.3t-.886-.828Q1.4,3.064.936,2.667T0,1.889a1.933,1.933,0,0,1,.208-.883A1.946,1.946,0,0,1,.782.312,1.535,1.535,0,0,1,1.61,0a1.653,1.653,0,0,1,.972.269" transform="translate(41.348 106.749)" fill="#323232"/>
        <path id="Path_320" data-name="Path 320" d="M3.6,3.257q-.341-.241-.684-.479t-.691-.47q-.347-.233-.7-.46T.819,1.4A1.889,1.889,0,0,1,.45,1.1,1.61,1.61,0,0,1,.2.763,1.569,1.569,0,0,1,.05.389,1.686,1.686,0,0,1,0,0Q.476.381.936.778t.908.806q.448.409.886.828t.869.845" transform="translate(41.348 108.638)" fill="#323232"/>
        <path id="Path_321" data-name="Path 321" d="M3.47,1.2q.164.483.337.962t.356.955q.182.476.371.95t.382.945v0c.581,1.418,1.2,2.819,1.847,4.212s1.308,2.777,1.975,4.161,1.335,2.766,1.985,4.155,1.283,2.785,1.879,4.2a27.6,27.6,0,0,1,2.02,6.478,37.01,37.01,0,0,1,.579,6.677,61.837,61.837,0,0,1-.4,6.756c-.244,2.252-.572,4.5-.909,6.716q-.222,1.7-.381,3.405t-.271,3.413q-.112,1.708-.184,3.419t-.119,3.422l-2.27,6.594,2.27-6.594q-.093,3.7-.139,7.392t-.056,7.393q-.009,3.7.013,7.394t.068,7.393l-.673-.735.673.735q.007.657.013,1.315t.012,1.315q.006.657.014,1.315t.019,1.315a1.865,1.865,0,0,1-.009.228,1.711,1.711,0,0,1-.035.211,1.655,1.655,0,0,1-.135.373H9.595c-.177-2.263-.279-4.54-.334-6.826S9.2,86.264,9.21,83.968s.043-4.593.066-6.887.039-4.584.019-6.864c.016-1.489.03-2.98.051-4.472s.048-2.986.09-4.478.1-2.984.182-4.474.188-2.977.327-4.46c.21-2.245.527-4.507.836-6.775s.609-4.541.788-6.81a42.89,42.89,0,0,0,.055-6.783,26.791,26.791,0,0,0-1.362-6.693c-.69-1.99-1.5-3.932-2.372-5.849s-1.8-3.811-2.729-5.706S3.306,9.926,2.442,8,.778,4.132.1,2.132A1.807,1.807,0,0,1,0,1.573a1.427,1.427,0,0,1,.078-.488A1.411,1.411,0,0,1,.3.678,1.619,1.619,0,0,1,.639.358q.219.272.43.55t.416.562q.2.284.4.575t.382.589q-.186-.3-.382-.589t-.4-.575q-.2-.284-.416-.562T.639.358A1.954,1.954,0,0,1,1.385.04a2,2,0,0,1,.826.006,1.7,1.7,0,0,1,.748.373A1.776,1.776,0,0,1,3.47,1.2" transform="translate(106.54 126.305)" fill="#323232"/>
        <path id="Path_322" data-name="Path 322" d="M2.176,1.979H0a1.98,1.98,0,0,1,.132-.607A1.7,1.7,0,0,1,.458.847,1.528,1.528,0,0,1,.973.476,1.789,1.789,0,0,1,1.681.33l7.1-.083,7.1-.082,7.1-.082L30.085,0c.393.221.783.448,1.164.688s.756.493,1.116.768a10.531,10.531,0,0,1,1.038.9,8.9,8.9,0,0,1,.929,1.08c-.058.006-.116.01-.175.012s-.117,0-.176,0H33.8c-.059,0-.118,0-.177,0L33.07,2.226l.557,1.227-6.976.081-6.976.081L12.7,3.7l-6.976.081-1.01.012L3.7,3.8l-1.011.012-1.011.012A1.744,1.744,0,0,1,.916,3.67a1.485,1.485,0,0,1-.534-.422,1.718,1.718,0,0,1-.3-.595A2.009,2.009,0,0,1,0,1.979Z" transform="translate(59.917 117.809)" fill="#323232"/>
        <path id="Path_323" data-name="Path 323" d="M2.478,0a1.843,1.843,0,0,1,.545.072A1.493,1.493,0,0,1,3.792.6a1.687,1.687,0,0,1,.226.394q-.486-.16-.981-.3t-1-.26q-.5-.12-1.013-.22T0,.029L2.478,0" transform="translate(91.68 117.761)" fill="#323232"/>
        <path id="Path_324" data-name="Path 324" d="M4.248,3.455a8.886,8.886,0,0,0-.929-1.081,10.512,10.512,0,0,0-1.038-.9C1.921,1.2,1.547.947,1.165.707S.393.241,0,.019L.419.014l.419,0,.419,0,.419,0Q2.193.081,2.7.181T3.716.4q.5.12,1,.26t.981.3a1.958,1.958,0,0,1,.14.8,1.937,1.937,0,0,1-.194.791,1.6,1.6,0,0,1-.529.619,1.675,1.675,0,0,1-.865.282" transform="translate(90.003 117.79)" fill="#323232"/>
        <path id="Path_325" data-name="Path 325" d="M3.22,7.948.076,1.031A1.445,1.445,0,0,1,.706.285a2.029,2.029,0,0,1,1-.284,1.937,1.937,0,0,1,1.04.266,1.793,1.793,0,0,1,.748.9q.962,2.452,1.945,4.9t2,4.88Q8.456,13.383,9.511,15.8T11.673,20.6c.465,1.006.946,2.01,1.425,3.017s.955,2.018,1.411,3.036.891,2.046,1.287,3.086.753,2.094,1.053,3.167a25.4,25.4,0,0,1,.619,2.857c.152.959.255,1.925.319,2.894s.089,1.942.088,2.916-.03,1.949-.074,2.922q-.347,7.061-.686,14.125t-.656,14.128q-.317,7.064-.607,14.129t-.54,14.13H11.893q.192-6.511.407-13.026t.473-13.028q.258-6.513.569-13.024t.7-13.016c.072-1.045.153-2.1.223-3.162s.128-2.128.154-3.195.02-2.132-.038-3.191a26.364,26.364,0,0,0-.354-3.15,25.937,25.937,0,0,0-.728-3c-.3-.985-.648-1.955-1.029-2.914s-.795-1.906-1.223-2.846-.87-1.872-1.308-2.8q-1.31-2.77-2.555-5.571t-2.44-5.625Q3.545,10.638,2.395,7.8T.126,2.1a1.9,1.9,0,0,1-.09-.3A1.565,1.565,0,0,1,0,1.527a1.381,1.381,0,0,1,.015-.258,1.313,1.313,0,0,1,.06-.238Z" transform="translate(94.711 122.962)" fill="#323232"/>
        <path id="Path_326" data-name="Path 326" d="M3.367,45.124l1.9-10.965,1.9-10.965,1.9-10.965,1.9-10.965A1.444,1.444,0,0,1,11.7.165,1.7,1.7,0,0,1,12.93.072a2.032,2.032,0,0,1,1.086.734,1.768,1.768,0,0,1,.312,1.385l-.534,3.084-.534,3.084-.534,3.083-.533,3.083,10.429,2.031,10.429,2.031,10.429,2.03,10.429,2.031c.029.2.05.406.063.612s.017.415.011.626a6.152,6.152,0,0,1-.053.642,6.048,6.048,0,0,1-.127.66,6.048,6.048,0,0,0,.127-.66,6.152,6.152,0,0,0,.053-.642c.006-.211,0-.419-.011-.626s-.035-.41-.063-.612l2.268.441,2.268.441,2.268.441,2.268.441a1.4,1.4,0,0,1,.6.29,1.908,1.908,0,0,1,.454.536,1.856,1.856,0,0,1,.232.66,1.335,1.335,0,0,1-.066.664l-.192.5-.192.5-.192.5-.192.5c-.173-.166-.343-.339-.505-.521a6.675,6.675,0,0,1-.463-.578,5.5,5.5,0,0,1-.4-.653,5.137,5.137,0,0,1-.315-.744,5.137,5.137,0,0,0,.315.744,5.5,5.5,0,0,0,.4.653,6.675,6.675,0,0,0,.463.578c.163.182.332.355.505.521l-3.444,9-3.444,9-3.444,9-3.444,9H45.935l3.554-9.292L53.044,46,56.6,36.705l3.555-9.292L48.015,25.05,35.876,22.687,23.738,20.324,11.6,17.96,9.582,29.616,7.565,41.271,5.547,52.926,3.53,64.582H0l.842-4.864.842-4.864.842-4.864.842-4.864" transform="translate(29.39 159.392)" fill="#323232"/>
        <path id="Path_327" data-name="Path 327" d="M2.213.087A24.443,24.443,0,0,1,8.284,3.209a21.673,21.673,0,0,1,4.527,4.356,26.069,26.069,0,0,1,3.225,5.465A39.068,39.068,0,0,1,18.2,19.479a1.628,1.628,0,0,1-.206,1.37,1.87,1.87,0,0,1-1.051.728,1.827,1.827,0,0,1-1.265-.089,1.585,1.585,0,0,1-.847-1.079,35.581,35.581,0,0,0-1.8-5.584,23.092,23.092,0,0,0-2.7-4.789,18.433,18.433,0,0,0-3.837-3.84,20.032,20.032,0,0,0-5.2-2.738,2.257,2.257,0,0,1-.6-.341A1.923,1.923,0,0,1,.244,2.62a1.637,1.637,0,0,1-.226-.614A1.665,1.665,0,0,1,.373.714,2,2,0,0,1,.893.254,1.72,1.72,0,0,1,1.537.015a1.334,1.334,0,0,1,.677.071" transform="translate(26.914 127.201)" fill="#323232"/>
        <path id="Path_328" data-name="Path 328" d="M1.667,95.918a13.378,13.378,0,0,0,4.253-.272,15.182,15.182,0,0,0,3.907-1.49,18.661,18.661,0,0,0,3.455-2.444,22.071,22.071,0,0,0,2.9-3.136,22.659,22.659,0,0,0,2.495-4.148,28.312,28.312,0,0,0,1.636-4.5,40.009,40.009,0,0,0,.975-4.725c.237-1.6.4-3.209.511-4.813a85,85,0,0,0,.211-11.025c-.153-3.662-.5-7.314-.947-10.958s-.995-7.283-1.551-10.918-1.121-7.269-1.6-10.9c-.261-2.108-.476-4.219-.63-6.331s-.248-4.225-.264-6.337.043-4.224.2-6.333.4-4.216.749-6.318a1.434,1.434,0,0,1,.734-1.1A1.692,1.692,0,0,1,19.918.072a2.044,2.044,0,0,1,1.089.735,1.777,1.777,0,0,1,.319,1.386c-.314,1.872-.531,3.744-.669,5.616s-.195,3.742-.186,5.612.082,3.739.205,5.607.3,3.735.505,5.6a6.211,6.211,0,0,1,1.18-.062,6.3,6.3,0,0,1,1.175.162,6.067,6.067,0,0,1,1.122.382,5.644,5.644,0,0,1,1.022.6,12.648,12.648,0,0,1-1.545.338c-.523.082-1.05.137-1.57.174s-1.033.056-1.529.065-.974.01-1.424.01c.45,0,.928,0,1.424-.01s1.009-.028,1.529-.065,1.047-.092,1.57-.174a12.648,12.648,0,0,0,1.545-.338,6.309,6.309,0,0,1,.759.618,6.238,6.238,0,0,1,.65.725,6.14,6.14,0,0,1,.925,1.717,1.684,1.684,0,0,1-1.185,2.119,1.734,1.734,0,0,1-2.169-1.157q-.036-.078-.076-.154t-.083-.15q-.043-.074-.089-.146t-.094-.143q-.057-.065-.116-.128t-.12-.123q-.061-.061-.124-.119t-.128-.115q-.08-.055-.161-.107t-.165-.1q-.083-.049-.168-.094t-.171-.087q-.089-.032-.18-.061t-.181-.054q-.091-.025-.183-.047t-.185-.039q-.081-.006-.163-.009t-.164,0q-.082,0-.164,0t-.163.009l-.045.009-.045.009-.045.009L21.6,28.1q.262,1.983.557,3.965t.6,3.961q.307,1.979.616,3.956t.6,3.952a5.356,5.356,0,0,1,2.218.548,6.391,6.391,0,0,1,1.835,1.359,7.12,7.12,0,0,1,1.293,1.911,6.56,6.56,0,0,1,.589,2.2,5.949,5.949,0,0,1-.222,2.159,6.591,6.591,0,0,1-.933,1.932A7.068,7.068,0,0,1,27.266,55.6a6.841,6.841,0,0,1-1.9,1.029c.1,1.994.165,4.005.182,6.023s-.017,4.04-.126,6.058-.29,4.029-.568,6.023a55.117,55.117,0,0,1-1.146,5.919q-.277-.186-.56-.365t-.574-.351q-.291-.172-.59-.335t-.607-.318q.308.154.607.318t.59.335q.291.172.574.351t.56.365a27.5,27.5,0,0,1-2.929,7.206,26.908,26.908,0,0,1-4.914,6.2,21.023,21.023,0,0,1-6.5,4.186,16.9,16.9,0,0,1-7.7,1.166,1.933,1.933,0,0,1-.345-.065,1.753,1.753,0,0,1-.3-.118,1.72,1.72,0,0,1-.264-.164,1.794,1.794,0,0,1-.225-.2q.358-.277.735-.537t.774-.5q.4-.241.816-.461t.861-.417q-.442.2-.861.417t-.816.461q-.4.241-.774.5t-.735.537a1.956,1.956,0,0,1-.479-.918,2.011,2.011,0,0,1,.027-1,1.446,1.446,0,0,1,.537-.78,1.517,1.517,0,0,1,1.052-.244M25.238,52.8l0,0-.011.009-.018.015-.025.019.025-.019.018-.015.011-.009,0,0m-.518-3.4q.053.438.1.877t.1.877q.046.438.089.877t.083.876l.006,0,.006,0,.006,0,.006,0,.014-.009.011-.008.01-.008.011-.008.148-.133c.05-.046.1-.092.149-.14s.1-.1.144-.144.09-.1.131-.146c.049-.065.1-.131.139-.2s.085-.137.125-.207.078-.141.115-.213.074-.144.11-.216q.029-.09.056-.181t.052-.182q.025-.091.047-.184t.041-.184v-.055c0-.013,0-.052,0-.1s0-.119,0-.189,0-.143,0-.209,0-.123,0-.162c0,.024.008.051.013.074a.371.371,0,0,0,.013.049c0,.007,0,0,0-.021s-.011-.067-.025-.138l0-.019,0,.012c-.011-.061-.025-.121-.04-.18s-.031-.119-.049-.178-.036-.118-.055-.176-.039-.117-.059-.175l-.1-.165-.1-.165-.1-.165-.1-.163c-.045-.052-.092-.1-.139-.157s-.1-.1-.145-.154-.1-.1-.151-.148-.1-.095-.156-.139-.121-.085-.182-.125-.122-.08-.184-.118-.125-.075-.189-.111-.13-.07-.2-.1q.03.232.061.464l.061.464q.03.232.06.464t.058.464" transform="translate(15.893 26.694)" fill="#323232"/>
        <path id="Path_329" data-name="Path 329" d="M3.99,112.272c.557-1.283,1.147-2.552,1.747-3.818s1.209-2.527,1.8-3.8,1.176-2.541,1.719-3.83,1.049-2.593,1.493-3.922a98.375,98.375,0,0,0,2.92-11.573c.749-3.9,1.3-7.848,1.714-11.811s.705-7.946.934-11.928.4-7.964.582-11.925c.151-3.391.243-6.879.435-10.38A102,102,0,0,1,18.37,28.837a50.405,50.405,0,0,1,2.574-10.011A34.088,34.088,0,0,1,26.005,9.77a29.842,29.842,0,0,1,2.637-2.908,33.477,33.477,0,0,1,2.97-2.552A38.279,38.279,0,0,1,34.848,2.1C35.964,1.411,37.113.78,38.285.2A1.845,1.845,0,0,1,38.972,0a1.649,1.649,0,0,1,.633.077,1.822,1.822,0,0,1,.546.29,2.051,2.051,0,0,1,.425.445,16.992,16.992,0,0,0-1.745.595,12.688,12.688,0,0,0-1.633.8,10.443,10.443,0,0,0-1.488,1.049A9.735,9.735,0,0,0,34.4,4.607a9.735,9.735,0,0,1,1.311-1.349A10.443,10.443,0,0,1,37.2,2.209a12.688,12.688,0,0,1,1.633-.8A16.992,16.992,0,0,1,40.576.817a2,2,0,0,1,.3.623,1.621,1.621,0,0,1,.045.664,1.365,1.365,0,0,1-.258.621,1.68,1.68,0,0,1-.611.492,30.952,30.952,0,0,0-10.571,7.963,31.754,31.754,0,0,0-5.77,10.5,56.93,56.93,0,0,0-2.485,12.2c-.449,4.258-.6,8.659-.715,13.062q-.153,3.783-.321,7.567t-.4,7.565q-.234,3.78-.56,7.553t-.8,7.532c-.3,2.569-.663,5.133-1.118,7.678s-1,5.072-1.65,7.568-1.412,4.961-2.3,7.384a68.578,68.578,0,0,1-3.07,7.125c-1,2.194-2.2,4.589-3.3,7.081a47.029,47.029,0,0,0-2.749,7.656,19.006,19.006,0,0,0-.492,7.594,12.808,12.808,0,0,0,3.468,6.9q-.037.354-.066.708t-.051.706q-.022.353-.037.7t-.022.7a1.091,1.091,0,0,0-.194-.188.614.614,0,0,0-.22-.106.434.434,0,0,0-.238.01.631.631,0,0,0-.247.161.631.631,0,0,1,.247-.161.434.434,0,0,1,.238-.01.614.614,0,0,1,.22.106,1.091,1.091,0,0,1,.194.188q0,.1,0,.19t-.005.191q0,.1,0,.19t0,.189c.138.138.233.19.292.182s.08-.075.073-.174a1.212,1.212,0,0,0-.105-.368,1.755,1.755,0,0,0-.243-.4q.008-.35.022-.7t.037-.7q.022-.353.051-.706t.066-.708q.119.127.241.253t.247.25q.126.124.255.247t.264.243a1.516,1.516,0,0,1,.558,1.23,1.756,1.756,0,0,1-.536,1.129,1.95,1.95,0,0,1-1.165.567,1.7,1.7,0,0,1-1.328-.456q-.616-.551-1.173-1.142t-1.052-1.22q-.495-.629-.926-1.294t-.8-1.363l.39-2.732-.39,2.732a14.882,14.882,0,0,1-1.7-5.5,20.8,20.8,0,0,1,.221-5.744,35.45,35.45,0,0,1,1.505-5.7c.645-1.862,1.4-3.668,2.155-5.373" transform="translate(1.99 4.225)" fill="#323232"/>
        <path id="Path_330" data-name="Path 330" d="M.085,1.3q.25.037.5.066t.5.049q.251.02.5.03t.5.01q-.25,0-.5-.01t-.5-.03Q.836,1.4.586,1.37T.085,1.3A1.921,1.921,0,0,1,.294.837,1.705,1.705,0,0,1,.628.444,1.634,1.634,0,0,1,1.09.165,1.878,1.878,0,0,1,1.678.037,20.206,20.206,0,0,1,10.8,1.586,23.016,23.016,0,0,1,18.17,6.654,29.649,29.649,0,0,1,23.5,14.118a33.058,33.058,0,0,1,2.982,8.739,1.851,1.851,0,0,1,0,.73,1.681,1.681,0,0,1-.257.6,1.871,1.871,0,0,1-.443.455,2.083,2.083,0,0,1-.561.291q-.116-.495-.238-.994t-.254-1q-.131-.505-.27-1.017t-.288-1.033q.149.521.288,1.033t.27,1.017q.131.505.254,1t.238.994a1.98,1.98,0,0,1-.665.106,1.577,1.577,0,0,1-.632-.138,1.334,1.334,0,0,1-.511-.41,1.67,1.67,0,0,1-.3-.707,30.935,30.935,0,0,0-2.547-7.7,26.308,26.308,0,0,0-4.531-6.631,19.562,19.562,0,0,0-6.35-4.528,17.3,17.3,0,0,0-8-1.393,1.646,1.646,0,0,1-.872-.168,1.411,1.411,0,0,1-.555-.527A1.781,1.781,0,0,1,.011,2.1a2.055,2.055,0,0,1,.074-.8" transform="translate(66.977 15.322)" fill="#323232"/>
        <path id="Path_331" data-name="Path 331" d="M.767,26.421a53.54,53.54,0,0,0,5.94-4.886,42.1,42.1,0,0,0,5.052-5.755,33.067,33.067,0,0,0,3.735-6.606,28.263,28.263,0,0,0,1.989-7.439A1.923,1.923,0,0,1,17.965.569a1.744,1.744,0,0,1,.973-.541,1.71,1.71,0,0,1,1.1.161,1.911,1.911,0,0,1,.855.938,7.561,7.561,0,0,1-.3,1.23,8.147,8.147,0,0,1-.511,1.2,8.793,8.793,0,0,1-.721,1.151,9.506,9.506,0,0,1-.927,1.075,9.506,9.506,0,0,0,.927-1.075,8.793,8.793,0,0,0,.721-1.151,8.147,8.147,0,0,0,.511-1.2,7.561,7.561,0,0,0,.3-1.23,29.193,29.193,0,0,1-1.868,8.535,34.643,34.643,0,0,1-4.065,7.574,45.937,45.937,0,0,1-5.688,6.6,61.172,61.172,0,0,1-6.739,5.605,1.868,1.868,0,0,1-.3.176,1.525,1.525,0,0,1-.3.1,1.363,1.363,0,0,1-.564.01q.176-.193.339-.4t.31-.442q.147-.231.278-.485t.242-.532q-.111.278-.242.532t-.278.485q-.147.231-.31.442t-.339.4a1.543,1.543,0,0,1-.828-.478,2.043,2.043,0,0,1-.479-.888,1.872,1.872,0,0,1,.024-1.032,1.779,1.779,0,0,1,.682-.908" transform="translate(43.567 20.709)" fill="#323232"/>
        <path id="Path_332" data-name="Path 332" d="M2.922,40.245A21.42,21.42,0,0,0,8.3,44.434a26.317,26.317,0,0,0,6.688,2.6,23.714,23.714,0,0,0,7.09.635,17.271,17.271,0,0,0,6.584-1.719,17.479,17.479,0,0,0,5.823-4.578,22.946,22.946,0,0,0,3.639-6.291,38.342,38.342,0,0,0,2-7.214,68.872,68.872,0,0,0,.892-7.347c.114-1.568.191-3.136.244-4.706s.082-3.14.1-4.711.027-3.142.039-4.712.027-3.141.059-4.711a1.91,1.91,0,0,1,.036-.337,1.668,1.668,0,0,1,.089-.3,1.583,1.583,0,0,1,.134-.26,1.621,1.621,0,0,1,.173-.224q.194,1.166.341,2.332c.1.779.18,1.561.246,2.351s.115,1.587.149,2.4.05,1.629.05,2.466c0-.837-.017-1.657-.05-2.466s-.083-1.606-.149-2.4-.148-1.572-.246-2.351-.212-1.555-.341-2.332a1.757,1.757,0,0,1,.88-.506A2.008,2.008,0,0,1,43.78.074a1.613,1.613,0,0,1,.834.541,1.626,1.626,0,0,1,.331,1.068q-.016.748-.025,1.5T44.906,4.7q-.005.757-.007,1.519t0,1.525q-.067.186-.13.372t-.121.371q-.058.186-.111.371t-.1.371q.046-.185.1-.371t.111-.371q.058-.186.121-.371t.13-.372c-.036,3.292-.034,6.728-.174,10.181A76.285,76.285,0,0,1,43.7,28.2a38.307,38.307,0,0,1-2.932,9.61,26.232,26.232,0,0,1-5.911,8.172q-.031-.277-.057-.559t-.044-.57q-.018-.288-.029-.584t-.01-.6q0,.305.01.6t.029.584q.018.288.044.57t.057.559a18.528,18.528,0,0,1-2.391,1.829A20.736,20.736,0,0,1,29.8,49.266a21.72,21.72,0,0,1-2.839,1.058,20.952,20.952,0,0,1-2.9.639c.005-.019.01-.038.015-.057l.014-.057c0-.019.01-.038.015-.057s.011-.038.017-.057h0c-.006.019-.012.038-.017.057s-.01.038-.015.057l-.014.057c0,.019-.01.038-.015.057a26.861,26.861,0,0,1-6.392.062,29.527,29.527,0,0,1-6.38-1.416,28.176,28.176,0,0,1-5.9-2.8,24.05,24.05,0,0,1-4.94-4.091A1.725,1.725,0,0,1,.01,41.377a1.979,1.979,0,0,1,.572-1.169,1.734,1.734,0,0,1,1.124-.533,1.492,1.492,0,0,1,1.216.57" transform="translate(51.126 43.765)" fill="#323232"/>
        <path id="Path_333" data-name="Path 333" d="M1.688,0A1.607,1.607,0,0,1,2.953.546a1.849,1.849,0,0,1,.422,1.2,1.846,1.846,0,0,1-.421,1.2,1.608,1.608,0,0,1-1.266.546A1.607,1.607,0,0,1,.422,2.948,1.849,1.849,0,0,1,0,1.747,1.846,1.846,0,0,1,.421.546,1.608,1.608,0,0,1,1.688,0" transform="translate(61.043 49.185)" fill="#323232"/>
        <path id="Path_334" data-name="Path 334" d="M1.688,0A1.606,1.606,0,0,1,2.953.546a1.85,1.85,0,0,1,.422,1.2,1.847,1.847,0,0,1-.421,1.2,1.607,1.607,0,0,1-1.266.546A1.607,1.607,0,0,1,.423,2.949,1.85,1.85,0,0,1,0,1.748,1.846,1.846,0,0,1,.421.546,1.608,1.608,0,0,1,1.688,0" transform="translate(81.052 46.078)" fill="#323232"/>
        <path id="Path_335" data-name="Path 335" d="M.517,2.965A1.89,1.89,0,0,1,.009,1.526,1.684,1.684,0,0,1,.638.4,1.794,1.794,0,0,1,1.9.005a2.044,2.044,0,0,1,1.384.75q.145.1.292.2t.3.186q.151.09.3.174t.313.159l.023.011.061.028.077.035.069.031q.267.107.534.194t.537.159q.27.072.544.129t.556.1q.3.035.608.052t.61.016q.305,0,.611-.017t.609-.048q.268-.045.535-.1t.531-.129q.264-.072.523-.158t.512-.188q.179-.089.357-.182t.353-.194q.175-.1.344-.209T12.816.77c-.007,0,.006-.007.029-.026l.09-.073L13.03.6l.044-.035a1.828,1.828,0,0,1,1.343-.5,1.775,1.775,0,0,1,1.135.53,1.745,1.745,0,0,1,.514,1.131,1.76,1.76,0,0,1-.521,1.307,11.041,11.041,0,0,1-3.52,2.007,12.239,12.239,0,0,1-4.013.686,11.8,11.8,0,0,1-4-.677A10.33,10.33,0,0,1,.517,2.965M6.9,2.16l.062.009.029,0-.017,0L6.9,2.16" transform="translate(67.106 73.198)" fill="#323232"/>
        <path id="Path_336" data-name="Path 336" d="M4.432,3.533q-.537.089-1.086.169t-1.1.155l-1.114.15Q.57,4.082.011,4.162a1.507,1.507,0,0,1,.01-.429,1.312,1.312,0,0,1,.141-.406,1.358,1.358,0,0,1,.287-.36A1.772,1.772,0,0,1,.9,2.677,29.625,29.625,0,0,1,16.246.144,38.593,38.593,0,0,1,31.168,4.923,47.536,47.536,0,0,1,43.674,14.979a42.353,42.353,0,0,1,8.1,13.295,30.1,30.1,0,0,1,1.219,4.257,29.457,29.457,0,0,1,.572,4.362,28.886,28.886,0,0,1-.09,4.4,28.518,28.518,0,0,1-.768,4.36,1.773,1.773,0,0,1-.293.627,1.472,1.472,0,0,1-.452.4,1.61,1.61,0,0,1-.552.189,1.909,1.909,0,0,1-.591,0c.13-.416.246-.838.34-1.267a11.392,11.392,0,0,0,.211-1.31,9.632,9.632,0,0,0,.041-1.359,9.116,9.116,0,0,0-.17-1.415,9.116,9.116,0,0,1,.17,1.415,9.632,9.632,0,0,1-.041,1.359,11.392,11.392,0,0,1-.211,1.31c-.094.429-.21.851-.34,1.267a2.035,2.035,0,0,1-.668-.231,1.8,1.8,0,0,1-.537-.451,1.551,1.551,0,0,1-.3-.646,1.769,1.769,0,0,1,.029-.813,25.8,25.8,0,0,0-.322-13.857A34.859,34.859,0,0,0,42.25,18.537,44.418,44.418,0,0,0,31.3,9.124,39.3,39.3,0,0,0,18.419,4a28.662,28.662,0,0,0-4-.482,27.056,27.056,0,0,0-4.019.1,25.125,25.125,0,0,0-3.949.713A23.384,23.384,0,0,0,2.661,5.694a1.814,1.814,0,0,1-.954.169,1.8,1.8,0,0,1-.821-.3,2.073,2.073,0,0,1-.6-.619,1.886,1.886,0,0,1-.28-.779q.559-.08,1.119-.155l1.114-.15q.555-.076,1.1-.155t1.086-.169" transform="translate(46.97 0)" fill="#323232"/>
        <path id="Path_337" data-name="Path 337" d="M0,0V.007s0,0,0,.007V.043S0,.034,0,.03,0,.021,0,.018s0-.007,0-.01A.052.052,0,0,1,0,0" transform="translate(42.304 76.665)" fill="#323232"/>
        <path id="Path_338" data-name="Path 338" d="M5.484,11.4A16.072,16.072,0,0,1,3.575,9.47,16.773,16.773,0,0,1,2,7.246,16.822,16.822,0,0,1,.813,4.8a16.2,16.2,0,0,1-.772-2.6,2.033,2.033,0,0,1-.022-.681,1.972,1.972,0,0,1,.2-.645A1.658,1.658,0,0,1,.639.348a1.5,1.5,0,0,1,.622-.3A1.919,1.919,0,0,1,1.938.018a1.984,1.984,0,0,1,.652.2,1.67,1.67,0,0,1,.525.421,1.438,1.438,0,0,1,.3.623q.068.331.15.658t.179.65q.1.323.208.641t.237.631l.006.015v0a14.1,14.1,0,0,0,.714,1.424,13.767,13.767,0,0,0,.87,1.33A13.376,13.376,0,0,0,6.794,7.838a12.981,12.981,0,0,0,1.162,1.09,1.722,1.722,0,0,1,.525,1.3,1.753,1.753,0,0,1-.522,1.133,1.735,1.735,0,0,1-2.474.038" transform="translate(74.733 50.916)" fill="#323232"/>
        <path id="Path_339" data-name="Path 339" d="M.933.287a15.327,15.327,0,0,0,.733,1.371q.4.671.881,1.318T3.578,4.259q.553.635,1.183,1.264-.63-.63-1.183-1.264T2.547,2.976q-.478-.649-.881-1.318A15.327,15.327,0,0,1,.933.287,1.941,1.941,0,0,1,1.539.038a1.542,1.542,0,0,1,.63-.011A1.326,1.326,0,0,1,2.748.3,1.677,1.677,0,0,1,3.2.9,25.721,25.721,0,0,0,8.565,8.14c2.151,2.129,4.557,4.055,6.892,6.03a47.674,47.674,0,0,1,6.47,6.316,20.174,20.174,0,0,1,4.094,8.1,1.838,1.838,0,0,1,.041.657,1.586,1.586,0,0,1-.178.556,1.7,1.7,0,0,1-.346.443,1.938,1.938,0,0,1-.464.315v0a2.037,2.037,0,0,1-.717.2,1.75,1.75,0,0,1-.721-.085,1.447,1.447,0,0,1-.608-.4,1.7,1.7,0,0,1-.377-.752,16.21,16.21,0,0,0-1.592-4.079,21.908,21.908,0,0,0-2.484-3.563,36.061,36.061,0,0,0-3.056-3.16c-1.078-1-2.2-1.95-3.308-2.872-1.147-.954-2.309-1.909-3.448-2.893S6.51,10.955,5.456,9.891A31.975,31.975,0,0,1,2.52,6.513,22.629,22.629,0,0,1,.185,2.661,1.854,1.854,0,0,1,0,1.936a1.7,1.7,0,0,1,.108-.663A1.9,1.9,0,0,1,.442.71,2.092,2.092,0,0,1,.933.287" transform="translate(86.383 94.273)" fill="#323232"/>
      </g>
    </g>
    <g id="Group_168" data-name="Group 168" transform="translate(374.3 7642.297)">
      <g id="Group_167" data-name="Group 167" transform="translate(0 0)" clip-path="url(#clip-path-2)">
        <path id="Path_340" data-name="Path 340" d="M36.1,5.45h2.24V7.69a1.07,1.07,0,1,0,2.139,0V5.45h2.24a1.07,1.07,0,0,0,0-2.139h-2.24V1.071a1.07,1.07,0,0,0-2.139,0v2.24H36.1a1.07,1.07,0,0,0,0,2.139" transform="translate(-16.095 0)" fill="#37434c"/>
        <path id="Path_341" data-name="Path 341" d="M.522,46.515l2.742,1.5,1.5,2.742a1.078,1.078,0,0,0,1.847,0l1.5-2.742,2.742-1.5a1.078,1.078,0,0,0,0-1.847l-2.742-1.5-1.5-2.742a.935.935,0,0,0-.922-.522.934.934,0,0,0-.925.522l-1.5,2.742-2.742,1.5a1.078,1.078,0,0,0,0,1.847M3.3,45.592a6.031,6.031,0,0,0,1.508-.88A6.026,6.026,0,0,0,5.688,43.2a6.028,6.028,0,0,0,.88,1.508,6.005,6.005,0,0,0,1.508.88,6.032,6.032,0,0,0-1.508.88,6.012,6.012,0,0,0-.88,1.508,6.043,6.043,0,0,0-.879-1.508,6.015,6.015,0,0,0-1.508-.88" transform="translate(0 -18.331)" fill="#37434c"/>
      </g>
    </g>
  </g>
</svg>
