<svg xmlns="http://www.w3.org/2000/svg" xmlns:xlink="http://www.w3.org/1999/xlink" width="483" height="110.608" viewBox="0 0 483 110.608">
  <defs>
    <clipPath id="clip-path">
      <rect id="Rectangle_119" data-name="Rectangle 119" width="110.602" height="110.608" fill="none"/>
    </clipPath>
    <clipPath id="clip-path-2">
      <rect id="Rectangle_122" data-name="Rectangle 122" width="32" height="13" fill="none"/>
    </clipPath>
    <clipPath id="clip-path-5">
      <rect id="Rectangle_127" data-name="Rectangle 127" width="109.825" height="109.882" fill="none"/>
    </clipPath>
    <clipPath id="clip-path-7">
      <rect id="Rectangle_121" data-name="Rectangle 121" width="110.551" height="110.608" fill="none"/>
    </clipPath>
  </defs>
  <g id="Group_201" data-name="Group 201" transform="translate(-707 -598)">
    <g id="受給までが早い" transform="translate(706.613 598)">
      <text id="受給までが_早い" data-name="受給までが
早い" transform="translate(55.688 41.424)" fill="#37434c" font-size="12" font-family="PingFangSC-Semibold, PingFang SC" font-weight="600"><tspan x="-30" y="0">受給までが</tspan><tspan y="0" font-family="Helvetica-Bold, Helvetica" font-weight="700"></tspan><tspan x="-12" y="18">早い</tspan></text>
      <g id="Group_78" data-name="Group 78" transform="translate(0.387)">
        <g id="Group_77" data-name="Group 77" clip-path="url(#clip-path)">
          <path id="Path_112" data-name="Path 112" d="M55.275,110.619a55.275,55.275,0,1,1,55.275-55.275,55.338,55.338,0,0,1-55.275,55.275m0-96.178a40.9,40.9,0,1,0,40.9,40.9,40.949,40.949,0,0,0-40.9-40.9" transform="translate(0 -0.011)" fill="#eae8f0"/>
          <path id="Path_113" data-name="Path 113" d="M92.323,101.483a7.187,7.187,0,0,1-4.231-13A40.87,40.87,0,0,0,105,55.33l0-.107A40.918,40.918,0,0,0,64.061,14.372l-.147,0A7.186,7.186,0,0,1,63.889,0l.152,0a55.288,55.288,0,0,1,55.328,55.183l0,.147a55.33,55.33,0,0,1-22.828,44.778,7.155,7.155,0,0,1-4.22,1.374" transform="translate(-8.768)" fill="#f9ce00"/>
        </g>
      </g>
      <g id="Group_84" data-name="Group 84" transform="translate(39.688 69.778)">
        <g id="Group_83" data-name="Group 83" transform="translate(0 0)" clip-path="url(#clip-path-2)">
          <path id="Path_118" data-name="Path 118" d="M7.655,8.114H9.171V9.37a.456.456,0,0,1-.108.3.392.392,0,0,1-.316.127H7.655v3.1h-1.8V9.8H.775a.544.544,0,0,1-.367-.136.594.594,0,0,1-.2-.339L0,8.228,5.705.191H7.655ZM5.855,3.96q0-.281.016-.606t.059-.676L2.191,8.114H5.855Z" transform="translate(0 -0.059)" fill="#ffca28"/>
          <path id="Path_119" data-name="Path 119" d="M23.979,6.491a10.933,10.933,0,0,1-.338,2.886,6.066,6.066,0,0,1-.932,2.025,3.838,3.838,0,0,1-1.408,1.19,4,4,0,0,1-1.753.391,3.943,3.943,0,0,1-1.745-.391,3.817,3.817,0,0,1-1.4-1.19,6.061,6.061,0,0,1-.925-2.025,11.115,11.115,0,0,1-.333-2.886,11.1,11.1,0,0,1,.333-2.89,6.059,6.059,0,0,1,.925-2.021A3.81,3.81,0,0,1,17.8.391,3.943,3.943,0,0,1,19.548,0,4,4,0,0,1,21.3.391a3.832,3.832,0,0,1,1.408,1.19A6.064,6.064,0,0,1,23.641,3.6a10.923,10.923,0,0,1,.338,2.89m-2.124,0a11.29,11.29,0,0,0-.192-2.283,4.725,4.725,0,0,0-.512-1.44,1.914,1.914,0,0,0-.737-.752,1.868,1.868,0,0,0-.867-.215,1.825,1.825,0,0,0-.854.215,1.9,1.9,0,0,0-.729.752,4.755,4.755,0,0,0-.5,1.44,11.518,11.518,0,0,0-.188,2.283,11.526,11.526,0,0,0,.188,2.284,4.755,4.755,0,0,0,.5,1.44,1.9,1.9,0,0,0,.729.752,1.825,1.825,0,0,0,.854.215,1.868,1.868,0,0,0,.867-.215,1.914,1.914,0,0,0,.737-.752,4.725,4.725,0,0,0,.512-1.44,11.3,11.3,0,0,0,.192-2.284" transform="translate(-5.264 0)" fill="#ffca28"/>
          <path id="Path_120" data-name="Path 120" d="M35.659,3.218a3.512,3.512,0,0,1-.229,1.3,3.084,3.084,0,0,1-.612.988,2.676,2.676,0,0,1-1.95.847,2.761,2.761,0,0,1-1.107-.22,2.535,2.535,0,0,1-.879-.628,2.927,2.927,0,0,1-.578-.988,3.822,3.822,0,0,1-.209-1.3A4.03,4.03,0,0,1,30.3,1.883,2.956,2.956,0,0,1,30.882.872a2.557,2.557,0,0,1,.879-.636,2.857,2.857,0,0,1,2.219,0,2.577,2.577,0,0,1,.887.636,2.9,2.9,0,0,1,.583,1.011,4.029,4.029,0,0,1,.209,1.335M39.666.486a1.122,1.122,0,0,1,.25-.237.715.715,0,0,1,.416-.105h1.491L32.878,12.52a.828.828,0,0,1-.255.233.709.709,0,0,1-.371.092H30.72Zm-5.6,2.732a3.38,3.38,0,0,0-.091-.853,1.564,1.564,0,0,0-.255-.553.938.938,0,0,0-.383-.3,1.215,1.215,0,0,0-.471-.092,1.176,1.176,0,0,0-.465.092.918.918,0,0,0-.376.3,1.56,1.56,0,0,0-.245.553,3.528,3.528,0,0,0-.087.853,3.273,3.273,0,0,0,.087.821,1.462,1.462,0,0,0,.245.531.9.9,0,0,0,.376.29,1.225,1.225,0,0,0,.465.088,1.265,1.265,0,0,0,.471-.088.919.919,0,0,0,.383-.29,1.467,1.467,0,0,0,.255-.531,3.135,3.135,0,0,0,.091-.821m8.387,6.64a3.519,3.519,0,0,1-.229,1.3,3.081,3.081,0,0,1-.612.988,2.715,2.715,0,0,1-.891.632A2.6,2.6,0,0,1,39.666,13a2.718,2.718,0,0,1-1.108-.224,2.584,2.584,0,0,1-.879-.632,2.934,2.934,0,0,1-.578-.988,3.829,3.829,0,0,1-.209-1.3A4.025,4.025,0,0,1,37.1,8.524a2.954,2.954,0,0,1,.578-1.011,2.559,2.559,0,0,1,.879-.637,2.718,2.718,0,0,1,1.108-.224,2.748,2.748,0,0,1,1.113.224,2.586,2.586,0,0,1,.886.637,2.88,2.88,0,0,1,.583,1.011,4.025,4.025,0,0,1,.209,1.334m-1.582,0a3.245,3.245,0,0,0-.1-.852,1.629,1.629,0,0,0-.259-.553.936.936,0,0,0-.383-.3,1.211,1.211,0,0,0-.47-.092,1.177,1.177,0,0,0-.466.092.884.884,0,0,0-.371.3,1.663,1.663,0,0,0-.245.553,3.348,3.348,0,0,0-.091.852,3.158,3.158,0,0,0,.091.826,1.563,1.563,0,0,0,.245.536.871.871,0,0,0,.371.289,1.212,1.212,0,0,0,.466.088,1.248,1.248,0,0,0,.47-.088.923.923,0,0,0,.383-.289,1.533,1.533,0,0,0,.259-.536,3.06,3.06,0,0,0,.1-.826" transform="translate(-10.456 -0.004)" fill="#ffca28"/>
        </g>
      </g>
    </g>
    <g id="書類作成" transform="translate(830.892 598)">
      <text id="書類作成が_楽だった" data-name="書類作成が
楽だった" transform="translate(55.301 41.627)" fill="#37434c" font-size="12" font-family="PingFangSC-Semibold, PingFang SC" font-weight="600"><tspan x="-30" y="0">書類作成が</tspan><tspan y="0" font-family="Helvetica-Bold, Helvetica" font-weight="700"></tspan><tspan x="-24" y="18">楽だった</tspan></text>
      <g id="Group_76" data-name="Group 76" transform="translate(0)">
        <g id="Group_75" data-name="Group 75" clip-path="url(#clip-path)">
          <path id="Path_110" data-name="Path 110" d="M55.275,110.619a55.275,55.275,0,1,1,55.275-55.275,55.338,55.338,0,0,1-55.275,55.275m0-96.178a40.9,40.9,0,1,0,40.9,40.9,40.949,40.949,0,0,0-40.9-40.9" transform="translate(0 -0.011)" fill="#eae8f0"/>
          <path id="Path_111" data-name="Path 111" d="M112.184,62.391A7.187,7.187,0,0,1,105,55.224,40.919,40.919,0,0,0,64.064,14.372l-.15,0A7.186,7.186,0,0,1,63.858,0l.183,0A55.29,55.29,0,0,1,119.37,55.185a7.186,7.186,0,0,1-7.167,7.206Z" transform="translate(-8.768 0)" fill="#f9ce00"/>
        </g>
      </g>
      <g id="Group_86" data-name="Group 86" transform="translate(39.301 69.981)">
        <g id="Group_85" data-name="Group 85" transform="translate(0 0)" clip-path="url(#clip-path-2)">
          <path id="Path_121" data-name="Path 121" d="M4.384,0A4.448,4.448,0,0,1,5.933.259a3.462,3.462,0,0,1,1.2.733,3.314,3.314,0,0,1,.778,1.143,3.792,3.792,0,0,1,.28,1.484,4.11,4.11,0,0,1-.2,1.3A5.539,5.539,0,0,1,7.46,6.061a7.656,7.656,0,0,1-.783,1.054q-.449.51-.94,1.037L2.979,11.076a6.483,6.483,0,0,1,.8-.189,4.53,4.53,0,0,1,.745-.065h3.14a.727.727,0,0,1,.538.2.7.7,0,0,1,.2.522v1.3H0v-.721a1.319,1.319,0,0,1,.088-.456,1.283,1.283,0,0,1,.284-.439L4.088,7.36q.464-.491.834-.939a6.362,6.362,0,0,0,.617-.887,4.133,4.133,0,0,0,.381-.892,3.4,3.4,0,0,0,.132-.953,2.329,2.329,0,0,0-.127-.8A1.573,1.573,0,0,0,5.56,2.3,1.509,1.509,0,0,0,5,1.946a2.133,2.133,0,0,0-.733-.119,1.9,1.9,0,0,0-1.24.4,2.077,2.077,0,0,0-.681,1.063.891.891,0,0,1-.279.479.752.752,0,0,1-.474.145,1.681,1.681,0,0,1-.279-.026l-1.1-.2A4.825,4.825,0,0,1,.7,2.078,3.811,3.811,0,0,1,1.612.926,3.726,3.726,0,0,1,2.865.233,4.821,4.821,0,0,1,4.384,0" transform="translate(0 0)" fill="#ffca28"/>
          <path id="Path_122" data-name="Path 122" d="M22.431,1.126a1.035,1.035,0,0,1-.284.756,1.282,1.282,0,0,1-.944.29H17.835L17.4,4.825a7.319,7.319,0,0,1,1.514-.176,4.462,4.462,0,0,1,1.7.3,3.417,3.417,0,0,1,1.985,2.059,4.5,4.5,0,0,1,.254,1.524,4.818,4.818,0,0,1-.343,1.844,4.182,4.182,0,0,1-.952,1.428,4.277,4.277,0,0,1-1.443.918,4.973,4.973,0,0,1-1.816.324,4.705,4.705,0,0,1-1.092-.122,5.271,5.271,0,0,1-.969-.33,5.375,5.375,0,0,1-.837-.474,5.259,5.259,0,0,1-.69-.567l.643-.921a.625.625,0,0,1,.542-.3.776.776,0,0,1,.427.141c.144.094.311.2.5.307a4.262,4.262,0,0,0,.668.308,2.676,2.676,0,0,0,.923.141,2.51,2.51,0,0,0,1.015-.193,1.991,1.991,0,0,0,.732-.541,2.341,2.341,0,0,0,.44-.825,3.506,3.506,0,0,0,.148-1.041,2.2,2.2,0,0,0-.58-1.621,2.305,2.305,0,0,0-1.705-.584,5.082,5.082,0,0,0-1.786.334l-1.3-.387L16.388.2h6.043Z" transform="translate(-4.954 -0.063)" fill="#ffca28"/>
          <path id="Path_123" data-name="Path 123" d="M34.971,3.218a3.463,3.463,0,0,1-.233,1.3,3.077,3.077,0,0,1-.622.988,2.737,2.737,0,0,1-1.981.847,2.845,2.845,0,0,1-1.125-.22,2.575,2.575,0,0,1-.893-.628,2.917,2.917,0,0,1-.588-.988,3.767,3.767,0,0,1-.212-1.3,3.971,3.971,0,0,1,.212-1.335A2.945,2.945,0,0,1,30.117.872,2.6,2.6,0,0,1,31.01.236a2.946,2.946,0,0,1,2.255,0,2.618,2.618,0,0,1,.9.636,2.891,2.891,0,0,1,.592,1.011,3.971,3.971,0,0,1,.212,1.335M39.042.486A1.133,1.133,0,0,1,39.3.249a.737.737,0,0,1,.423-.105h1.515L32.144,12.52a.836.836,0,0,1-.259.233.73.73,0,0,1-.377.092H29.952ZM33.355,3.218a3.329,3.329,0,0,0-.093-.853A1.553,1.553,0,0,0,33,1.813a.956.956,0,0,0-.389-.3,1.249,1.249,0,0,0-.479-.092,1.212,1.212,0,0,0-.473.092.94.94,0,0,0-.382.3,1.548,1.548,0,0,0-.249.553,3.475,3.475,0,0,0-.088.853,3.223,3.223,0,0,0,.088.821,1.452,1.452,0,0,0,.249.531.916.916,0,0,0,.382.29,1.262,1.262,0,0,0,.473.088,1.3,1.3,0,0,0,.479-.088A.933.933,0,0,0,33,4.571a1.458,1.458,0,0,0,.259-.531,3.088,3.088,0,0,0,.093-.821m8.523,6.64a3.469,3.469,0,0,1-.233,1.3,3.074,3.074,0,0,1-.622.988,2.759,2.759,0,0,1-.905.632A2.677,2.677,0,0,1,39.042,13a2.8,2.8,0,0,1-1.126-.224,2.616,2.616,0,0,1-.893-.632,2.915,2.915,0,0,1-.588-.988,3.774,3.774,0,0,1-.212-1.3,3.967,3.967,0,0,1,.212-1.334,2.933,2.933,0,0,1,.588-1.011,2.59,2.59,0,0,1,.893-.637,2.8,2.8,0,0,1,1.126-.224,2.832,2.832,0,0,1,1.131.224,2.627,2.627,0,0,1,.9.637,2.869,2.869,0,0,1,.592,1.011,3.967,3.967,0,0,1,.212,1.334m-1.608,0a3.2,3.2,0,0,0-.1-.852,1.618,1.618,0,0,0-.263-.553.949.949,0,0,0-.389-.3,1.248,1.248,0,0,0-.478-.092,1.213,1.213,0,0,0-.473.092.9.9,0,0,0-.377.3,1.65,1.65,0,0,0-.249.553,3.3,3.3,0,0,0-.093.852,3.11,3.11,0,0,0,.093.826,1.552,1.552,0,0,0,.249.536.883.883,0,0,0,.377.289,1.249,1.249,0,0,0,.473.088,1.286,1.286,0,0,0,.478-.088.937.937,0,0,0,.389-.289,1.523,1.523,0,0,0,.263-.536,3.015,3.015,0,0,0,.1-.826" transform="translate(-9.877 -0.003)" fill="#ffca28"/>
        </g>
      </g>
    </g>
    <g id="担当者" transform="translate(955.17 598)">
      <g id="Group_92" data-name="Group 92" transform="translate(2.607)">
        <g id="Group_91" data-name="Group 91" clip-path="url(#clip-path-5)">
          <path id="Path_131" data-name="Path 131" d="M54.912,109.893A54.912,54.912,0,1,1,109.825,54.98a54.975,54.975,0,0,1-54.912,54.912m0-95.547A40.634,40.634,0,1,0,95.547,54.98,40.681,40.681,0,0,0,54.912,14.346" transform="translate(0 -0.011)" fill="#eae8f0"/>
          <path id="Path_132" data-name="Path 132" d="M109.438,47.175a7.142,7.142,0,0,1-6.781-4.914A40.652,40.652,0,0,0,64.013,14.278l-.146,0A7.139,7.139,0,0,1,63.813,0l.18,0a55.012,55.012,0,0,1,52.229,37.807,7.145,7.145,0,0,1-6.784,9.368" transform="translate(-9.083)" fill="#f9ce00"/>
        </g>
      </g>
      <text id="担当者が_相談に乗ってくれる" data-name="担当者が
相談に乗ってくれる" transform="translate(56.83 41.627)" fill="#37434c" font-size="12" font-family="PingFangSC-Semibold, PingFang SC" font-weight="600"><tspan x="-24" y="0">担当者が</tspan><tspan y="0" font-family="Helvetica-Bold, Helvetica" font-weight="700"></tspan><tspan x="-54" y="18">相談に乗ってくれる</tspan></text>
      <g id="Group_88" data-name="Group 88" transform="translate(41.131 69.981)">
        <g id="Group_87" data-name="Group 87" transform="translate(0 0)" clip-path="url(#clip-path-2)">
          <path id="Path_124" data-name="Path 124" d="M4.384,0A4.448,4.448,0,0,1,5.933.259a3.462,3.462,0,0,1,1.2.733,3.325,3.325,0,0,1,.779,1.143,3.8,3.8,0,0,1,.279,1.484,4.092,4.092,0,0,1-.2,1.3A5.5,5.5,0,0,1,7.46,6.061a7.656,7.656,0,0,1-.783,1.054q-.449.51-.94,1.037L2.979,11.076a6.551,6.551,0,0,1,.8-.189,4.531,4.531,0,0,1,.745-.065h3.14a.73.73,0,0,1,.538.2.7.7,0,0,1,.2.522v1.3H0v-.721a1.29,1.29,0,0,1,.089-.456,1.271,1.271,0,0,1,.283-.439L4.087,7.36q.465-.491.834-.939a6.427,6.427,0,0,0,.618-.887,4.166,4.166,0,0,0,.381-.892,3.4,3.4,0,0,0,.131-.953,2.329,2.329,0,0,0-.127-.8A1.573,1.573,0,0,0,5.56,2.3,1.509,1.509,0,0,0,5,1.946a2.131,2.131,0,0,0-.733-.119,1.9,1.9,0,0,0-1.239.4,2.074,2.074,0,0,0-.682,1.063.887.887,0,0,1-.279.479.752.752,0,0,1-.474.145,1.687,1.687,0,0,1-.279-.026l-1.1-.2A4.825,4.825,0,0,1,.7,2.078,3.821,3.821,0,0,1,1.612.926,3.733,3.733,0,0,1,2.865.233,4.815,4.815,0,0,1,4.384,0" transform="translate(0 0)" fill="#ffca28"/>
          <path id="Path_125" data-name="Path 125" d="M23.342,6.491A10.773,10.773,0,0,1,23,9.377a6.023,6.023,0,0,1-.948,2.025,3.878,3.878,0,0,1-1.43,1.19,4.118,4.118,0,0,1-1.782.391,4.055,4.055,0,0,1-1.773-.391A3.852,3.852,0,0,1,15.65,11.4a6,6,0,0,1-.94-2.025,10.95,10.95,0,0,1-.338-2.886A10.939,10.939,0,0,1,14.71,3.6a6,6,0,0,1,.94-2.021A3.846,3.846,0,0,1,17.067.391,4.055,4.055,0,0,1,18.841,0a4.118,4.118,0,0,1,1.782.391,3.872,3.872,0,0,1,1.43,1.19A6.021,6.021,0,0,1,23,3.6a10.762,10.762,0,0,1,.342,2.89m-2.158,0a11.069,11.069,0,0,0-.195-2.283,4.677,4.677,0,0,0-.521-1.44A1.817,1.817,0,0,0,18.841,1.8a1.881,1.881,0,0,0-.868.215,1.919,1.919,0,0,0-.741.752,4.706,4.706,0,0,0-.512,1.44,11.4,11.4,0,0,0-.19,2.283,11.4,11.4,0,0,0,.19,2.284,4.706,4.706,0,0,0,.512,1.44,1.919,1.919,0,0,0,.741.752,1.881,1.881,0,0,0,.868.215,1.817,1.817,0,0,0,1.629-.966,4.677,4.677,0,0,0,.521-1.44,11.076,11.076,0,0,0,.195-2.284" transform="translate(-4.842 0)" fill="#ffca28"/>
          <path id="Path_126" data-name="Path 126" d="M34.971,3.218a3.463,3.463,0,0,1-.233,1.3,3.077,3.077,0,0,1-.622.988,2.737,2.737,0,0,1-1.981.847,2.843,2.843,0,0,1-1.126-.22,2.56,2.56,0,0,1-.893-.628,2.9,2.9,0,0,1-.588-.988,3.767,3.767,0,0,1-.212-1.3,3.971,3.971,0,0,1,.212-1.335A2.925,2.925,0,0,1,30.117.872,2.582,2.582,0,0,1,31.01.236,2.8,2.8,0,0,1,32.136.012a2.826,2.826,0,0,1,1.13.224,2.621,2.621,0,0,1,.9.636,2.891,2.891,0,0,1,.592,1.011,3.971,3.971,0,0,1,.212,1.335M39.042.486A1.133,1.133,0,0,1,39.3.249a.736.736,0,0,1,.423-.105h1.515L32.144,12.52a.836.836,0,0,1-.259.233.729.729,0,0,1-.376.092H29.952ZM33.355,3.218a3.329,3.329,0,0,0-.093-.853A1.553,1.553,0,0,0,33,1.813a.961.961,0,0,0-.389-.3,1.248,1.248,0,0,0-.478-.092,1.219,1.219,0,0,0-.474.092.932.932,0,0,0-.381.3,1.549,1.549,0,0,0-.25.553,3.471,3.471,0,0,0-.089.853,3.22,3.22,0,0,0,.089.821,1.452,1.452,0,0,0,.25.531.908.908,0,0,0,.381.29,1.269,1.269,0,0,0,.474.088,1.3,1.3,0,0,0,.478-.088A.937.937,0,0,0,33,4.571a1.458,1.458,0,0,0,.259-.531,3.088,3.088,0,0,0,.093-.821m8.523,6.64a3.469,3.469,0,0,1-.233,1.3,3.074,3.074,0,0,1-.622.988,2.754,2.754,0,0,1-.906.632A2.672,2.672,0,0,1,39.042,13a2.794,2.794,0,0,1-1.125-.224,2.612,2.612,0,0,1-.893-.632,2.9,2.9,0,0,1-.588-.988,3.774,3.774,0,0,1-.212-1.3,3.967,3.967,0,0,1,.212-1.334,2.923,2.923,0,0,1,.588-1.011,2.586,2.586,0,0,1,.893-.637,2.794,2.794,0,0,1,1.125-.224,2.826,2.826,0,0,1,1.13.224,2.617,2.617,0,0,1,.9.637,2.89,2.89,0,0,1,.593,1.011,3.984,3.984,0,0,1,.212,1.334m-1.608,0a3.166,3.166,0,0,0-.1-.852,1.6,1.6,0,0,0-.262-.553.95.95,0,0,0-.39-.3,1.248,1.248,0,0,0-.478-.092,1.219,1.219,0,0,0-.474.092.9.9,0,0,0-.377.3,1.65,1.65,0,0,0-.249.553,3.3,3.3,0,0,0-.093.852,3.11,3.11,0,0,0,.093.826,1.552,1.552,0,0,0,.249.536.889.889,0,0,0,.377.289,1.255,1.255,0,0,0,.474.088,1.286,1.286,0,0,0,.478-.088.939.939,0,0,0,.39-.289,1.511,1.511,0,0,0,.262-.536,2.986,2.986,0,0,0,.1-.826" transform="translate(-9.877 -0.003)" fill="#ffca28"/>
        </g>
      </g>
    </g>
    <g id="納得できる額" transform="translate(1079.449 598)">
      <g id="Group_82" data-name="Group 82" transform="translate(0)">
        <g id="Group_81" data-name="Group 81" clip-path="url(#clip-path-7)">
          <path id="Path_116" data-name="Path 116" d="M55.275,110.619a55.275,55.275,0,1,1,55.275-55.275,55.338,55.338,0,0,1-55.275,55.275m0-96.178a40.9,40.9,0,1,0,40.9,40.9,40.95,40.95,0,0,0-40.9-40.9" transform="translate(0 -0.011)" fill="#eae8f0"/>
          <path id="Path_117" data-name="Path 117" d="M102.892,34.077a7.175,7.175,0,0,1-5.8-2.937A40.87,40.87,0,0,0,64.064,14.373l-.15,0A7.186,7.186,0,0,1,63.858,0l.183,0a55.321,55.321,0,0,1,44.641,22.64,7.187,7.187,0,0,1-5.789,11.436" transform="translate(-8.768 0)" fill="#f9ce00"/>
        </g>
      </g>
      <g id="Group_90" data-name="Group 90" transform="translate(39.275 69.981)">
        <g id="Group_89" data-name="Group 89" transform="translate(0 0)" clip-path="url(#clip-path-2)">
          <path id="Path_127" data-name="Path 127" d="M.9,11.267H3.434V3.857q0-.431.026-.9l-1.8,1.529a.633.633,0,0,1-.229.132.8.8,0,0,1-.229.035.668.668,0,0,1-.316-.075A.586.586,0,0,1,.675,4.4L0,3.462,3.814.166H5.57v11.1H7.819v1.626H.9Z" transform="translate(0 -0.052)" fill="#ffca28"/>
          <path id="Path_128" data-name="Path 128" d="M21.566,1.114a1.026,1.026,0,0,1-.289.756,1.33,1.33,0,0,1-.965.29H16.87L16.42,4.815a7.636,7.636,0,0,1,1.548-.176,4.637,4.637,0,0,1,1.734.3,3.556,3.556,0,0,1,1.259.826A3.483,3.483,0,0,1,21.731,7a4.4,4.4,0,0,1,.26,1.525,4.733,4.733,0,0,1-.35,1.846,4.182,4.182,0,0,1-.973,1.429,4.389,4.389,0,0,1-1.474.919,5.175,5.175,0,0,1-1.855.324,4.905,4.905,0,0,1-1.116-.123,5.5,5.5,0,0,1-1.846-.8,5.351,5.351,0,0,1-.7-.567l.657-.922a.643.643,0,0,1,.554-.3.8.8,0,0,1,.436.141q.222.14.515.307a4.4,4.4,0,0,0,.683.308,2.79,2.79,0,0,0,.943.141,2.611,2.611,0,0,0,1.037-.194,2.01,2.01,0,0,0,.748-.541,2.317,2.317,0,0,0,.45-.826,3.441,3.441,0,0,0,.151-1.042A2.175,2.175,0,0,0,19.253,7a2.385,2.385,0,0,0-1.743-.585,5.293,5.293,0,0,0-1.825.335l-1.332-.387L15.391.191h6.175Z" transform="translate(-4.407 -0.059)" fill="#ffca28"/>
          <path id="Path_129" data-name="Path 129" d="M34.061,3.209a3.4,3.4,0,0,1-.238,1.3,3.071,3.071,0,0,1-.636.989,2.762,2.762,0,0,1-.926.628,2.827,2.827,0,0,1-1.1.22,2.959,2.959,0,0,1-1.151-.22A2.617,2.617,0,0,1,29.1,5.5a2.888,2.888,0,0,1-.6-.989,3.7,3.7,0,0,1-.217-1.3A3.9,3.9,0,0,1,28.5,1.872,2.914,2.914,0,0,1,29.1.861a2.638,2.638,0,0,1,.912-.636A2.912,2.912,0,0,1,31.164,0a2.941,2.941,0,0,1,1.155.225,2.679,2.679,0,0,1,.921.636,2.881,2.881,0,0,1,.605,1.012,3.9,3.9,0,0,1,.217,1.336M38.221.474a1.148,1.148,0,0,1,.26-.237.764.764,0,0,1,.432-.105h1.548L31.172,12.517a.849.849,0,0,1-.264.233.757.757,0,0,1-.384.092H28.932ZM32.409,3.209a3.265,3.265,0,0,0-.095-.853A1.54,1.54,0,0,0,32.05,1.8a.979.979,0,0,0-.4-.3,1.3,1.3,0,0,0-.489-.092,1.268,1.268,0,0,0-.484.092.95.95,0,0,0-.389.3,1.535,1.535,0,0,0-.255.553,3.4,3.4,0,0,0-.091.853,3.158,3.158,0,0,0,.091.822,1.44,1.44,0,0,0,.255.532.926.926,0,0,0,.389.29,1.321,1.321,0,0,0,.484.088,1.356,1.356,0,0,0,.489-.088.956.956,0,0,0,.4-.29,1.447,1.447,0,0,0,.264-.532,3.029,3.029,0,0,0,.095-.822m8.709,6.645a3.407,3.407,0,0,1-.238,1.3,3.068,3.068,0,0,1-.636.988,2.816,2.816,0,0,1-.926.633,2.78,2.78,0,0,1-1.1.224,2.908,2.908,0,0,1-1.15-.224,2.67,2.67,0,0,1-.913-.633,2.9,2.9,0,0,1-.6-.988,3.706,3.706,0,0,1-.216-1.3,3.9,3.9,0,0,1,.216-1.335,2.912,2.912,0,0,1,.6-1.012,2.643,2.643,0,0,1,.913-.637,2.908,2.908,0,0,1,1.15-.224,2.941,2.941,0,0,1,1.155.224,2.675,2.675,0,0,1,.921.637A2.88,2.88,0,0,1,40.9,8.518a3.911,3.911,0,0,1,.216,1.335m-1.643,0a3.106,3.106,0,0,0-.1-.853,1.592,1.592,0,0,0-.268-.554.969.969,0,0,0-.4-.3,1.3,1.3,0,0,0-.489-.092,1.268,1.268,0,0,0-.484.092.919.919,0,0,0-.385.3A1.635,1.635,0,0,0,37.1,9,3.234,3.234,0,0,0,37,9.853a3.05,3.05,0,0,0,.095.826,1.539,1.539,0,0,0,.255.536.907.907,0,0,0,.385.289,1.307,1.307,0,0,0,.484.088,1.339,1.339,0,0,0,.489-.088.958.958,0,0,0,.4-.289,1.5,1.5,0,0,0,.268-.536,2.93,2.93,0,0,0,.1-.826" transform="translate(-9.118 0)" fill="#ffca28"/>
        </g>
      </g>
      <text id="納得できる額を_受給できた" data-name="納得できる額を
受給できた" transform="translate(55.275 41.627)" fill="#37434c" font-size="12" font-family="PingFangSC-Semibold, PingFang SC" font-weight="600"><tspan x="-42" y="0">納得できる額を</tspan><tspan y="0" font-family="Helvetica-Bold, Helvetica" font-weight="700"></tspan><tspan x="-30" y="18">受給できた</tspan></text>
    </g>
  </g>
</svg>
