<svg id="Group_153" data-name="Group 153" xmlns="http://www.w3.org/2000/svg" xmlns:xlink="http://www.w3.org/1999/xlink" width="84.658" height="86.513" viewBox="0 0 84.658 86.513">
  <defs>
    <clipPath id="clip-path">
      <rect id="Rectangle_164" data-name="Rectangle 164" width="84.658" height="86.513" fill="none"/>
    </clipPath>
    <clipPath id="clip-path-2">
      <rect id="Rectangle_165" data-name="Rectangle 165" width="13.814" height="23.221" fill="none"/>
    </clipPath>
  </defs>
  <g id="Group_152" data-name="Group 152" clip-path="url(#clip-path)">
    <path id="Path_186" data-name="Path 186" d="M207.639,200.191s4.659-8.578,8.339-12.189,8.316-2.242,10.823,1.308,4.846,10.811,10.955,12.486c0,0,3.509-4.226,5.708.205s-1.5,8.766-3.215,10.018c0,0,1.078,1.839.859,6s-1.531,4.626-3.11,3.377-.242-6.984-.242-6.984l-3.13,6.984s-1.138,9,1.546,11.8a27.437,27.437,0,0,1-25.443.211s2.631-4.115,1.413-13.054l-2.973-5.938s1.18,7.712-1.428,7.892-2.292-6.945-1.028-10.594c0,0-3.545-1-3.629-5.928s.864-6.956,4.555-5.589" transform="translate(-184.618 -168.981)" fill="#fff"/>
    <path id="Path_187" data-name="Path 187" d="M686.882,515.442h10.97a12.619,12.619,0,0,1-1.084-7.509c.773-4,2.763-9.986,2.569-13.453a45.7,45.7,0,0,1,2.143-13.98c1.384-4.088,2.263-7.413,2.263-7.413s-3.19-1.152-4.71,1.671-2.42,9.981-5.627,14.122c0,0-3.12-3.413-5.175-1.161,0,0-1.855-1.911-3.142-.879s-1.441,2.631-.623,4.782v2.209a5.505,5.505,0,0,0-2.13,5.009,6.128,6.128,0,0,0,3.611,4.344s-3.333,5.076.934,12.258" transform="translate(-620.251 -429.867)" fill="#fff"/>
    <path id="Path_188" data-name="Path 188" d="M67.554,673.285l-.525-1.5a1.052,1.052,0,0,0-.072-.161c-3.262-5.84-.465-9.41-.349-9.554a1.015,1.015,0,0,0,.015-1.282L64.966,658.7a1.021,1.021,0,0,0-.363-.287c-.572-.268-1.038-.479-1.342-.615a36.224,36.224,0,0,0-1.986-4.267,20.752,20.752,0,0,1-1.474-3.58,1.016,1.016,0,0,0-.709-.675l-7.916-2.088a1.016,1.016,0,0,0-1.264,1.129l.529,3.626a29.3,29.3,0,0,1-23.1,0l.544-3.583a1.015,1.015,0,0,0-1.261-1.135l-7.9,2.067a1.017,1.017,0,0,0-.711.676,20.561,20.561,0,0,1-1.468,3.568,36.022,36.022,0,0,0-1.983,4.261A52.536,52.536,0,0,0,6.2,662.332C3.2,664.564,0,668.7,0,673.616a1.012,1.012,0,0,0,1.016,1.012H66.6a1.01,1.01,0,0,0,.959-1.343" transform="translate(0 -588.326)" fill="#f19f4d"/>
    <path id="Path_189" data-name="Path 189" d="M165.308,32.371a1.015,1.015,0,0,0,1.432-.182A2.1,2.1,0,0,1,168.5,31.3a2.8,2.8,0,0,1,.945.165,1.015,1.015,0,0,0,1.209-.314c.047-.061,4.716-6.15,6.963-9.111,1.868-2.461,3.836-3.709,5.851-3.709a5.593,5.593,0,0,1,1.982.383c2.877,1.09,5.941,6.871,7.413,9.649.237.448.443.836.612,1.14,1.45,2.607,6.65,4.765,7.238,5a1.008,1.008,0,0,0,.378.074,1.019,1.019,0,0,0,1.017-.964c.029-.551.319-2.064,1-2.066,1.079,0,1.676,1.59,1.68,1.6a1.016,1.016,0,0,0,1.966-.187,11.975,11.975,0,0,1,1.114-2.946c1.133-2.424,2.544-5.44,1.887-9.289-.427-2.5-2.551-4.638-4.8-6.9a32.4,32.4,0,0,1-3.7-4.172C198.595,5.807,194.588,0,188.272,0c-.1,0-.2,0-.3,0A10.46,10.46,0,0,0,179.469,4.4a10.329,10.329,0,0,0-2.662-.372c-6.653,0-9.112,7.278-10.739,12.094-.129.381-.252.747-.372,1.092a30.127,30.127,0,0,1-2.523,5.287,9.938,9.938,0,0,0-1.661,4.075c-.169,2.561,3.132,5.28,3.8,5.8" transform="translate(-146.824)" fill="#f19f4d"/>
    <path id="Path_190" data-name="Path 190" d="M695.479,462.449a1.015,1.015,0,0,0-.779-.96,5.361,5.361,0,0,0-6.081,2.947,38.834,38.834,0,0,0-1.292,3.962c-.748,2.5-2.25,7.524-3.12,8.755-.614-.455-1.164-.852-1.511-1.084a3.06,3.06,0,0,0-2.872-.361,2.96,2.96,0,0,0-.644.363,3.792,3.792,0,0,0-3.33-.845c-1.563.568-2.777,2.763-1.748,6.236a1.024,1.024,0,0,0,.084.2,4.573,4.573,0,0,0-.118,1.266,3.624,3.624,0,0,0-.426.431,6.855,6.855,0,0,0-1.459,4.234,3.577,3.577,0,0,0,1.228,2.061,9.958,9.958,0,0,1,1.877,2.567,1.012,1.012,0,0,0,.658.529,17.461,17.461,0,0,0-.976,2.662c-.736,2.872.828,6.235,2.538,8.426a1.016,1.016,0,0,0,1.6-1.25c-1.774-2.274-2.627-4.893-2.171-6.672a27.835,27.835,0,0,1,2.41-5.368,1.016,1.016,0,0,0-.022-1.057l-1.624-2.544a1.016,1.016,0,0,0-1.713,1.093l1.3,2.03c-.117.214-.262.482-.422.789a12.169,12.169,0,0,0-1.979-2.6,2.943,2.943,0,0,1-.682-.866,5.086,5.086,0,0,1,.993-2.725c.21-.25.367-.325.426-.329a18.089,18.089,0,0,1,4.762,1.236,1.016,1.016,0,0,0,.716-1.9,23.862,23.862,0,0,0-4.979-1.349,2.691,2.691,0,0,1,1.011-1.709.913.913,0,0,1,.628-.247c.925.378,3.742,1.961,4.749,2.539a1.016,1.016,0,1,0,1.011-1.762c-.12-.069-2.352-1.348-3.91-2.143a2.147,2.147,0,0,1,.977-1.41,1.082,1.082,0,0,1,.983.17c1.172.78,5.006,3.74,5.045,3.769a1.016,1.016,0,1,0,1.242-1.608c-.077-.059-.983-.758-2.041-1.561.946-1.333,1.916-4.228,3.457-9.381.492-1.647.957-3.2,1.182-3.677a3.186,3.186,0,0,1,3.064-1.913A109.57,109.57,0,0,0,690.06,474.2c-.819,3.746-1.247,6.111-1.159,7.875.016.329.063.649.112.988a10.77,10.77,0,0,1-.4,5.179,73.16,73.16,0,0,0-2.3,11.047,12.61,12.61,0,0,0,1.405,6.1,1.016,1.016,0,0,0,1.8-.948,10.475,10.475,0,0,1-1.18-4.961,72.152,72.152,0,0,1,2.234-10.685,12.7,12.7,0,0,0,.456-6.027c-.044-.3-.082-.563-.094-.8a32.918,32.918,0,0,1,1.114-7.341c.787-3.6,3.585-11.094,3.614-11.169a1.016,1.016,0,0,0-.179-1.016m-19.548,16.528c-.059.043-.116.09-.173.136-.014-1.142.38-1.831.785-1.978.262-.1.874.183,1.4.551a6.337,6.337,0,0,0-.249.645,3.064,3.064,0,0,0-1.761.645" transform="translate(-611.064 -419.42)" fill="#494949"/>
    <path id="Path_191" data-name="Path 191" d="M195.407,223.475a5.456,5.456,0,0,0-.487,1.484,19.587,19.587,0,0,0-.225,4.173c.1,2.588.2,5.263,2.752,5.263l.123,0c2.2-.083,2.516-2.028,2.506-4.115.292.553.607,1.1.947,1.622a1.013,1.013,0,0,0,.008.192c.317,2.252.711,8.321-.9,11.16l-5.038-1.858a1.016,1.016,0,1,0-.7,1.906l5.778,2.132a1.016,1.016,0,0,0,1.134-.305c2.026-2.446,2.173-7.207,2.013-10.347a14.2,14.2,0,0,0,19.9.083c-.122,2.637-.028,6.406,1.18,8.947l-1.105.5a1.016,1.016,0,0,0,.844,1.848l6.334-2.892a1.016,1.016,0,1,0-.844-1.848l-3.381,1.544c-1.747-3.566-.761-10.8-.751-10.875,0-.016,0-.031,0-.047.376-.572.722-1.164,1.042-1.768-.01,2.087.307,4.033,2.506,4.116l.123,0c2.554,0,2.654-2.676,2.752-5.263a19.588,19.588,0,0,0-.225-4.173,5.455,5.455,0,0,0-.487-1.484,4.408,4.408,0,0,0,1.235-.938c2.133-2.266,2.994-7.162,1.74-9.885a5.341,5.341,0,0,0-1.639-2.151c-.41-.457-.522-2.184-.59-3.226a17.516,17.516,0,0,0-.2-1.986,7.012,7.012,0,0,0-2.3-3.962,1.016,1.016,0,0,0-1.255,1.6,4.993,4.993,0,0,1,1.559,2.741,16.31,16.31,0,0,1,.169,1.742,19.986,19.986,0,0,0,.264,2.495c-.116.017-.226.038-.327.063l-.037-.018c-1.406-.585-2.465-3.136-3.316-5.186-.29-.7-.564-1.359-.843-1.93a16.563,16.563,0,0,0-3.48-4.514,1.016,1.016,0,0,0-1.347,1.521,14.689,14.689,0,0,1,3,3.886c.252.514.514,1.147.792,1.816.991,2.387,2.108,5.074,4.076,6.122l.007.014a1.007,1.007,0,0,0,1.386.35,1.187,1.187,0,0,1,.885-.07,2.7,2.7,0,0,1,1.349,1.546c.77,1.671.332,4.922-.785,6.835a1.512,1.512,0,0,0-1.873-.385,25.372,25.372,0,0,0,.224-3.153,1.016,1.016,0,1,0-2.032,0c0,5.2-2.675,20.057-14.562,20.057S198.742,222,198.742,216.8a1.016,1.016,0,1,0-2.032,0,25.371,25.371,0,0,0,.224,3.153,1.512,1.512,0,0,0-1.873.386c-1.117-1.912-1.555-5.164-.786-6.835a2.693,2.693,0,0,1,1.349-1.546,1.093,1.093,0,0,1,.162-.04l.012,0a1.217,1.217,0,0,1,.709.11,1.331,1.331,0,0,0,1.631-.032,52.248,52.248,0,0,0,7.388-9.766,1.016,1.016,0,0,0-1.76-1.015,52.587,52.587,0,0,1-6.6,8.884c-.072-.028-.154-.057-.243-.084a76.555,76.555,0,0,1,2.973-8.7,1.016,1.016,0,0,0-1.867-.8,77.29,77.29,0,0,0-3.235,9.6,4.657,4.657,0,0,0-2.36,2.551c-1.254,2.723-.392,7.619,1.741,9.885a4.409,4.409,0,0,0,1.235.938m34.477,5.58c-.1,2.536-.264,3.309-.722,3.309h-.046c-.454-.017-.625-.488-.518-3.356.107-2.844.553-4.145.818-4.585.23.458.576,1.789.469,4.634m-32.39,3.308h-.046c-.458,0-.626-.773-.722-3.309-.108-2.845.238-4.175.469-4.634.265.44.71,1.74.817,4.585.108,2.869-.064,3.339-.518,3.356" transform="translate(-174.409 -180.057)" fill="#494949"/>
    <path id="Path_192" data-name="Path 192" d="M492.467,360.982a.973.973,0,1,0,1.111.809.973.973,0,0,0-1.111-.809" transform="translate(-446.95 -328.155)" fill="#494949"/>
    <path id="Path_193" data-name="Path 193" d="M421.256,461.232a.973.973,0,1,0-1.111-.811.973.973,0,0,0,1.111.811" transform="translate(-381.94 -417.544)" fill="#494949"/>
    <path id="Path_194" data-name="Path 194" d="M342.685,361.792a.973.973,0,1,0,1.111-.809.972.972,0,0,0-1.111.809" transform="translate(-311.521 -328.156)" fill="#494949"/>
    <path id="Path_195" data-name="Path 195" d="M379.8,506.707a5.658,5.658,0,0,0,4.79-2.491,1.016,1.016,0,0,0-1.738-1.052,3.839,3.839,0,0,1-6.1.009,1.016,1.016,0,1,0-1.743,1.043,5.657,5.657,0,0,0,4.79,2.491" transform="translate(-340.792 -456.981)" fill="#494949"/>
    <path id="Path_196" data-name="Path 196" d="M312.049,307.725a1.016,1.016,0,0,0-.038-1.436,4.944,4.944,0,0,0-3.669-1.274,4.513,4.513,0,0,0-3.156,2.311,1.016,1.016,0,1,0,1.808.927,2.5,2.5,0,0,1,1.6-1.222,2.905,2.905,0,0,1,2.02.736,1.016,1.016,0,0,0,1.432-.042" transform="translate(-277.341 -277.26)" fill="#494949"/>
    <path id="Path_197" data-name="Path 197" d="M359.727,184.5a1.016,1.016,0,0,0,1.436.033c.018-.018,1.839-1.7,5.108.7,1.659,1.213,2.778,3.294,3.963,5.5,2.2,4.1,4.7,8.745,11.471,9.32.029,0,.058,0,.087,0a1.016,1.016,0,0,0,.085-2.028c-5.674-.482-7.7-4.259-9.854-8.258-1.3-2.412-2.521-4.691-4.553-6.176-3.7-2.706-6.661-1.526-7.711-.524a1.016,1.016,0,0,0-.033,1.436" transform="translate(-326.77 -165.382)" fill="#494949"/>
    <path id="Path_198" data-name="Path 198" d="M223.623,773.613c-.069.041-7.06,4.166-20.812,4.166s-20.743-4.125-20.811-4.165a1.016,1.016,0,0,0-1.057,1.735c.3.182,7.488,4.462,21.868,4.462s21.569-4.28,21.868-4.462a1.016,1.016,0,0,0-1.055-1.736" transform="translate(-164.051 -703.152)" fill="#494949"/>
    <path id="Path_199" data-name="Path 199" d="M330.82,48.667a1.016,1.016,0,0,0,1.418-.225,10.625,10.625,0,0,0,1.38-3.388,8.421,8.421,0,0,1,1.2-2.948,1.016,1.016,0,0,0-1.518-1.351,9.41,9.41,0,0,0-1.652,3.788,9.36,9.36,0,0,1-1.058,2.706,1.016,1.016,0,0,0,.226,1.419" transform="translate(-300.365 -36.747)" fill="#494949"/>
    <g id="Group_155" data-name="Group 155" transform="translate(70.844)">
      <g id="Group_154" data-name="Group 154" clip-path="url(#clip-path-2)">
        <path id="Path_201" data-name="Path 201" d="M65.619,3.846h.04a.8.8,0,0,0,.76-.838L66.309.761a.8.8,0,1,0-1.6.079l.11,2.246a.8.8,0,0,0,.8.761" transform="translate(-60.075 0)" fill="#f19f4d"/>
        <path id="Path_202" data-name="Path 202" d="M109.3,7.14a.8.8,0,0,0,1.028-.472l1.008-2.717a.8.8,0,0,0-1.5-.556l-1.008,2.717A.8.8,0,0,0,109.3,7.14" transform="translate(-100.985 -2.666)" fill="#f19f4d"/>
        <path id="Path_203" data-name="Path 203" d="M152.13,37.223a.8.8,0,0,0-1.131.031l-1.524,1.61a.8.8,0,1,0,1.162,1.1l1.524-1.61a.8.8,0,0,0-.031-1.131" transform="translate(-138.566 -34.354)" fill="#f19f4d"/>
        <path id="Path_204" data-name="Path 204" d="M7.742,104.527a5.521,5.521,0,0,0-1.958-.363,5.866,5.866,0,0,0-5.431,3.943,6.319,6.319,0,0,0,.443,5.014c.4.98.641,1.608.4,2.126,0,.01-.01.022-.014.032l-.51,1.259a2.392,2.392,0,0,0,1.3,3.24.8.8,0,0,0,.161.041,2.334,2.334,0,0,0,.684.1,2.482,2.482,0,0,0,2.28-1.74l.406-1.073a.786.786,0,0,0,.105-.193c.244-.644.847-.966,1.811-1.436a6.075,6.075,0,0,0,3.529-3.393,5.749,5.749,0,0,0-3.206-7.562m-4.927,13.8a.783.783,0,0,1-.274-.054.7.7,0,0,0-.1-.03c-.523-.27-.36-.888-.285-1.1l1.417.536a.922.922,0,0,1-.759.645m6.636-6.8a4.559,4.559,0,0,1-2.735,2.521,4.692,4.692,0,0,0-2.509,2.079c-.017.021-.032.043-.047.066l-1.405-.532a4.421,4.421,0,0,0-.481-3.148,4.867,4.867,0,0,1-.425-3.836,4.335,4.335,0,0,1,3.934-2.909,3.926,3.926,0,0,1,1.392.259,4.168,4.168,0,0,1,2.275,5.5" transform="translate(0 -96.704)" fill="#f19f4d"/>
      </g>
    </g>
  </g>
</svg>
