<svg id="Group_223" data-name="Group 223" xmlns="http://www.w3.org/2000/svg" xmlns:xlink="http://www.w3.org/1999/xlink" width="65.803" height="60.518" viewBox="0 0 65.803 60.518">
  <defs>
    <clipPath id="clip-path">
      <rect id="Rectangle_229" data-name="Rectangle 229" width="65.803" height="60.518" fill="none"/>
    </clipPath>
    <clipPath id="clip-path-2">
      <rect id="Rectangle_230" data-name="Rectangle 230" width="31.901" height="29.915" transform="translate(0 0)" fill="none"/>
    </clipPath>
  </defs>
  <g id="Group_222" data-name="Group 222" clip-path="url(#clip-path)">
    <path id="Path_383" data-name="Path 383" d="M45.635,9.533a1.954,1.954,0,0,0-.141-.18A25.657,25.657,0,0,0,25.772,0H25.75c-.022,0-.044,0-.066,0A25.643,25.643,0,0,0,5.873,9.358a1.782,1.782,0,0,0-.136.171A25.611,25.611,0,0,0,5.706,41.8a1.612,1.612,0,0,0,.216.268,25.639,25.639,0,0,0,19.748,9.3h.022a25.436,25.436,0,0,0,8.847-1.579,23.914,23.914,0,0,1-1.514-2.767,21.889,21.889,0,0,1-2.741.757,30.292,30.292,0,0,0,2.063-2.384,16.823,16.823,0,0,1-.95-4.052,27.938,27.938,0,0,1-4.158,5.077V37.834a36.83,36.83,0,0,1,4.184.436,11.177,11.177,0,0,1,.814-3.023,39.569,39.569,0,0,0-5-.532V27.241h8.64a30.158,30.158,0,0,1-.457,3.863,10.02,10.02,0,0,1,3.405-1.747c.083-.7.136-1.4.171-2.116h9.19a22.011,22.011,0,0,1-.515,3.471,10.522,10.522,0,0,1,2.134,1.848,10.972,10.972,0,0,1,.845-.849,25.671,25.671,0,0,0-5.02-22.177M20.761,3.669a29.765,29.765,0,0,0-5.7,8.31,41.779,41.779,0,0,1-5.5-2.059,22.527,22.527,0,0,1,11.2-6.251M7.475,12.384a45.123,45.123,0,0,0,6.423,2.5,32.764,32.764,0,0,0-1.7,9.239H3.181A22.408,22.408,0,0,1,7.475,12.384m0,26.6A22.423,22.423,0,0,1,3.181,27.241h9.014a32.759,32.759,0,0,0,1.7,9.239,44.552,44.552,0,0,0-6.423,2.508M9.56,41.45a41.946,41.946,0,0,1,5.495-2.063A29.825,29.825,0,0,0,20.761,47.7,22.56,22.56,0,0,1,9.56,41.45M24.126,46.6a27.007,27.007,0,0,1-5.952-8,36.518,36.518,0,0,1,5.952-.766Zm0-11.883a39.924,39.924,0,0,0-7.18.963,29.392,29.392,0,0,1-1.628-8.438h8.808Zm0-10.589H15.319a29.688,29.688,0,0,1,1.6-8.442,39.886,39.886,0,0,0,7.206.968Zm0-10.594a36.951,36.951,0,0,1-5.988-.77,26.511,26.511,0,0,1,5.988-8.024ZM27.241,4.94A27.992,27.992,0,0,1,33,12.811a36.491,36.491,0,0,1-5.755.722Zm0,19.186V16.652a39.776,39.776,0,0,0,6.986-.915,29.129,29.129,0,0,1,1.654,8.389ZM30.3,3.6a22.524,22.524,0,0,1,11.5,6.322,41.619,41.619,0,0,1-5.723,2.125A31.125,31.125,0,0,0,30.3,3.6M39,24.126a32.17,32.17,0,0,0-1.746-9.172A45.58,45.58,0,0,0,43.9,12.384,22.446,22.446,0,0,1,48.19,24.126Zm18.78,7.309a8.336,8.336,0,0,0-7.978,6.2,8.336,8.336,0,0,0-7.978-6.2,8.011,8.011,0,0,0-8.018,8.313c-.089,9.757,12.013,18.923,16,20.77,3.982-1.847,16.085-11.013,16-20.77a8.011,8.011,0,0,0-8.018-8.313" fill="#28343b"/>
  </g>
  <g id="Group_225" data-name="Group 225" transform="translate(33.902 30.603)">
    <g id="Group_224" data-name="Group 224" transform="translate(0 0)" clip-path="url(#clip-path-2)">
      <path id="Path_384" data-name="Path 384" d="M23.905,0a8.359,8.359,0,0,0-7.955,6.381A8.36,8.36,0,0,0,8,0C3.676-.036.045,3.457,0,8.552c-.089,10.036,11.98,19.464,15.95,21.364,3.971-1.9,16.039-11.328,15.95-21.364-.045-5.095-3.676-8.588-8-8.551" transform="translate(0 0)" fill="#206bb4"/>
    </g>
  </g>
</svg>
