<svg xmlns="http://www.w3.org/2000/svg" xmlns:xlink="http://www.w3.org/1999/xlink" width="137.668" height="112.322" viewBox="0 0 137.668 112.322">
  <defs>
    <clipPath id="clip-path">
      <path id="Rectangle_170" data-name="Rectangle 170" d="M77.79,0H0V99.107H77.79Z" fill="none"/>
    </clipPath>
    <clipPath id="clip-path-2">
      <rect id="Rectangle_172" data-name="Rectangle 172" width="18.857" height="22.431" fill="none"/>
    </clipPath>
  </defs>
  <g id="Group_205" data-name="Group 205" transform="translate(-24 -7302.162)">
    <g id="Group_166" data-name="Group 166" transform="translate(74.268 7289.465)">
      <ellipse id="Ellipse_7" data-name="Ellipse 7" cx="32.131" cy="32.131" rx="32.131" ry="32.131" transform="translate(23.138 14.011)" fill="#fbc500"/>
      <path id="Polygon_11" data-name="Polygon 11" d="M6.269,0l6.269,10.972H0Z" transform="matrix(-0.225, -0.974, 0.974, -0.225, 18.465, 61.485)" fill="#fbc500"/>
      <text id="お気軽に_ご相談_ください_" data-name="お気軽に
ご相談
ください!!" transform="translate(57.515 35.249) rotate(8)" fill="#fff" font-size="10" font-family="PingFangSC-Regular, PingFang SC"><tspan x="-20" y="0">お気軽に</tspan><tspan y="0" font-family="Helvetica"></tspan><tspan x="-15" y="15">ご相談</tspan><tspan y="15" font-family="Helvetica"></tspan><tspan x="-22" y="30">ください</tspan><tspan y="30" font-family="Helvetica">!!</tspan></text>
    </g>
    <g id="Group_165" data-name="Group 165" transform="translate(42.857 7315.377)">
      <g id="Group_164" data-name="Group 164" clip-path="url(#clip-path)">
        <path id="Path_281" data-name="Path 281" d="M0,0V.005L0,0" transform="translate(18.031 32.669)" fill="#6ec878"/>
        <path id="Path_282" data-name="Path 282" d="M0,.02.019,0,.025,0,.019.005,0,.02" transform="translate(17.505 33.881)" fill="#6ec878"/>
        <path id="Path_283" data-name="Path 283" d="M0,.005,0,0c.005.015.009.025.01.031s0,.008,0,.007L.008.027,0,.005" transform="translate(57.641 49.323)" fill="#6ec878"/>
        <path id="Path_284" data-name="Path 284" d="M0,.015s0,0,0,0V0C.007.03.01.048.011.059s0,.012,0,.009A.161.161,0,0,1,.005.047C0,.037,0,.025,0,.015" transform="translate(18.031 32.677)" fill="#6ec878"/>
        <path id="Path_285" data-name="Path 285" d="M0,.011v0l0,0L0,.011" transform="translate(57.637 49.307)" fill="#6ec878"/>
        <path id="Path_286" data-name="Path 286" d="M0,0,.032,0H.027L0,0" transform="translate(31.54 32.118)" fill="#6ec878"/>
        <path id="Path_287" data-name="Path 287" d="M0,.035A.1.1,0,0,1,0,.023a.052.052,0,0,1,0-.01A.023.023,0,0,1,0,0,.011.011,0,0,1,.008,0s0,0,0,0,0,.007,0,.012,0,.011,0,.017v.02l0,0L0,.035" transform="translate(57.629 49.253)" fill="#6ec878"/>
        <path id="Path_288" data-name="Path 288" d="M0,.006,0,0,0,0v0" transform="translate(57.637 49.324)" fill="#6ec878"/>
        <path id="Path_289" data-name="Path 289" d="M.021,0c0,.032-.006.057-.01.074A.2.2,0,0,1,0,.108s0,0,0,0A.2.2,0,0,1,.007.073c0-.006,0-.012,0-.018s0-.012,0-.018l0-.018L.021,0" transform="translate(57.903 52.78)" fill="#6ec878"/>
        <path id="Path_290" data-name="Path 290" d="M.006,0H0V0h0" transform="translate(57.642 49.312)" fill="#6ec878"/>
        <path id="Path_291" data-name="Path 291" d="M0,0,.084.044.165.091l.078.05L.321.195C.343.214.366.233.387.254L.452.317.513.383.573.45.615.519l.041.07L.7.66.738.73.763.8Q.776.842.787.88T.807.956q.009.038.017.077v0s0,0,0,0,0,0,0,0v.006c0,.017,0,.041,0,.069s0,.059,0,.089,0,.058,0,.081,0,.039,0,.044v.023Q.818,1.4.808,1.436t-.02.078q-.011.039-.022.078t-.024.077L.7,1.762c-.016.031-.032.061-.049.091s-.035.059-.053.088S.555,2,.534,2.025.5,2.067.478,2.087l-.061.061-.064.059L.29,2.265l0,0,0,0,0,0-.006,0,0,0,0,0,0,0,0,0Q.234,2,.205,1.714T.144,1.142Q.111.856.075.571T0,0" transform="translate(17.207 31.642)" fill="#f9ce00"/>
        <path id="Path_292" data-name="Path 292" d="M.313,18.061l.781-4.515L1.876,9.03l.782-4.515L3.439,0,8.613,1.007l5.173,1.007,5.173,1.007,5.173,1.007-1.515,3.96L21.1,11.949l-1.515,3.96-1.515,3.96H0l.078-.452.078-.452.078-.452.078-.452" transform="translate(14.031 75.587)" fill="#f9ce00"/>
        <path id="Path_293" data-name="Path 293" d="M.237,46.021l.485-7.542.485-7.542L1.693,23.4l.485-7.542a.715.715,0,0,0-.055-.34.586.586,0,0,0-.184-.231.705.705,0,0,0-.267-.122.86.86,0,0,0-.3-.014l.248-1.734q.155.3.339.581t.395.551q.211.268.448.52t.5.487a.725.725,0,0,0,.566.194.831.831,0,0,0,.5-.242.748.748,0,0,0,.228-.481.646.646,0,0,0-.238-.524l-.113-.1-.109-.105-.105-.107-.1-.108a12.661,12.661,0,0,1,.317-1.8,10.158,10.158,0,0,1,.594-1.708,8.043,8.043,0,0,1,.908-1.534A6.8,6.8,0,0,1,7,7.761a.771.771,0,0,0,.1.086.735.735,0,0,0,.112.07.746.746,0,0,0,.129.05.817.817,0,0,0,.147.028,7.2,7.2,0,0,0,3.28-.5,8.958,8.958,0,0,0,2.771-1.784A11.468,11.468,0,0,0,15.63,3.071,11.725,11.725,0,0,0,16.879,0q.1.065.191.132t.187.136l.184.139.181.142a.718.718,0,0,0,.021.166.668.668,0,0,0,.063.159.687.687,0,0,0,.108.146.807.807,0,0,0,.157.126q.152.094.3.191t.3.2q.148.1.294.2l.292.2.124.122.123.122.123.123.123.123L19.527,2.3,19.4,2.182l-.123-.122-.124-.122a32.024,32.024,0,0,1,5.806,5.594,41.106,41.106,0,0,1,4.5,6.887,49.886,49.886,0,0,1,3.2,7.64,53.155,53.155,0,0,1,1.914,7.851.735.735,0,0,0,.075.238.542.542,0,0,0,.308.264.669.669,0,0,0,.2.035c.03.115.062.23.095.344s.065.229.1.344.061.23.087.346.048.233.065.352l-4.445-.865L26.613,30.1l-4.445-.865-4.445-.866.228-1.314.227-1.314.227-1.314.227-1.314a.754.754,0,0,0-.133-.591.866.866,0,0,0-.463-.313.724.724,0,0,0-.524.04.615.615,0,0,0-.316.468l-1.168,6.747-1.168,6.747-1.168,6.747L12.526,49.7H0l.059-.921.059-.921.059-.921.059-.921M12.018,9.934a11.07,11.07,0,0,1,1.042.462,9.083,9.083,0,0,1,.965.566,7.912,7.912,0,0,1,.878.685,7.435,7.435,0,0,1,.78.819,7.833,7.833,0,0,1,.72,1.055,10.671,10.671,0,0,1,.573,1.165c.17.4.319.814.453,1.229s.253.832.361,1.245a.676.676,0,0,0,.361.46.779.779,0,0,0,.539.038.8.8,0,0,0,.448-.31.694.694,0,0,0,.088-.584c-.126-.48-.265-.957-.423-1.428s-.335-.934-.535-1.387a12.209,12.209,0,0,0-.679-1.317,10.068,10.068,0,0,0-.854-1.219,8,8,0,0,0-.921-.949,9.205,9.205,0,0,0-1.047-.789,11.252,11.252,0,0,0-1.143-.648c-.394-.2-.8-.37-1.211-.529a.569.569,0,0,0-.289-.03.733.733,0,0,0-.274.1.85.85,0,0,0-.222.2.709.709,0,0,0-.151.551.7.7,0,0,0,.1.262.819.819,0,0,0,.188.211.961.961,0,0,0,.256.146" transform="translate(0 45.752)" fill="#4484ce"/>
        <path id="Path_294" data-name="Path 294" d="M.036,11.8q0-.289.01-.578t.011-.578q.006-.289.013-.578t.015-.578L3.351,0c0,.026,0,.052.008.079a.757.757,0,0,0,.016.08A.7.7,0,0,0,3.4.239.717.717,0,0,0,3.44.322c.2.373.407.747.614,1.121s.417.746.633,1.114.44.732.673,1.089.477.707.734,1.046a6.466,6.466,0,0,0,1.675,1.7,3.846,3.846,0,0,0,1.838.651,4.518,4.518,0,0,0,1.982-.322A8.651,8.651,0,0,0,13.7,5.5l-.044.271L13.7,5.5q.127-.094.253-.19t.248-.193q.123-.1.243-.2l.237-.2q-.1,2.069-.178,4.139T14.343,13q-.078,2.071-.161,4.14t-.189,4.137a6.318,6.318,0,0,1-1.512,3.55,6.061,6.061,0,0,1-1.476,1.242,5.711,5.711,0,0,1-1.828.7,5.644,5.644,0,0,1-2.412-.046,6.636,6.636,0,0,1-2.141-.953,9.053,9.053,0,0,1-1.792-1.595,11.076,11.076,0,0,1-1.366-1.973.7.7,0,0,0-.3-.3A.65.65,0,0,0,.8,21.845a.844.844,0,0,0-.621.407L.035,22.1Q.019,20.809.01,19.523T0,16.95q0-1.286.008-2.573T.036,11.8" transform="translate(50.838 70.774)" fill="#4484ce"/>
        <path id="Path_295" data-name="Path 295" d="M3.666,14.974a26.054,26.054,0,0,0,2.872-2.389A19.581,19.581,0,0,0,8.963,9.773,14.766,14.766,0,0,0,10.7,6.545a12.434,12.434,0,0,0,.8-3.637,2.906,2.906,0,0,0,.011-.823,2.7,2.7,0,0,0-.228-.786A2.774,2.774,0,0,0,10.8.59,3.273,3.273,0,0,0,10.067,0c.211.07.422.141.633.208s.422.133.633.194.422.116.633.164.422.089.633.12a.877.877,0,0,0-.032.339.759.759,0,0,0,.1.314.6.6,0,0,0,.237.225.7.7,0,0,0,.372.072,7.374,7.374,0,0,1,3.411.593A8.337,8.337,0,0,1,19.4,4.159a11.212,11.212,0,0,1,1.931,2.826,13.184,13.184,0,0,1,1.085,3.283.712.712,0,0,0,.128.3.569.569,0,0,0,.218.175.671.671,0,0,0,.269.059.841.841,0,0,0,.283-.045q.051.22.1.438t.091.435q.043.217.083.432t.075.431a.691.691,0,0,0-.074.1.675.675,0,0,0-.057.111.711.711,0,0,0-.038.127.814.814,0,0,0-.015.144c-.014.669-.02,1.339-.025,2.008s-.009,1.339-.016,2.008-.02,1.339-.043,2.008-.055,1.338-.1,2.006a29.375,29.375,0,0,1-.38,3.131,16.344,16.344,0,0,1-.85,3.075,9.78,9.78,0,0,1-1.551,2.681,7.449,7.449,0,0,1-2.482,1.951,7.363,7.363,0,0,1-2.806.733A10.1,10.1,0,0,1,12.2,32.3a11.216,11.216,0,0,1-2.85-1.11,9.14,9.14,0,0,1-2.292-1.785.636.636,0,0,0-.518-.243.739.739,0,0,0-.479.227.843.843,0,0,0-.244.5A.735.735,0,0,0,6,30.459,10.248,10.248,0,0,0,8.107,32.2,12.006,12.006,0,0,0,10.619,33.4a12.587,12.587,0,0,0,2.719.6,11.457,11.457,0,0,0,2.725-.026q-.015.053-.026.106t-.021.106q-.009.053-.015.106t-.009.106a.834.834,0,0,0-.256.058.708.708,0,0,0-.219.138.638.638,0,0,0-.153.219.756.756,0,0,0-.057.3c0,.411.018.826.056,1.238a9.28,9.28,0,0,0,.193,1.221,6.755,6.755,0,0,0,.379,1.167,5.475,5.475,0,0,0,.615,1.076,8.4,8.4,0,0,0,.75.875c.268.275.551.536.842.789s.589.5.886.745.594.49.883.742a.88.88,0,0,0,.25.154.8.8,0,0,0,.277.058.712.712,0,0,0,.277-.048.723.723,0,0,0,.249-.164l0,0q.143.1.291.2t.3.185q.151.09.3.176l.307.172-.2-.013-.2-.01-.2-.006-.2,0,.2,0,.2.006.2.01.2.013.052.029.052.029.052.029.052.029-3.026.035-3.026.035-3.026.035-3.026.035a.763.763,0,0,0-.3.062.651.651,0,0,0-.22.158.724.724,0,0,0-.138.224.842.842,0,0,0-.056.259h-.5q-.691-.786-1.429-1.528T6.1,41.7q-.788-.686-1.627-1.31T2.742,39.213a.7.7,0,0,0-.414-.115.654.654,0,0,0-.353.132.844.844,0,0,0-.333.672l-.181-.142-.184-.139q-.093-.069-.187-.136T.9,39.353a23.508,23.508,0,0,0,.488-2.523c.119-.85.2-1.707.242-2.567s.061-1.722.053-2.582-.036-1.717-.078-2.567a2.916,2.916,0,0,0,.809-.438,3.011,3.011,0,0,0,.636-.663,2.807,2.807,0,0,0,.4-.823,2.534,2.534,0,0,0,.094-.92,2.792,2.792,0,0,0-.251-.939,3.033,3.033,0,0,0-.551-.814,2.724,2.724,0,0,0-.782-.579,2.283,2.283,0,0,0-.945-.234Q.888,22.862.756,22.02T.494,20.333Q.363,19.49.237,18.645T0,16.955l.019,0,.019,0,.019,0,.019,0,.07,0H.286l.07,0,.079.017.078.02L.589,17l.076.026.073.037.072.04.07.043.069.045L1,17.239l.053.051.051.053.049.055.04.061.038.062q.018.032.035.064t.033.065a.767.767,0,0,0,.394.456.761.761,0,0,0,.531.037.718.718,0,0,0,.505-.9,2.622,2.622,0,0,0-.169-.383,2.636,2.636,0,0,0-.226-.349,2.66,2.66,0,0,0-.277-.309,2.686,2.686,0,0,0-.324-.264,3.945,3.945,0,0,0,.4-.138,3.274,3.274,0,0,0,.376-.182,2.818,2.818,0,0,0,.346-.232,2.571,2.571,0,0,0,.31-.286.582.582,0,0,0,.241,0,.648.648,0,0,0,.127-.043.791.791,0,0,0,.129-.075m15.617-1.735a.685.685,0,0,0-.54.233.819.819,0,0,0,0,1.024.742.742,0,0,0,1.079,0,.819.819,0,0,0,0-1.024.685.685,0,0,0-.539-.233m-.022,5.867a5.528,5.528,0,0,1-.5-.465,5.7,5.7,0,0,1-.434-.52,5.871,5.871,0,0,1-.371-.567,6.012,6.012,0,0,1-.3-.607v0l0-.006q-.054-.133-.1-.269t-.089-.273q-.041-.138-.076-.277t-.064-.28a.613.613,0,0,0-.126-.265.712.712,0,0,0-.224-.18.845.845,0,0,0-.278-.087.818.818,0,0,0-.288.012.64.64,0,0,0-.265.129.706.706,0,0,0-.178.221.841.841,0,0,0-.086.275.868.868,0,0,0,.009.291,6.9,6.9,0,0,0,.329,1.109,7.176,7.176,0,0,0,1.178,1.992,6.853,6.853,0,0,0,.814.822.915.915,0,0,0,.254.155.765.765,0,0,0,.273.056.718.718,0,0,0,.273-.05.814.814,0,0,0,.254-.161.646.646,0,0,0,.16-.237.811.811,0,0,0,.057-.29.767.767,0,0,0-.052-.29.592.592,0,0,0-.165-.235M12.84,26.062a4.4,4.4,0,0,0,1.488.887,5.031,5.031,0,0,0,1.706.289,5.216,5.216,0,0,0,1.71-.292,4.705,4.705,0,0,0,1.5-.856.746.746,0,0,0-.481-1.265.78.78,0,0,0-.573.212l-.019.015-.04.032-.038.031c-.01.008-.015.013-.012.011q-.069.051-.141.1t-.147.089q-.074.043-.151.083l-.152.078q-.108.043-.218.08t-.223.067q-.112.031-.226.055t-.228.044q-.13.013-.26.021t-.26.007q-.13,0-.26-.007t-.259-.022q-.12-.019-.237-.044t-.232-.055q-.115-.03-.229-.068t-.228-.083l-.03-.014-.033-.015-.026-.012-.01,0q-.068-.032-.134-.068t-.13-.074q-.064-.038-.127-.079l-.124-.084a.872.872,0,0,0-.59-.32.764.764,0,0,0-.537.169.718.718,0,0,0-.268.48.806.806,0,0,0,.217.613M10.755,16.053a.685.685,0,0,0,.54-.233.818.818,0,0,0,0-1.024.742.742,0,0,0-1.079,0,.818.818,0,0,0,0,1.024.685.685,0,0,0,.539.233" transform="translate(15.981 6.399)" fill="#fff"/>
        <path id="Path_296" data-name="Path 296" d="M.148,52.918A20.771,20.771,0,0,1,1.2,49.574c.435-1.085.933-2.147,1.432-3.209s1-2.124,1.441-3.209a21.477,21.477,0,0,0,1.084-3.342c.394-1.592.7-3.2.95-4.814s.431-3.241.575-4.872.248-3.266.333-4.9.151-3.271.221-4.9c.049-1.88.114-3.756.305-5.57A24.241,24.241,0,0,1,8.6,9.555a13.511,13.511,0,0,1,2.458-4.474,13.232,13.232,0,0,1,4.508-3.4.715.715,0,0,0,.261-.21.581.581,0,0,0,.11-.264.691.691,0,0,0-.019-.283.852.852,0,0,0-.126-.265q.227-.065.459-.118t.468-.1Q16.958.4,17.2.361t.479-.073A.8.8,0,0,0,17.8.62a.884.884,0,0,0,.254.264.767.767,0,0,0,.35.129.774.774,0,0,0,.407-.072A9.97,9.97,0,0,1,20.421.36,10.71,10.71,0,0,1,22.1.056,11.532,11.532,0,0,1,23.817.014a12.216,12.216,0,0,1,1.7.205A16.751,16.751,0,0,1,31.012,2.4a18.931,18.931,0,0,1,4.667,4.012,14.857,14.857,0,0,1,2.882,5.253,10.994,10.994,0,0,1,.137,5.906.754.754,0,0,0-.012.347.661.661,0,0,0,.13.275.768.768,0,0,0,.229.192.867.867,0,0,0,.285.1c-.054.172-.113.342-.176.51s-.128.334-.195.5-.133.327-.2.489-.127.323-.184.483q0-.325,0-.65t0-.647q0-.323.006-.644t.011-.64a.661.661,0,0,0-.5-.686.856.856,0,0,0-.434-.007.749.749,0,0,0-.375.216q-.036-.215-.075-.43t-.083-.432q-.043-.217-.091-.435t-.1-.438a.886.886,0,0,0,.239-.124.8.8,0,0,0,.189-.194.716.716,0,0,0,.11-.257.787.787,0,0,0,0-.311,14.089,14.089,0,0,0-1.271-3.725A12.637,12.637,0,0,0,33.943,7.88,9.809,9.809,0,0,0,30.8,5.72a8.611,8.611,0,0,0-3.887-.66.8.8,0,0,0-.251.054.7.7,0,0,0-.2.119.728.728,0,0,0-.143.167.819.819,0,0,0-.089.2c-.211-.031-.422-.072-.633-.12s-.422-.1-.633-.164-.422-.126-.633-.194-.422-.138-.633-.209a3.273,3.273,0,0,1,.732.59,2.774,2.774,0,0,1,.476.708A2.7,2.7,0,0,1,25.136,7a2.906,2.906,0,0,1-.011.823.819.819,0,0,0-.365-.4.729.729,0,0,0-.468-.069.741.741,0,0,0-.415.23.824.824,0,0,0-.206.5,12.045,12.045,0,0,1-.848,3.17,14.093,14.093,0,0,1-1.592,2.816,17.947,17.947,0,0,1-2.153,2.453A22.829,22.829,0,0,1,16.548,18.6a.757.757,0,0,0-.29.387.8.8,0,0,0-.01.44.871.871,0,0,0,.2.379.656.656,0,0,0,.353.2,2.569,2.569,0,0,1-.31.287,2.812,2.812,0,0,1-.346.232,3.264,3.264,0,0,1-.376.182,3.934,3.934,0,0,1-.4.138,2.406,2.406,0,0,0-.436-.256,2.586,2.586,0,0,0-.478-.163,2.684,2.684,0,0,0-.5-.069,2.647,2.647,0,0,0-.5.026c-.089-.8-.163-1.591-.215-2.387s-.084-1.593-.087-2.39.021-1.594.079-2.392.151-1.6.285-2.393a.757.757,0,0,0-.136-.59.871.871,0,0,0-.464-.313.721.721,0,0,0-.523.04.611.611,0,0,0-.313.468c-.15.9-.254,1.794-.319,2.693s-.09,1.8-.083,2.7.047,1.8.113,2.7.158,1.8.269,2.7c.205,1.55.446,3.1.683,4.648s.471,3.1.661,4.653.338,3.11.4,4.67a36.216,36.216,0,0,1-.09,4.7c-.049.684-.117,1.37-.218,2.051a17.061,17.061,0,0,1-.416,2.014,12.067,12.067,0,0,1-.7,1.919,9.655,9.655,0,0,1-1.063,1.768,9.4,9.4,0,0,1-1.235,1.337A7.951,7.951,0,0,1,8.615,50.02a6.469,6.469,0,0,1-1.665.635,5.7,5.7,0,0,1-1.812.116.647.647,0,0,0-.448.1.616.616,0,0,0-.229.332.857.857,0,0,0-.012.428.833.833,0,0,0,.2.391A6.8,6.8,0,0,0,3.394,53.3a8.046,8.046,0,0,0-.908,1.534,10.163,10.163,0,0,0-.594,1.708,12.669,12.669,0,0,0-.317,1.8A5.981,5.981,0,0,1,.7,57.155a5.484,5.484,0,0,1-.521-1.309A5.942,5.942,0,0,1,0,54.429a7.359,7.359,0,0,1,.148-1.511" transform="translate(2.347 1.486)" fill="#fff"/>
        <path id="Path_297" data-name="Path 297" d="M16.426,29.773a.749.749,0,0,0-.136-.609.842.842,0,0,0-.484-.3.73.73,0,0,0-.536.075.647.647,0,0,0-.295.515l-.112-.1-.113-.1-.113-.1-.112-.1.082-.213.082-.213.082-.214.082-.214a.568.568,0,0,0,.028-.283.789.789,0,0,0-.1-.281.812.812,0,0,0-.193-.228.6.6,0,0,0-.256-.123l-.966-.188-.967-.188-.967-.188-.967-.188c-.017-.119-.039-.236-.065-.352s-.055-.232-.087-.346-.064-.229-.1-.344-.065-.229-.095-.344a.845.845,0,0,0,.329-.061.9.9,0,0,0,.292-.187.769.769,0,0,0,.23-.685q-.138-.919-.316-1.831t-.393-1.816q-.215-.9-.465-1.8t-.533-1.78c-.5-1.542-1.055-3.068-1.683-4.566S6.26,9.45,5.492,8.019A45.85,45.85,0,0,0,2.971,3.855,41.314,41.314,0,0,0,0,0H.5A.856.856,0,0,0,.534.288.732.732,0,0,0,.664.541a.632.632,0,0,0,.228.18.743.743,0,0,0,.326.066l.431,0,.431,0L2.509.771,2.94.766,5.913.732,8.887.7,11.86.663,14.833.628l.529,1.163a.563.563,0,0,0-.025.1A.593.593,0,0,0,15.33,2a.673.673,0,0,0,.015.118.816.816,0,0,0,.038.126q.477,1.216.967,2.427t1,2.415q.509,1.2,1.04,2.4t1.089,2.375c.187.4.375.793.558,1.193s.359.8.521,1.213.311.822.439,1.242a11.053,11.053,0,0,1,.31,1.28,11.225,11.225,0,0,1,.151,1.343c.025.451.027.905.016,1.36s-.036.909-.066,1.361-.064.9-.095,1.348q-.164,2.772-.3,5.547T20.774,33.3q-.11,2.776-.2,5.552T20.4,44.4H13.623l.7-3.658.7-3.658.7-3.658.7-3.658" transform="translate(25.036 51.054)" fill="#fff"/>
        <path id="Path_298" data-name="Path 298" d="M7.24,39.061q.083-2.289.186-4.577t.215-4.575q.112-2.287.225-4.574t.217-4.575c.019-.415.031-.83.031-1.245s-.01-.83-.037-1.243-.071-.825-.136-1.233a10.82,10.82,0,0,0-.264-1.218c-.128-.457-.28-.906-.449-1.35s-.354-.881-.549-1.315-.4-.865-.6-1.294-.409-.857-.607-1.286Q5,9.557,4.55,8.528T3.667,6.461q-.433-1.037-.852-2.08T1.987,2.294a.764.764,0,0,0-.319-.386.826.826,0,0,0-.444-.113A.865.865,0,0,0,.8,1.916a.615.615,0,0,0-.268.318L0,1.07H.225l.075,0,.047.065.046.066.045.068.044.07-.044-.07L.393,1.194.347,1.128.3,1.063A.716.716,0,0,0,.669.942.683.683,0,0,0,.894.679.824.824,0,0,0,.977.341.834.834,0,0,0,.917,0,10.7,10.7,0,0,1,2.323.577a10.54,10.54,0,0,1,1.3.763,10.383,10.383,0,0,1,1.169.936,10.241,10.241,0,0,1,1.022,1.1.69.69,0,0,0-.144.136.6.6,0,0,0-.1.174.608.608,0,0,0-.033.208.77.77,0,0,0,.043.238c.288.852.63,1.683,1,2.5s.763,1.627,1.159,2.435S8.53,10.68,8.9,11.5s.717,1.645,1.011,2.493a11.419,11.419,0,0,1,.581,2.853,18.279,18.279,0,0,1-.023,2.891c-.076.967-.2,1.936-.336,2.9s-.266,1.93-.356,2.887c-.059.632-.1,1.266-.139,1.9S9.578,28.7,9.56,29.331s-.03,1.273-.038,1.908-.015,1.271-.022,1.906c.009.972,0,1.948-.008,2.925s-.023,1.957-.028,2.935,0,1.956.022,2.93.067,1.944.142,2.909H7.022q.041-.721.068-1.444t.05-1.446q.023-.724.045-1.447t.055-1.446" transform="translate(39.869 50.612)" fill="#4484ce"/>
        <path id="Path_299" data-name="Path 299" d="M.257.116H.209L.157.088.1.058.052.029,0,0,.233.02.465.045l.23.03L.924.109l-.167,0L.59.112l-.167,0-.167,0" transform="translate(38.15 50.093)" fill="#6ec878"/>
        <path id="Path_300" data-name="Path 300" d="M.071,2.123a8.926,8.926,0,0,0,1.237-.272A9.256,9.256,0,0,0,2.518,1.4,8.84,8.84,0,0,0,3.655.78,7.9,7.9,0,0,0,4.674,0q.032.284.084.553t.122.524q.071.255.161.5t.2.476a.892.892,0,0,0-.209.18.812.812,0,0,0-.142.24.725.725,0,0,0-.046.283.789.789,0,0,0,.078.309,9.646,9.646,0,0,0,1,1.642,13.63,13.63,0,0,0,1.252,1.44c.449.454.924.884,1.41,1.3s.981.826,1.47,1.233c.473.393.95.8,1.41,1.224a15.366,15.366,0,0,1,1.3,1.347,9.335,9.335,0,0,1,1.058,1.519,6.907,6.907,0,0,1,.678,1.739.723.723,0,0,0,.161.321.617.617,0,0,0,.259.171.746.746,0,0,0,.307.036.867.867,0,0,0,.306-.085v2.766q-.082-.2-.163-.4t-.158-.4q-.078-.2-.152-.407t-.144-.41a.756.756,0,0,0-.218-.334.723.723,0,0,0-.319-.159.851.851,0,0,0-.352,0,.832.832,0,0,0-.318.135,10.24,10.24,0,0,0-1.022-1.1,10.382,10.382,0,0,0-1.169-.936,10.536,10.536,0,0,0-1.3-.763,10.69,10.69,0,0,0-1.406-.576.583.583,0,0,0-.293-.329,1.121,1.121,0,0,0-.449-.1,4.827,4.827,0,0,0-.506.012,3.435,3.435,0,0,1-.465.007l-.229-.034-.23-.03-.232-.025-.233-.02-.307-.172q-.153-.087-.3-.176t-.3-.185q-.148-.1-.291-.2a.723.723,0,0,0,.155-.242.822.822,0,0,0,.057-.287.741.741,0,0,0-.05-.285.608.608,0,0,0-.166-.237q-.224-.2-.451-.387l-.455-.382-.455-.381q-.227-.191-.452-.385a6.8,6.8,0,0,1-1.138-1.1,5.206,5.206,0,0,1-.738-1.22A5.719,5.719,0,0,1,.9,4.83a8.691,8.691,0,0,1-.09-1.569.751.751,0,0,0-.072-.328A.647.647,0,0,0,.548,2.7.747.747,0,0,0,.29,2.576.862.862,0,0,0,0,2.546q0-.053.009-.106t.015-.106q.009-.053.021-.106t.026-.106" transform="translate(31.973 38.25)" fill="#fff"/>
        <path id="Path_301" data-name="Path 301" d="M.205,16.339c-.045-.114-.087-.224-.121-.333a1.866,1.866,0,0,1-.074-.323,1.147,1.147,0,0,1,0-.323,1.1,1.1,0,0,1,.108-.331,2.037,2.037,0,0,0,.476.31,2.351,2.351,0,0,0,.558.182,2.318,2.318,0,0,0,.59.038,2.011,2.011,0,0,0,.574-.121c.057.241.13.477.209.711s.165.466.248.7.165.465.235.7a5.63,5.63,0,0,1,.168.722q.014.127.021.254t.006.254q0,.127-.008.254t-.022.254a.55.55,0,0,0,.045.289.7.7,0,0,0,.173.233.891.891,0,0,0,.25.158.817.817,0,0,0,.277.065.645.645,0,0,0,.369-.092.714.714,0,0,0,.241-.258,1.165,1.165,0,0,0,.127-.352,1.52,1.52,0,0,0,.026-.374.666.666,0,0,0,.413-.094.943.943,0,0,0,.288-.294,2.31,2.31,0,0,0,.2-.393c.056-.137.1-.273.148-.392q.086-.2.17-.406t.164-.408q.08-.2.156-.411t.145-.415c.036-.108.073-.219.108-.333s.069-.23.1-.347a2.968,2.968,0,0,0,.063-.352,1.894,1.894,0,0,0,.009-.349,2.43,2.43,0,0,0-.2-.7,3.985,3.985,0,0,0-.365-.636c-.14-.2-.3-.4-.451-.593s-.312-.382-.456-.57a.772.772,0,0,0,.172-.634.829.829,0,0,0-.314-.495.747.747,0,0,0-.541-.16.691.691,0,0,0-.51.371q-.108.2-.226.4t-.242.4q-.124.2-.254.389t-.262.383a4.272,4.272,0,0,1-.36.513,2.4,2.4,0,0,1-.468.445,1.066,1.066,0,0,1-.544.207.868.868,0,0,1-.588-.2c.021.016.024.014.016,0a.547.547,0,0,0-.044-.051c-.02-.021-.042-.043-.059-.059s-.03-.025-.03-.021L.9,13.723l-.021-.034-.02-.035-.018-.035a.15.15,0,0,1-.008-.034c0-.014,0-.03,0-.046s0-.033,0-.047a.319.319,0,0,0-.005-.037c.166-.294.345-.589.531-.884s.379-.59.573-.885.39-.59.581-.885.378-.59.556-.884a5.636,5.636,0,0,1,.417-.682,1.784,1.784,0,0,1,.491-.481.756.756,0,0,1,.584-.1,1.465,1.465,0,0,1,.694.464q.344.352.683.711l.678.716q.339.358.681.713t.693.7a.865.865,0,0,0,.274.162.786.786,0,0,0,.313.048.663.663,0,0,0,.306-.093.744.744,0,0,0,.253-.261q.346-.579.691-1.158L10.5,9.5l.687-1.161.685-1.162.886-1.5q.442-.753.881-1.509t.866-1.517q.428-.761.841-1.53c.04-.074.078-.156.117-.242s.08-.175.124-.262a2.09,2.09,0,0,1,.143-.247.946.946,0,0,1,.176-.2.713.713,0,0,1,.257-.133A.875.875,0,0,1,16.453,0a1.072,1.072,0,0,1,.288.057A1.1,1.1,0,0,1,17,.187a.767.767,0,0,1,.3.346.691.691,0,0,1,.029.386,1.63,1.63,0,0,1-.141.4c-.064.134-.14.266-.21.393q-.637,1.148-1.275,2.3L14.425,6.3,13.145,8.6l-1.28,2.293a.693.693,0,0,0,.092.841.856.856,0,0,0,.356.23.728.728,0,0,0,.415.02l.006.008a.76.76,0,0,0-.256.5.84.84,0,0,0,.121.5.826.826,0,0,0,.369.335.6.6,0,0,0,.488,0l0,0,0,0,0,0,0,0,0,0,0,0,0,0,0,0a.636.636,0,0,0,.066-.034.678.678,0,0,0,.065-.044.744.744,0,0,0,.063-.054.839.839,0,0,0,.061-.065q.677-.788,1.346-1.583t1.337-1.59q.668-.795,1.34-1.587T19.088,6.8l.207-.229.207-.229.207-.229.206-.23c.1-.113.2-.238.3-.367s.209-.26.319-.386a3.371,3.371,0,0,1,.35-.349,1.722,1.722,0,0,1,.4-.257.9.9,0,0,1,.214-.068.588.588,0,0,1,.2,0,.437.437,0,0,1,.176.071.481.481,0,0,1,.139.152.7.7,0,0,1,.1.331.946.946,0,0,1-.046.326,2.314,2.314,0,0,1-.13.318c-.05.1-.1.206-.148.305q-.68.847-1.364,1.691T19.057,9.329l-1.375,1.682-1.375,1.682a.779.779,0,0,0-.2.416.767.767,0,0,0,.059.423.723.723,0,0,0,.277.32.751.751,0,0,0,.455.106l-.009.031-.009.031-.009.031-.009.031-.434.252-.435.248-.437.245-.44.24a.661.661,0,0,0-.358.457.764.764,0,0,0,.1.527.813.813,0,0,0,.417.357.71.71,0,0,0,.592-.055q.47-.254.936-.516t.927-.534q.461-.271.917-.549t.908-.563a8.074,8.074,0,0,0,.906-.61c.367-.269.783-.576,1.2-.843a4.933,4.933,0,0,1,1.188-.6.837.837,0,0,1,.88.121.723.723,0,0,1,.118.482.942.942,0,0,1-.188.441,1.88,1.88,0,0,1-.372.37,2.676,2.676,0,0,1-.434.27l-.335.213-.333.217q-.166.109-.33.221t-.327.225a15.08,15.08,0,0,0-2.935,2.426,15.518,15.518,0,0,0-2.037,2.768A29.078,29.078,0,0,0,15.013,23c-.477,1.094-.938,2.245-1.451,3.453-.085.2-.179.4-.273.6s-.191.4-.284.606-.18.409-.258.615a5.55,5.55,0,0,0-.2.623c-.053.215-.1.435-.132.657s-.064.446-.09.672-.047.451-.069.675-.044.447-.069.667q-.081.7-.158,1.391t-.152,1.391q-.074.7-.146,1.392t-.142,1.392a.659.659,0,0,0,.081.416.586.586,0,0,0,.28.235.812.812,0,0,0,.38.056.882.882,0,0,0,.381-.122l-.3,1.9c-.331.258-.7.56-1.092.858a10.807,10.807,0,0,1-1.243.831,4.583,4.583,0,0,1-1.327.517A2.482,2.482,0,0,1,7.4,41.733a2.673,2.673,0,0,1-.556-.321,4.252,4.252,0,0,1-.5-.444c-.159-.162-.31-.336-.452-.512s-.274-.355-.4-.527q-.342-.478-.656-.976t-.61-1.007q-.3-.509-.58-1.026t-.565-1.031a.793.793,0,0,0-.112-.157.653.653,0,0,0-.132-.11.619.619,0,0,0-.146-.067.659.659,0,0,0-.154-.028l.176-1.338a.694.694,0,0,0,.387.139.718.718,0,0,0,.373-.09.793.793,0,0,0,.285-.266.771.771,0,0,0,.123-.389Q3.938,33,4,32.419t.138-1.16q.071-.58.144-1.16t.138-1.16a.706.706,0,0,0,.433-.167.855.855,0,0,0,.263-.382.71.71,0,0,0,.008-.453.685.685,0,0,0-.332-.38,12.475,12.475,0,0,1-1.529-1.008A9.893,9.893,0,0,1,1.826,25.2a5.9,5.9,0,0,1-1.02-1.611,3.607,3.607,0,0,1-.264-1.8c.038-.316.093-.626.151-.934s.116-.612.161-.917a6.623,6.623,0,0,0,.079-.921,4.187,4.187,0,0,0-.1-.946c-.033-.151-.076-.3-.124-.445s-.1-.29-.158-.432S.44,16.908.38,16.766s-.119-.284-.175-.427m8.069,8.3a.71.71,0,0,0,.561-.076.8.8,0,0,0,.213-.187.874.874,0,0,0,.142-.257,11.874,11.874,0,0,1,.9-1.971,12.231,12.231,0,0,1,1.236-1.773,12.331,12.331,0,0,1,3.3-2.773.681.681,0,0,0,.351-.47.783.783,0,0,0-.1-.532.792.792,0,0,0-.414-.352.691.691,0,0,0-.586.068,13.529,13.529,0,0,0-2.01,1.414,13.8,13.8,0,0,0-1.716,1.741,13.934,13.934,0,0,0-2.4,4.253.609.609,0,0,0-.027.29.741.741,0,0,0,.1.273.822.822,0,0,0,.193.221.719.719,0,0,0,.255.132" transform="translate(52.481 34.456)" fill="#fff"/>
        <path id="Path_302" data-name="Path 302" d="M.015,0,.006.011,0,0H.015" transform="translate(65.209 46.433)" fill="#6ec878"/>
        <path id="Path_303" data-name="Path 303" d="M5.871,0l.112.1.113.1.113.1L6.32.4,5.6,4.137,4.888,7.875l-.716,3.737L3.455,15.35H0l1.468-3.837L2.936,7.675,4.4,3.837,5.871,0" transform="translate(33.691 80.108)" fill="#fff"/>
        <path id="Path_304" data-name="Path 304" d="M0,.007H0L0,0,0,.007" transform="translate(56.904 51.53)" fill="#6ec878"/>
        <path id="Path_305" data-name="Path 305" d="M.009.008c0,.013,0,.024,0,.032S0,.055,0,.06A.06.06,0,0,1,0,.069s0,0,0,0L0,.054,0,.037l0-.018L.009,0V.008" transform="translate(57.628 49.346)" fill="#6ec878"/>
        <path id="Path_306" data-name="Path 306" d="M.6,20.986c.026-.22.048-.443.069-.667s.044-.45.069-.675.054-.45.09-.672.078-.441.132-.657a5.552,5.552,0,0,1,.2-.623c.078-.206.166-.411.258-.615s.189-.406.284-.606.188-.4.273-.6c.626-1.485,1.155-2.8,1.687-3.985A23.717,23.717,0,0,1,5.369,8.654,14.557,14.557,0,0,1,7.7,5.869a21.2,21.2,0,0,1,3.564-2.624,2.612,2.612,0,0,0,.433-.269,1.888,1.888,0,0,0,.373-.372.948.948,0,0,0,.189-.442.713.713,0,0,0-.119-.48.833.833,0,0,0-.879-.121,4.961,4.961,0,0,0-1.191.6c-.415.268-.832.576-1.2.844a7.963,7.963,0,0,1-.9.606q-.452.285-.908.563t-.917.549q-.461.271-.927.534t-.936.516a.71.71,0,0,1-.592.055.813.813,0,0,1-.417-.357.763.763,0,0,1-.1-.527.661.661,0,0,1,.358-.457q.22-.119.44-.24L4.408,4l.435-.248L5.277,3.5c-.037.134-.077.269-.122.4A4.067,4.067,0,0,1,5,4.3a2.735,2.735,0,0,1-.207.377,2.209,2.209,0,0,1-.28.344,2.209,2.209,0,0,0,.28-.344A2.735,2.735,0,0,0,5,4.3a4.067,4.067,0,0,0,.154-.4c.045-.134.084-.269.122-.4q.533-.31,1.059-.63T7.38,2.221q.519-.332,1.03-.675t1.015-.7C9.6.73,9.775.615,9.961.51a4.71,4.71,0,0,1,.577-.278,3.421,3.421,0,0,1,.609-.181A2.666,2.666,0,0,1,11.78,0a2.069,2.069,0,0,1,1.326.553,2.036,2.036,0,0,1,.586,1.15,2.473,2.473,0,0,1-1.077,2.443c-.222.162-.449.317-.678.468s-.461.3-.692.448-.462.3-.69.452S10.1,5.83,9.88,6a13.553,13.553,0,0,0-1.187.966A13,13,0,0,0,7.628,8.056,12.455,12.455,0,0,0,6.7,9.267a12,12,0,0,0-.771,1.323c-.167.3-.323.614-.47.927s-.287.631-.422.951-.268.64-.4.961-.265.641-.4.959c-.171.444-.367.883-.57,1.321s-.41.876-.6,1.319a13.575,13.575,0,0,0-.516,1.344,7.371,7.371,0,0,0-.307,1.4q-.108.846-.206,1.693t-.189,1.7q-.091.848-.178,1.7t-.172,1.7a.82.82,0,0,1-.042.192.732.732,0,0,1-.191.292.8.8,0,0,1-.135.1l.245-1.526-.245,1.526a.882.882,0,0,1-.381.122.812.812,0,0,1-.38-.056.586.586,0,0,1-.28-.235A.659.659,0,0,1,0,26.552q.07-.7.142-1.392t.146-1.392q.074-.7.152-1.391T.6,20.986" transform="translate(64.068 45.035)" fill="#323232"/>
        <path id="Path_307" data-name="Path 307" d="M.188.09.207.067.226.045.245.023.263,0c.06.1.12.2.18.3s.12.216.18.33.12.23.18.349.12.238.18.359a.592.592,0,0,1-.456.007.827.827,0,0,1-.372-.294A.82.82,0,0,1,0,.59.748.748,0,0,1,.188.09" transform="translate(64.952 46.444)" fill="#323232"/>
        <path id="Path_308" data-name="Path 308" d="M.7,19.374c-.109-.319-.232-.623-.344-.92a6.615,6.615,0,0,1-.279-.88,2.743,2.743,0,0,1-.064-.889,2.532,2.532,0,0,1,.3-.948.79.79,0,0,1,.113-.162.644.644,0,0,1,.134-.112A.611.611,0,0,1,.71,15.4a.656.656,0,0,1,.158-.026A1.886,1.886,0,0,1,.821,15a1.816,1.816,0,0,1,.027-.375,1.86,1.86,0,0,1,.109-.377,2.063,2.063,0,0,1,.2-.372q.276-.413.546-.829t.538-.834q.267-.418.533-.837l.533-.838a4.4,4.4,0,0,1,.665-.995,2.922,2.922,0,0,1,.862-.67,2.223,2.223,0,0,1,1.029-.236,2.7,2.7,0,0,1,1.167.3,6.9,6.9,0,0,1,.751.62c.237.223.464.46.686.7s.442.487.664.729.448.479.683.7q.74-1.232,1.481-2.466t1.469-2.475q.728-1.241,1.436-2.493t1.383-2.52c.062-.116.122-.233.183-.347s.125-.227.193-.335a2.724,2.724,0,0,1,.227-.311,2,2,0,0,1,.284-.274A2.166,2.166,0,0,1,17.874,0a2.583,2.583,0,0,1,1.374.435,2.429,2.429,0,0,1,.917,1.089A2.063,2.063,0,0,1,20.2,3.01a4.442,4.442,0,0,1-.206.5c-.079.164-.166.326-.257.486s-.185.319-.279.476-.185.313-.271.467L18.1,6.879,17.019,8.821l-1.083,1.941L14.854,12.7q.585-.681,1.162-1.368t1.155-1.374q.577-.687,1.158-1.371T19.5,7.231c.213-.209.412-.436.608-.667s.388-.468.587-.7a7.371,7.371,0,0,1,.628-.648,3.884,3.884,0,0,1,.729-.524,2.3,2.3,0,0,1,.894-.23,2.111,2.111,0,0,1,.866.138,1.911,1.911,0,0,1,.717.486,1.977,1.977,0,0,1,.447.815,2.36,2.36,0,0,1,.086.708,2.65,2.65,0,0,1-.114.685,3.35,3.35,0,0,1-.274.646,4.266,4.266,0,0,1-.394.59q-.348.44-.7.876t-.707.871l-.71.869-.71.868-.656.8-.656.8-.657.8-.657.8a.531.531,0,0,1-.1.091.572.572,0,0,1-.112.064.665.665,0,0,1-.123.04.785.785,0,0,1-.131.017c.024-.089.048-.177.072-.264s.049-.172.075-.255.054-.164.084-.242.063-.154.1-.226c-.036.072-.069.147-.1.226s-.058.159-.084.242-.051.168-.075.255-.048.175-.072.264a.755.755,0,0,1-.455-.107.724.724,0,0,1-.278-.319.763.763,0,0,1-.059-.423.783.783,0,0,1,.2-.417L19.148,12.5l1.375-1.682q.687-.842,1.371-1.685T23.258,7.44c.045-.1.1-.2.148-.306a2.314,2.314,0,0,0,.13-.318.946.946,0,0,0,.046-.326.705.705,0,0,0-.1-.331.483.483,0,0,0-.139-.152.438.438,0,0,0-.176-.071.586.586,0,0,0-.2,0,.892.892,0,0,0-.214.068,1.722,1.722,0,0,0-.4.257,3.371,3.371,0,0,0-.35.349c-.111.126-.216.257-.319.386s-.2.254-.3.367l-.206.23-.207.229-.207.229-.207.229q-.682.783-1.354,1.575t-1.34,1.587q-.668.795-1.337,1.589t-1.345,1.582a.85.85,0,0,1-.061.065.741.741,0,0,1-.063.054.666.666,0,0,1-.065.044.62.62,0,0,1-.067.034c-.06-.12-.12-.24-.18-.359s-.12-.235-.18-.349-.12-.224-.18-.33-.12-.207-.181-.3l.01-.011h-.015q-.049-.077-.1-.149t-.1-.137q-.049-.065-.1-.123t-.1-.107q.049.049.1.107t.1.123q.049.065.1.137t.1.149a.728.728,0,0,1-.415-.02.856.856,0,0,1-.356-.23.693.693,0,0,1-.092-.841l1.28-2.293L15.89,7.79,17.169,5.5q.639-1.147,1.275-2.3c.07-.127.146-.259.21-.393a1.628,1.628,0,0,0,.14-.4.691.691,0,0,0-.029-.386.767.767,0,0,0-.3-.346,1.1,1.1,0,0,0-.259-.129,1.072,1.072,0,0,0-.288-.057.874.874,0,0,0-.287.03.713.713,0,0,0-.257.133.944.944,0,0,0-.176.2,2.085,2.085,0,0,0-.143.246c-.044.087-.084.176-.124.262s-.078.169-.117.242q-.413.769-.841,1.53t-.866,1.517q-.437.756-.881,1.509l-.885,1.5-.685,1.162-.687,1.161-.689,1.16q-.345.579-.691,1.158a.744.744,0,0,1-.253.261.663.663,0,0,1-.306.093.786.786,0,0,1-.313-.048.865.865,0,0,1-.274-.162q-.351-.345-.693-.7t-.681-.713l-.678-.716q-.339-.358-.683-.711a1.466,1.466,0,0,0-.694-.464.755.755,0,0,0-.583.1,1.782,1.782,0,0,0-.491.481,5.642,5.642,0,0,0-.418.683c-.177.294-.364.589-.556.884s-.387.59-.582.885-.387.59-.573.885-.365.59-.531.884a.319.319,0,0,1,0,.037c0,.015,0,.031,0,.047s0,.032,0,.046a.148.148,0,0,0,.008.034l.018.035.02.035.021.034.022.033s.012,0,.03.021.04.038.059.059a.549.549,0,0,1,.044.051c.007.01,0,.012-.016,0a.87.87,0,0,0,.588.2,1.065,1.065,0,0,0,.543-.206A2.4,2.4,0,0,0,4.1,14.92a4.287,4.287,0,0,0,.36-.513q.132-.19.262-.383t.254-.389q.124-.2.242-.4t.226-.4a.69.69,0,0,1,.509-.371.748.748,0,0,1,.541.16.829.829,0,0,1,.314.495.772.772,0,0,1-.172.634c.144.188.3.377.456.57s.31.39.451.593a3.988,3.988,0,0,1,.365.636,2.429,2.429,0,0,1,.2.7A1.9,1.9,0,0,1,8.1,16.6a2.973,2.973,0,0,1-.063.352c-.028.117-.061.233-.1.347s-.073.225-.109.333q-.069.209-.145.415t-.156.411q-.08.2-.164.408t-.17.406c-.045.119-.092.255-.148.392a2.317,2.317,0,0,1-.2.394.946.946,0,0,1-.288.294.662.662,0,0,1-.413.093,1.52,1.52,0,0,1-.026.374,1.165,1.165,0,0,1-.127.352.714.714,0,0,1-.241.258.645.645,0,0,1-.369.092.816.816,0,0,1-.277-.065.891.891,0,0,1-.25-.158.7.7,0,0,1-.173-.233.551.551,0,0,1-.045-.289q.015-.127.022-.254t.008-.254q0-.127-.006-.254t-.021-.254a5.624,5.624,0,0,0-.167-.722c-.07-.236-.151-.47-.235-.7s-.169-.464-.248-.7-.152-.47-.209-.71a2.013,2.013,0,0,1-.574.121,2.317,2.317,0,0,1-.59-.038,2.349,2.349,0,0,1-.557-.182,2.037,2.037,0,0,1-.475-.31,1.106,1.106,0,0,0-.108.331,1.147,1.147,0,0,0,0,.323,1.867,1.867,0,0,0,.074.323c.034.109.076.219.121.333.056.143.116.285.175.427s.119.284.175.426.11.287.158.432.09.294.124.445a4.191,4.191,0,0,1,.1.946,6.628,6.628,0,0,1-.079.921c-.045.305-.1.61-.161.917s-.112.617-.151.934a3.607,3.607,0,0,0,.264,1.8,5.9,5.9,0,0,0,1.02,1.611,9.893,9.893,0,0,0,1.442,1.346,12.477,12.477,0,0,0,1.529,1.008.685.685,0,0,1,.332.38.71.71,0,0,1-.008.453.855.855,0,0,1-.263.382.706.706,0,0,1-.433.167q-.066.58-.138,1.16t-.144,1.16q-.071.58-.138,1.16t-.122,1.162a.77.77,0,0,1-.123.388.793.793,0,0,1-.285.266.718.718,0,0,1-.373.09.693.693,0,0,1-.387-.139l.235-1.788-.235,1.788a.837.837,0,0,1-.138-.117.739.739,0,0,1-.107-.144.622.622,0,0,1-.065-.164.556.556,0,0,1-.012-.179c.042-.449.091-.9.143-1.346s.107-.9.163-1.344.112-.9.165-1.343.1-.9.15-1.345a14.111,14.111,0,0,1-1.447-1.178A10.337,10.337,0,0,1,1.762,27.1a7.064,7.064,0,0,1-.91-1.633A5.231,5.231,0,0,1,.491,23.64a7.839,7.839,0,0,1,.123-1.083c.061-.354.133-.7.187-1.052a5.946,5.946,0,0,0,.084-1.051A3.538,3.538,0,0,0,.7,19.374m6.208.437,0,.018,0,.018c0,.006,0,.012,0,.018s0,.012,0,.018a.193.193,0,0,0-.007.033c0,.006,0,.007,0,0a.193.193,0,0,0,.008-.033c0-.018.007-.042.01-.074M5.226,16.574c.045.17.1.337.15.5s.112.332.17.5.118.33.176.495.114.331.166.5l0-.007,0,.007c.07-.172.14-.344.208-.517s.135-.347.2-.522.122-.351.175-.529.1-.357.141-.539l0-.015s0,0,0,0,0-.008,0-.014,0-.015,0-.024,0-.019,0-.03v-.017l.008.022.005.01s0,0,0-.007-.005-.016-.011-.03v-.01h0v.007l0-.013c0-.007,0-.013,0-.02s0-.012,0-.017,0-.009,0-.012,0,0,0,0a.011.011,0,0,0-.005,0,.023.023,0,0,0,0,.008.053.053,0,0,0,0,.01.1.1,0,0,0,0,.012l-.01-.027-.01-.028-.01-.028-.009-.028.012.039.008.024,0,.01s0,0,0,0a3.49,3.49,0,0,0-.168-.322c-.061-.1-.127-.206-.2-.306s-.14-.2-.212-.294-.146-.192-.218-.286c-.066.1-.133.193-.2.289s-.139.191-.21.284-.145.184-.221.273-.153.174-.233.255a.762.762,0,0,1,.1.077.709.709,0,0,1,.082.093.681.681,0,0,1,.065.108.69.69,0,0,1,.045.123" transform="translate(51.016 32.969)" fill="#323232"/>
        <path id="Path_309" data-name="Path 309" d="M0,0,.005.015l0,0V.03L0,.022,0,.015,0,.007V0" transform="translate(57.63 49.288)" fill="#323232"/>
        <path id="Path_310" data-name="Path 310" d="M.01,0V.015l0,.018L0,.052,0,.07,0,.085A.055.055,0,0,1,0,.073C0,.067,0,.059,0,.051S0,.033,0,.024A.212.212,0,0,1,.01,0" transform="translate(57.628 49.33)" fill="#323232"/>
        <path id="Path_311" data-name="Path 311" d="M0,0V0H0v0L0,0,0,0" transform="translate(57.639 49.319)" fill="#323232"/>
        <path id="Path_312" data-name="Path 312" d="M0,.012V0L0,.006,0,.012" transform="translate(57.637 49.318)" fill="#323232"/>
        <path id="Path_313" data-name="Path 313" d="M6.158.1A.691.691,0,0,1,6.743.037a.792.792,0,0,1,.414.352.783.783,0,0,1,.1.532.681.681,0,0,1-.35.47A12.254,12.254,0,0,0,5.134,2.634a12.378,12.378,0,0,0-1.527,1.53A12.234,12.234,0,0,0,2.371,5.937a11.878,11.878,0,0,0-.9,1.971.872.872,0,0,1-.142.257.8.8,0,0,1-.213.187A.711.711,0,0,1,.3,8.3a.822.822,0,0,1-.193-.221.741.741,0,0,1-.1-.273.609.609,0,0,1,.027-.29A13.9,13.9,0,0,1,4.148,1.519,13.53,13.53,0,0,1,6.158.1" transform="translate(60.202 50.671)" fill="#323232"/>
        <path id="Path_314" data-name="Path 314" d="M.174,0,0,.5A.7.7,0,0,1,.007.361.685.685,0,0,1,.039.23.7.7,0,0,1,.1.109.74.74,0,0,1,.174,0" transform="translate(54.188 70.273)" fill="#323232"/>
        <path id="Path_315" data-name="Path 315" d="M.1,19.948l.728.794L.1,19.948a.846.846,0,0,1,.621-.407.65.65,0,0,1,.367.062.7.7,0,0,1,.3.3,11.08,11.08,0,0,0,1.366,1.973,9.054,9.054,0,0,0,1.792,1.6,6.636,6.636,0,0,0,2.14.953,5.643,5.643,0,0,0,2.412.046,5.712,5.712,0,0,0,1.828-.7A6.062,6.062,0,0,0,12.4,22.528a6.316,6.316,0,0,0,1.511-3.55q.105-2.067.189-4.137t.161-4.14q.078-2.07.158-4.141t.178-4.139l-.238.2q-.12.1-.243.2t-.248.193q-.125.1-.253.19L13.968.99l.232-.2.23-.2.228-.2.226-.2a.778.778,0,0,1,.395-.184.848.848,0,0,1,.422.04.707.707,0,0,1,.332.244.663.663,0,0,1,.122.427l-.138,3.346-.138,3.346-.139,3.346L15.6,14.1c-.017.407-.03.816-.042,1.224s-.023.818-.036,1.227-.028.818-.048,1.227S15.43,18.6,15.4,19a8.438,8.438,0,0,1-1.977,4.649A6.994,6.994,0,0,1,9.658,25.86a7.673,7.673,0,0,1-4.433-.377,9.214,9.214,0,0,1-3.99-3.1h0q-.16-.2-.312-.413t-.294-.425Q.485,21.325.353,21.1T.1,20.657a.812.812,0,0,1-.076-.192A.693.693,0,0,1,0,20.28a.675.675,0,0,1,.027-.174A.722.722,0,0,1,.1,19.948" transform="translate(50.921 73.078)" fill="#323232"/>
        <path id="Path_316" data-name="Path 316" d="M5.384,7.677A3.9,3.9,0,0,1,4.6,7.3,4.971,4.971,0,0,1,3.9,6.784a7.159,7.159,0,0,1-.613-.62c-.193-.219-.375-.447-.549-.676-.257-.34-.5-.689-.734-1.046s-.456-.721-.673-1.089S.909,2.611.7,2.237.292,1.489.088,1.116A.7.7,0,0,1,.05,1.034.7.7,0,0,1,.024.953.758.758,0,0,1,.008.873C0,.847,0,.821,0,.795l.172-.5A.875.875,0,0,1,.472.07.8.8,0,0,1,.648.014.709.709,0,0,1,.831,0L.716.878.831,0A.655.655,0,0,1,.985.03.616.616,0,0,1,1.131.1a.653.653,0,0,1,.132.111.8.8,0,0,1,.112.158Q1.656.88,1.94,1.4t.58,1.025q.3.509.61,1.007t.656.976c.123.172.255.351.4.527s.292.35.451.512a4.249,4.249,0,0,0,.5.444,2.672,2.672,0,0,0,.556.321,2.485,2.485,0,0,0,1.344.085,4.576,4.576,0,0,0,1.326-.517,10.81,10.81,0,0,0,1.242-.831c.393-.3.761-.6,1.093-.858l-.355,2.206a11.664,11.664,0,0,1-1.172.766,7.1,7.1,0,0,1-1.234.559,4.546,4.546,0,0,1-1.272.242,3.548,3.548,0,0,1-1.284-.186" transform="translate(54.19 69.979)" fill="#323232"/>
        <path id="Path_317" data-name="Path 317" d="M.684,0A3.029,3.029,0,0,0,.732.719c.042.239.1.478.166.717s.128.478.178.717a3.55,3.55,0,0,1,.083.717,3.55,3.55,0,0,0-.083-.717C1.026,1.913.961,1.674.9,1.435S.773.957.732.719A3.029,3.029,0,0,1,.684,0a.863.863,0,0,1,.29.03A.747.747,0,0,1,1.232.16a.647.647,0,0,1,.185.228.751.751,0,0,1,.072.328,8.712,8.712,0,0,0,.091,1.57,5.716,5.716,0,0,0,.389,1.376,5.2,5.2,0,0,0,.738,1.219,6.8,6.8,0,0,0,1.138,1.1q.225.194.452.385l.455.381.455.382q.227.192.45.387a.609.609,0,0,1,.166.237.741.741,0,0,1,.05.285.821.821,0,0,1-.057.287.722.722,0,0,1-.156.242c-.106-.077-.209-.157-.31-.243s-.2-.176-.292-.273a3.731,3.731,0,0,1-.269-.31,3.628,3.628,0,0,1-.243-.355,3.628,3.628,0,0,0,.243.355,3.731,3.731,0,0,0,.269.31c.094.1.191.187.292.273s.2.166.31.243l0,0a.723.723,0,0,1-.249.164.711.711,0,0,1-.277.048.8.8,0,0,1-.277-.058.88.88,0,0,1-.25-.154c-.288-.252-.585-.5-.883-.742s-.6-.491-.886-.745-.574-.514-.842-.789a8.4,8.4,0,0,1-.75-.875A5.472,5.472,0,0,1,.628,4.342,6.751,6.751,0,0,1,.249,3.175,9.274,9.274,0,0,1,.056,1.954C.017,1.542,0,1.128,0,.717a.757.757,0,0,1,.057-.3A.637.637,0,0,1,.209.2.708.708,0,0,1,.428.06.833.833,0,0,1,.684,0" transform="translate(31.289 40.794)" fill="#323232"/>
        <path id="Path_318" data-name="Path 318" d="M2.511,2.456,2.6,1.995l.088-.462.088-.462L2.865.61c.074.063.146.126.215.188s.135.126.2.191a2.147,2.147,0,0,1,.17.2,1.442,1.442,0,0,1,.134.216,1.442,1.442,0,0,0-.134-.216,2.147,2.147,0,0,0-.17-.2C3.215.925,3.149.861,3.08.8S2.939.673,2.865.61A.647.647,0,0,1,3.16.1.73.73,0,0,1,3.7.02a.841.841,0,0,1,.484.3.749.749,0,0,1,.136.61l-.7,3.658-.7,3.658-.7,3.658-.7,3.658H0l2.511-13.1" transform="translate(37.146 79.897)" fill="#323232"/>
        <path id="Path_319" data-name="Path 319" d="M1.1.116q.892.552,1.731,1.177T4.459,2.6q.788.686,1.526,1.427T7.414,5.557h0a41.315,41.315,0,0,1,2.971,3.855,45.855,45.855,0,0,1,2.521,4.163c.768,1.431,1.464,2.9,2.092,4.4S16.186,21,16.681,22.543q.283.885.533,1.78t.465,1.8q.215.9.393,1.816t.316,1.831a.769.769,0,0,1-.23.685.9.9,0,0,1-.292.187.844.844,0,0,1-.329.06c-.035-.132-.066-.265-.092-.4a3.69,3.69,0,0,1-.056-.409,2.827,2.827,0,0,1,0-.422,2.589,2.589,0,0,1,.071-.44,2.589,2.589,0,0,0-.071.44,2.827,2.827,0,0,0,0,.422,3.69,3.69,0,0,0,.056.409c.026.134.057.267.092.4a.669.669,0,0,1-.2-.035.543.543,0,0,1-.308-.264.736.736,0,0,1-.076-.238,53.157,53.157,0,0,0-1.914-7.85,49.88,49.88,0,0,0-3.2-7.639,41.1,41.1,0,0,0-4.5-6.887A32.026,32.026,0,0,0,1.534,2.193q-.184-.181-.371-.36T.786,1.48Q.6,1.306.4,1.137T0,.8A.824.824,0,0,1,.089.428a.829.829,0,0,1,.245-.3A.654.654,0,0,1,.686,0,.7.7,0,0,1,1.1.116" transform="translate(17.623 45.496)" fill="#323232"/>
        <path id="Path_320" data-name="Path 320" d="M1.534,1.388l-.292-.2q-.146-.1-.294-.2t-.3-.2Q.5.691.349.6A.805.805,0,0,1,.192.471.686.686,0,0,1,.084.325.669.669,0,0,1,.021.166.719.719,0,0,1,0,0Q.2.162.4.332T.786.675q.191.174.378.353t.37.36" transform="translate(17.623 46.301)" fill="#323232"/>
        <path id="Path_321" data-name="Path 321" d="M1.479.513q.07.206.144.41t.152.407q.077.2.158.4t.163.4v0c.248.6.513,1.2.787,1.8s.558,1.184.842,1.773.569,1.179.846,1.771.547,1.187.8,1.788a11.762,11.762,0,0,1,.861,2.761,15.773,15.773,0,0,1,.247,2.846,26.354,26.354,0,0,1-.169,2.879c-.1.96-.244,1.917-.387,2.862q-.094.725-.162,1.451t-.116,1.455q-.048.728-.078,1.457t-.051,1.459l-.967,2.81.967-2.81q-.04,1.575-.059,3.151t-.024,3.151q0,1.576.006,3.151t.029,3.151l-.287-.313.287.313q0,.28.005.56t0,.56q0,.28.006.56t.008.56a.8.8,0,0,1,0,.1.73.73,0,0,1-.015.09.7.7,0,0,1-.025.083.711.711,0,0,1-.033.076H4.089c-.075-.965-.119-1.935-.142-2.909s-.027-1.951-.022-2.93.018-1.958.028-2.935.017-1.954.008-2.925c.007-.634.013-1.27.022-1.906s.02-1.272.038-1.909.043-1.272.077-1.907.08-1.269.139-1.9c.09-.957.225-1.921.356-2.887s.26-1.935.336-2.9a18.279,18.279,0,0,0,.023-2.891,11.419,11.419,0,0,0-.581-2.853c-.294-.848-.64-1.676-1.011-2.493S2.595,6.654,2.2,5.846,1.409,4.23,1.041,3.411s-.709-1.65-1-2.5A.77.77,0,0,1,0,.671.608.608,0,0,1,.033.463a.6.6,0,0,1,.1-.174A.69.69,0,0,1,.272.153Q.365.269.456.387t.177.24Q.72.748.8.872t.163.251Q.886,1,.8.872T.633.627Q.546.506.456.387T.272.153A.833.833,0,0,1,.59.017a.851.851,0,0,1,.352,0,.723.723,0,0,1,.319.159.757.757,0,0,1,.218.334" transform="translate(45.407 53.831)" fill="#323232"/>
        <path id="Path_322" data-name="Path 322" d="M.927.844H0A.844.844,0,0,1,.058.585.725.725,0,0,1,.2.361.651.651,0,0,1,.415.2a.763.763,0,0,1,.3-.062L3.743.106,6.769.07,9.8.035,12.822,0c.167.094.334.191.5.293s.322.21.476.327A4.488,4.488,0,0,1,14.237,1a3.791,3.791,0,0,1,.4.46l-.075,0h-.226L14.095.949l.238.523-2.973.035-2.973.035-2.973.034L2.439,1.61l-.431.005-.431.005-.431.005L.717,1.63A.743.743,0,0,1,.39,1.564a.633.633,0,0,1-.228-.18.732.732,0,0,1-.129-.254A.857.857,0,0,1,0,.844Z" transform="translate(25.537 50.21)" fill="#323232"/>
        <path id="Path_323" data-name="Path 323" d="M1.056,0a.786.786,0,0,1,.232.031.636.636,0,0,1,.328.224.719.719,0,0,1,.1.168Q1.505.354,1.294.294T.869.184Q.655.133.437.09T0,.012L1.056,0" transform="translate(39.074 50.189)" fill="#323232"/>
        <path id="Path_324" data-name="Path 324" d="M1.81,1.472a3.787,3.787,0,0,0-.4-.461A4.481,4.481,0,0,0,.972.629C.819.512.659.4.5.3S.167.1,0,.008l.179,0L.357,0,.536,0,.715,0q.22.035.437.077t.432.094q.214.051.425.111T2.427.41a.835.835,0,0,1,.06.341.825.825,0,0,1-.083.337.683.683,0,0,1-.225.264.714.714,0,0,1-.368.12" transform="translate(38.359 50.202)" fill="#323232"/>
        <path id="Path_325" data-name="Path 325" d="M1.372,3.388.032.439A.616.616,0,0,1,.3.121.865.865,0,0,1,.728,0a.826.826,0,0,1,.443.113A.764.764,0,0,1,1.49.5q.41,1.045.829,2.088t.852,2.08Q3.6,5.7,4.054,6.733t.921,2.049c.2.429.4.857.607,1.286s.407.86.6,1.294.38.872.548,1.315.321.893.449,1.35a10.826,10.826,0,0,1,.264,1.218c.065.409.109.82.136,1.233s.038.828.037,1.243-.013.831-.032,1.245q-.148,3.01-.292,6.02t-.28,6.021q-.135,3.011-.259,6.022t-.23,6.022H5.069q.082-2.775.174-5.552t.2-5.552q.11-2.776.243-5.551t.3-5.547c.031-.445.065-.9.095-1.348s.054-.907.066-1.362.009-.909-.016-1.36a11.237,11.237,0,0,0-.151-1.343,11.055,11.055,0,0,0-.31-1.28c-.127-.42-.276-.833-.439-1.242S4.889,12.1,4.706,11.7s-.371-.8-.558-1.193Q3.59,9.328,3.06,8.134t-1.04-2.4q-.509-1.2-1-2.415T.054.9A.809.809,0,0,1,.015.769.667.667,0,0,1,0,.651.588.588,0,0,1,.007.541a.559.559,0,0,1,.026-.1Z" transform="translate(40.366 52.406)" fill="#323232"/>
        <path id="Path_326" data-name="Path 326" d="M1.435,19.232l.809-4.673.809-4.673.809-4.673L4.671.538A.616.616,0,0,1,4.987.07a.724.724,0,0,1,.524-.04.866.866,0,0,1,.463.313.753.753,0,0,1,.133.59L5.879,2.248,5.652,3.563,5.424,4.877,5.2,6.191l4.445.865,4.445.865,4.445.865,4.445.865c.012.086.022.173.027.261s.007.177,0,.267a2.622,2.622,0,0,1-.023.273,2.578,2.578,0,0,1-.054.281,2.578,2.578,0,0,0,.054-.281,2.622,2.622,0,0,0,.023-.273c0-.09,0-.179,0-.267s-.015-.175-.027-.261l.967.188.967.188.967.188.967.188a.6.6,0,0,1,.256.124.813.813,0,0,1,.193.228.791.791,0,0,1,.1.281.569.569,0,0,1-.028.283l-.082.213-.082.213-.082.214-.082.214c-.074-.071-.146-.144-.215-.222a2.846,2.846,0,0,1-.2-.247,2.345,2.345,0,0,1-.17-.278,2.19,2.19,0,0,1-.134-.317,2.19,2.19,0,0,0,.134.317,2.345,2.345,0,0,0,.17.278,2.846,2.846,0,0,0,.2.247c.069.078.142.151.215.222l-1.468,3.837L24.1,19.85l-1.468,3.837-1.468,3.838H19.578l1.515-3.96,1.515-3.96,1.515-3.96,1.515-3.96-5.173-1.007L15.29,9.669,10.117,8.662,4.944,7.655l-.86,4.968-.86,4.967-.86,4.967L1.5,27.525H0l.359-2.073.359-2.073.359-2.073.359-2.073" transform="translate(12.526 67.933)" fill="#323232"/>
        <path id="Path_327" data-name="Path 327" d="M.943.037A10.417,10.417,0,0,1,3.531,1.368,9.237,9.237,0,0,1,5.46,3.224,11.111,11.111,0,0,1,6.834,5.553,16.651,16.651,0,0,1,7.756,8.3a.694.694,0,0,1-.088.584.8.8,0,0,1-.448.31.779.779,0,0,1-.539-.038A.676.676,0,0,1,6.32,8.7a15.164,15.164,0,0,0-.768-2.38A9.841,9.841,0,0,0,4.4,4.277,7.856,7.856,0,0,0,2.764,2.64,8.538,8.538,0,0,0,.547,1.473a.962.962,0,0,1-.255-.146A.82.82,0,0,1,.1,1.117a.7.7,0,0,1-.1-.262A.709.709,0,0,1,.159.3a.85.85,0,0,1,.222-.2.733.733,0,0,1,.274-.1.568.568,0,0,1,.288.03" transform="translate(11.471 54.213)" fill="#323232"/>
        <path id="Path_328" data-name="Path 328" d="M.711,40.88a5.7,5.7,0,0,0,1.812-.116,6.471,6.471,0,0,0,1.665-.635,7.953,7.953,0,0,0,1.473-1.042A9.406,9.406,0,0,0,6.9,37.751a9.657,9.657,0,0,0,1.063-1.768,12.066,12.066,0,0,0,.7-1.919,17.053,17.053,0,0,0,.416-2.014c.1-.681.169-1.367.218-2.051a36.225,36.225,0,0,0,.09-4.7c-.065-1.561-.213-3.117-.4-4.67s-.424-3.1-.661-4.653-.478-3.1-.683-4.648c-.111-.9-.2-1.8-.269-2.7s-.106-1.8-.113-2.7.018-1.8.083-2.7.169-1.8.319-2.693A.611.611,0,0,1,7.966.07a.721.721,0,0,1,.523-.04.871.871,0,0,1,.464.313.757.757,0,0,1,.136.591c-.134.8-.227,1.6-.285,2.393s-.083,1.595-.079,2.392.035,1.593.087,2.39S8.939,9.7,9.027,10.5a2.647,2.647,0,0,1,.5-.026,2.684,2.684,0,0,1,.5.069,2.586,2.586,0,0,1,.478.163,2.406,2.406,0,0,1,.436.256,5.39,5.39,0,0,1-.659.144c-.223.035-.447.059-.669.074s-.44.024-.652.028-.415,0-.607,0c.192,0,.4,0,.607,0s.43-.012.652-.028.446-.039.669-.074a5.39,5.39,0,0,0,.659-.144,2.689,2.689,0,0,1,.324.264,2.658,2.658,0,0,1,.277.309,2.617,2.617,0,0,1,.394.732.718.718,0,0,1-.505.9.739.739,0,0,1-.924-.493q-.016-.033-.033-.065t-.035-.064L10.4,12.48l-.04-.061-.049-.054-.051-.053-.053-.051-.055-.049-.069-.046-.07-.043-.072-.04-.073-.037L9.8,12.021,9.719,12l-.078-.02-.079-.017-.07,0H9.353l-.07,0-.019,0-.019,0-.019,0-.019,0q.112.845.237,1.69T9.7,15.356q.131.844.263,1.686t.256,1.684a2.283,2.283,0,0,1,.945.234,2.724,2.724,0,0,1,.782.579,3.034,3.034,0,0,1,.551.814,2.8,2.8,0,0,1,.251.939,2.536,2.536,0,0,1-.095.92,2.809,2.809,0,0,1-.4.823,3.012,3.012,0,0,1-.636.663,2.916,2.916,0,0,1-.809.439c.041.85.07,1.707.078,2.567s-.007,1.722-.054,2.582-.124,1.717-.242,2.567a23.492,23.492,0,0,1-.488,2.523q-.118-.079-.239-.156t-.245-.15Q9.5,34,9.371,33.927t-.259-.136q.131.066.259.136t.251.143q.124.073.245.15t.239.156a11.719,11.719,0,0,1-1.248,3.071,11.468,11.468,0,0,1-2.094,2.642,8.96,8.96,0,0,1-2.772,1.784,7.2,7.2,0,0,1-3.28.5.823.823,0,0,1-.147-.028.747.747,0,0,1-.129-.05.733.733,0,0,1-.112-.07.766.766,0,0,1-.1-.086q.153-.118.313-.229t.33-.214q.169-.1.348-.2t.367-.178q-.189.084-.367.178t-.348.2q-.169.1-.33.214t-.313.229a.834.834,0,0,1-.2-.391.857.857,0,0,1,.012-.428.616.616,0,0,1,.229-.332.647.647,0,0,1,.448-.1M10.756,22.5l0,0,0,0-.008.006-.011.008.011-.008.008-.006,0,0,0,0m-.221-1.448q.023.187.044.374t.041.374q.02.187.038.374t.035.374l0,0,0,0,0,0,0,0,.006,0,0,0,0,0,0,0,.063-.057.064-.06.061-.061c.02-.021.038-.042.056-.062s.041-.056.059-.085.036-.058.053-.088.033-.06.049-.091l.047-.092q.012-.038.024-.077t.022-.078q.011-.039.02-.078t.018-.079V21.6c0-.006,0-.022,0-.044s0-.051,0-.081,0-.061,0-.089,0-.053,0-.069c0,.01,0,.022.005.031a.159.159,0,0,0,.006.021s0,0,0-.009,0-.029-.011-.059l0-.008,0,.005c0-.026-.011-.051-.017-.077s-.013-.051-.021-.076-.015-.05-.023-.075L11.171,21l-.041-.07-.041-.07-.042-.07-.042-.069-.059-.067-.062-.066-.064-.063c-.022-.021-.044-.04-.067-.059l-.078-.053-.078-.05-.08-.047-.084-.044.026.2.026.2q.013.1.026.2t.025.2" transform="translate(6.774 11.377)" fill="#323232"/>
        <path id="Path_329" data-name="Path 329" d="M1.7,47.85c.238-.547.489-1.088.745-1.627s.515-1.077.769-1.617.5-1.083.733-1.632.447-1.105.636-1.672a41.928,41.928,0,0,0,1.245-4.933c.319-1.664.552-3.345.73-5.034s.3-3.387.4-5.084.17-3.394.248-5.082c.064-1.445.1-2.932.186-4.424a43.475,43.475,0,0,1,.44-4.455,21.482,21.482,0,0,1,1.1-4.267,14.528,14.528,0,0,1,2.157-3.86,12.719,12.719,0,0,1,1.124-1.24,14.268,14.268,0,0,1,1.266-1.088A16.315,16.315,0,0,1,14.852.893c.476-.292.965-.561,1.465-.808A.786.786,0,0,1,16.61,0a.7.7,0,0,1,.27.033.776.776,0,0,1,.233.124.874.874,0,0,1,.181.19A7.242,7.242,0,0,0,16.55.6a5.407,5.407,0,0,0-.7.34,4.451,4.451,0,0,0-.634.447,4.149,4.149,0,0,0-.559.575,4.149,4.149,0,0,1,.559-.575,4.451,4.451,0,0,1,.634-.447,5.407,5.407,0,0,1,.7-.34,7.242,7.242,0,0,1,.744-.253.851.851,0,0,1,.126.265A.691.691,0,0,1,17.439.9a.582.582,0,0,1-.11.264.716.716,0,0,1-.261.21,13.192,13.192,0,0,0-4.505,3.394A13.533,13.533,0,0,0,10.1,9.241a24.264,24.264,0,0,0-1.059,5.2c-.191,1.815-.257,3.69-.3,5.567q-.065,1.612-.137,3.225t-.171,3.224q-.1,1.611-.239,3.219t-.34,3.21c-.127,1.1-.283,2.188-.476,3.272s-.425,2.162-.7,3.226-.6,2.115-.981,3.147A29.227,29.227,0,0,1,4.386,45.57c-.428.935-.938,1.956-1.408,3.018a20.043,20.043,0,0,0-1.172,3.263,8.1,8.1,0,0,0-.21,3.237,5.459,5.459,0,0,0,1.478,2.939q-.016.151-.028.3t-.022.3q-.009.15-.016.3t-.009.3a.465.465,0,0,0-.083-.08.261.261,0,0,0-.094-.045.185.185,0,0,0-.1,0,.269.269,0,0,0-.105.069.269.269,0,0,1,.105-.069.185.185,0,0,1,.1,0,.261.261,0,0,1,.094.045.465.465,0,0,1,.083.08q0,.041,0,.081t0,.081q0,.041,0,.081t0,.081c.059.059.1.081.124.078s.034-.032.031-.074A.516.516,0,0,0,3.1,59.4a.748.748,0,0,0-.1-.171q0-.149.009-.3t.016-.3q.009-.15.022-.3t.028-.3l.1.108.105.107.109.105.113.1a.646.646,0,0,1,.238.524.748.748,0,0,1-.228.481.831.831,0,0,1-.5.242.725.725,0,0,1-.566-.194q-.262-.235-.5-.487T1.5,58.5q-.211-.268-.395-.551t-.339-.581L.936,56.2.769,57.364a6.343,6.343,0,0,1-.723-2.345A8.866,8.866,0,0,1,.14,52.57a15.109,15.109,0,0,1,.642-2.43c.275-.793.6-1.563.919-2.29" transform="translate(0.848 1.801)" fill="#323232"/>
        <path id="Path_330" data-name="Path 330" d="M.036.556Q.143.572.25.584T.463.6Q.57.613.677.617t.213,0q-.107,0-.213,0T.463.6Q.356.6.25.584T.036.556a.819.819,0,0,1,.089-.2A.727.727,0,0,1,.268.189.7.7,0,0,1,.464.07.8.8,0,0,1,.715.016,8.612,8.612,0,0,1,4.6.676a9.809,9.809,0,0,1,3.142,2.16,12.636,12.636,0,0,1,2.27,3.181,14.089,14.089,0,0,1,1.271,3.725.789.789,0,0,1,0,.311.716.716,0,0,1-.109.257.8.8,0,0,1-.189.194.888.888,0,0,1-.239.124q-.049-.211-.1-.424t-.108-.428q-.056-.215-.115-.433T10.3,8.9q.063.222.123.44t.115.433q.056.215.108.428t.1.424a.844.844,0,0,1-.283.045.672.672,0,0,1-.269-.059.569.569,0,0,1-.218-.175.712.712,0,0,1-.128-.3A13.185,13.185,0,0,0,8.764,6.855,11.213,11.213,0,0,0,6.833,4.029,8.338,8.338,0,0,0,4.127,2.1,7.375,7.375,0,0,0,.715,1.505a.7.7,0,0,1-.372-.072.6.6,0,0,1-.237-.225A.759.759,0,0,1,0,.895.876.876,0,0,1,.036.556" transform="translate(28.546 6.53)" fill="#323232"/>
        <path id="Path_331" data-name="Path 331" d="M.327,11.261A22.819,22.819,0,0,0,2.858,9.179,17.945,17.945,0,0,0,5.012,6.726,14.093,14.093,0,0,0,6.6,3.91,12.046,12.046,0,0,0,7.451.74a.82.82,0,0,1,.205-.5.743.743,0,0,1,.415-.23.729.729,0,0,1,.468.068A.814.814,0,0,1,8.9.48,3.223,3.223,0,0,1,8.777,1a3.473,3.473,0,0,1-.218.513,3.748,3.748,0,0,1-.307.491,4.05,4.05,0,0,1-.4.458,4.05,4.05,0,0,0,.4-.458,3.748,3.748,0,0,0,.307-.491A3.473,3.473,0,0,0,8.777,1,3.223,3.223,0,0,0,8.9.48a12.442,12.442,0,0,1-.8,3.638A14.764,14.764,0,0,1,6.375,7.346a19.579,19.579,0,0,1-2.424,2.812,26.072,26.072,0,0,1-2.872,2.389.8.8,0,0,1-.129.075.65.65,0,0,1-.126.043.581.581,0,0,1-.241,0q.075-.082.145-.172t.132-.189q.063-.1.118-.207t.1-.227q-.047.119-.1.227t-.118.207q-.063.1-.132.189t-.145.172a.658.658,0,0,1-.353-.2.871.871,0,0,1-.2-.379.8.8,0,0,1,.01-.44.758.758,0,0,1,.291-.387" transform="translate(18.568 8.826)" fill="#323232"/>
        <path id="Path_332" data-name="Path 332" d="M1.245,17.152a9.129,9.129,0,0,0,2.292,1.785,11.216,11.216,0,0,0,2.85,1.11,10.107,10.107,0,0,0,3.022.271,7.361,7.361,0,0,0,2.806-.733A7.45,7.45,0,0,0,14.7,17.634a9.78,9.78,0,0,0,1.551-2.681,16.341,16.341,0,0,0,.85-3.075,29.354,29.354,0,0,0,.38-3.131c.049-.668.081-1.337.1-2.006s.035-1.338.043-2.008.012-1.339.017-2.008.011-1.339.025-2.008a.814.814,0,0,1,.015-.144.711.711,0,0,1,.038-.127.675.675,0,0,1,.057-.111.691.691,0,0,1,.074-.1q.083.5.145.994c.042.332.077.665.1,1s.049.676.063,1.021.021.694.021,1.051c0-.357-.007-.706-.021-1.051s-.035-.684-.063-1.021-.063-.67-.1-1S17.905.572,17.85.24a.749.749,0,0,1,.375-.216.856.856,0,0,1,.434.007.687.687,0,0,1,.355.231.693.693,0,0,1,.141.455q-.007.319-.011.64T19.139,2q0,.323,0,.647t0,.65q-.028.079-.055.159t-.052.158q-.025.079-.047.158t-.042.158q.02-.079.042-.158t.047-.158q.025-.079.052-.158t.055-.159c-.015,1.4-.015,2.867-.074,4.339a32.512,32.512,0,0,1-.435,4.381,16.326,16.326,0,0,1-1.25,4.1A11.18,11.18,0,0,1,14.857,19.6q-.013-.118-.024-.238t-.019-.243q-.008-.123-.012-.249t0-.256q0,.13,0,.256t.012.249q.008.123.019.243t.024.238a7.9,7.9,0,0,1-1.019.78A8.839,8.839,0,0,1,12.7,21a9.257,9.257,0,0,1-1.21.451,8.93,8.93,0,0,1-1.237.272l.006-.024.006-.024.006-.024.007-.024h0l-.007.024-.006.024-.006.024-.006.024a11.448,11.448,0,0,1-2.724.026,12.585,12.585,0,0,1-2.719-.6A12.009,12.009,0,0,1,2.3,19.949,10.25,10.25,0,0,1,.192,18.206.735.735,0,0,1,0,17.635a.843.843,0,0,1,.244-.5.739.739,0,0,1,.479-.227.636.636,0,0,1,.518.243" transform="translate(21.79 18.652)" fill="#323232"/>
        <path id="Path_333" data-name="Path 333" d="M.719,0a.685.685,0,0,1,.539.233.788.788,0,0,1,.18.512.787.787,0,0,1-.18.512.685.685,0,0,1-.54.233A.685.685,0,0,1,.18,1.256.788.788,0,0,1,0,.745.787.787,0,0,1,.18.233.685.685,0,0,1,.719,0" transform="translate(26.017 20.963)" fill="#323232"/>
        <path id="Path_334" data-name="Path 334" d="M.719,0a.685.685,0,0,1,.539.233.789.789,0,0,1,.18.512.787.787,0,0,1-.18.512.685.685,0,0,1-.54.233A.685.685,0,0,1,.18,1.257.788.788,0,0,1,0,.745.787.787,0,0,1,.18.233.685.685,0,0,1,.719,0" transform="translate(34.544 19.639)" fill="#323232"/>
        <path id="Path_335" data-name="Path 335" d="M.22,1.264A.806.806,0,0,1,0,.651.718.718,0,0,1,.272.171.765.765,0,0,1,.809,0a.871.871,0,0,1,.59.32l.124.083q.063.041.127.079t.13.074q.066.036.134.068l.01,0L1.95.643l.033.015.029.013q.114.045.228.083t.229.068q.115.031.232.055T2.937.92q.129.015.259.022t.26.007q.13,0,.26-.007t.26-.021Q4.091.9,4.2.878T4.431.822q.112-.031.223-.067t.218-.08L5.024.6Q5.1.557,5.174.514T5.321.425q.072-.046.141-.1s0,0,.012-.011L5.513.286,5.553.254,5.572.239A.779.779,0,0,1,6.144.027a.757.757,0,0,1,.484.226.744.744,0,0,1,.219.482.75.75,0,0,1-.222.557,4.706,4.706,0,0,1-1.5.856,5.216,5.216,0,0,1-1.71.292,5.03,5.03,0,0,1-1.706-.289A4.4,4.4,0,0,1,.22,1.264M2.94.921l.027,0h.005l-.032,0" transform="translate(28.6 31.197)" fill="#323232"/>
        <path id="Path_336" data-name="Path 336" d="M1.889,1.506q-.229.038-.463.072l-.47.066-.475.064L0,1.774a.642.642,0,0,1,0-.183.559.559,0,0,1,.06-.173.579.579,0,0,1,.122-.153.755.755,0,0,1,.191-.123A12.626,12.626,0,0,1,6.924.061,16.448,16.448,0,0,1,13.284,2.1a20.26,20.26,0,0,1,5.33,4.286,18.051,18.051,0,0,1,3.451,5.666,12.83,12.83,0,0,1,.519,1.814,12.555,12.555,0,0,1,.244,1.859A12.311,12.311,0,0,1,22.79,17.6a12.154,12.154,0,0,1-.327,1.858.756.756,0,0,1-.125.267.627.627,0,0,1-.193.17.686.686,0,0,1-.235.081.814.814,0,0,1-.252,0c.055-.177.1-.357.145-.54a4.855,4.855,0,0,0,.09-.558,4.1,4.1,0,0,0,.018-.579,3.886,3.886,0,0,0-.072-.6,3.886,3.886,0,0,1,.072.6,4.1,4.1,0,0,1-.018.579,4.855,4.855,0,0,1-.09.558c-.04.183-.089.363-.145.54a.867.867,0,0,1-.285-.1.768.768,0,0,1-.229-.192.661.661,0,0,1-.13-.275.754.754,0,0,1,.012-.347,10.994,10.994,0,0,0-.137-5.906A14.857,14.857,0,0,0,18.007,7.9,18.931,18.931,0,0,0,13.34,3.889,16.751,16.751,0,0,0,7.85,1.706a12.216,12.216,0,0,0-1.7-.205,11.531,11.531,0,0,0-1.713.042,10.708,10.708,0,0,0-1.683.3,9.966,9.966,0,0,0-1.616.58A.773.773,0,0,1,.727,2.5a.767.767,0,0,1-.35-.129.883.883,0,0,1-.254-.264A.8.8,0,0,1,0,1.774l.477-.066.475-.064.47-.066q.233-.034.463-.072" transform="translate(20.019)" fill="#323232"/>
        <path id="Path_337" data-name="Path 337" d="M0,0V.013s0,0,0,0S0,0,0,0V0" transform="translate(18.03 32.674)" fill="#323232"/>
        <path id="Path_338" data-name="Path 338" d="M2.337,4.858a6.85,6.85,0,0,1-.814-.822,7.148,7.148,0,0,1-.669-.948A7.17,7.17,0,0,1,.346,2.044,6.906,6.906,0,0,1,.017.935.866.866,0,0,1,.008.645.84.84,0,0,1,.095.37.706.706,0,0,1,.272.148.64.64,0,0,1,.538.019.818.818,0,0,1,.826.008.845.845,0,0,1,1.1.095a.712.712,0,0,1,.224.18A.613.613,0,0,1,1.454.54q.029.141.064.28t.076.277q.041.138.088.273t.1.269l0,.006v0a6.008,6.008,0,0,0,.3.607,5.868,5.868,0,0,0,.371.567,5.7,5.7,0,0,0,.434.52,5.532,5.532,0,0,0,.5.465.734.734,0,0,1,.224.554.747.747,0,0,1-.223.483.739.739,0,0,1-1.054.016" transform="translate(31.851 21.7)" fill="#323232"/>
        <path id="Path_339" data-name="Path 339" d="M.4.123A6.533,6.533,0,0,0,.71.707q.172.286.376.562t.439.547q.236.271.5.539-.268-.268-.5-.539t-.439-.547Q.882.992.71.707A6.533,6.533,0,0,1,.4.123.827.827,0,0,1,.656.016a.657.657,0,0,1,.268,0,.565.565,0,0,1,.247.116.715.715,0,0,1,.194.255A10.962,10.962,0,0,0,3.65,3.469c.917.907,1.942,1.728,2.938,2.57A20.318,20.318,0,0,1,9.345,8.731a8.6,8.6,0,0,1,1.745,3.453.783.783,0,0,1,.017.28.676.676,0,0,1-.076.237.723.723,0,0,1-.147.189.826.826,0,0,1-.2.134v0a.868.868,0,0,1-.306.084.746.746,0,0,1-.307-.036.617.617,0,0,1-.259-.171.722.722,0,0,1-.161-.321,6.909,6.909,0,0,0-.678-1.739A9.337,9.337,0,0,0,7.917,9.323a15.369,15.369,0,0,0-1.3-1.347c-.46-.426-.937-.831-1.41-1.224-.489-.407-.984-.814-1.47-1.233s-.961-.85-1.41-1.3a13.627,13.627,0,0,1-1.252-1.44,9.645,9.645,0,0,1-1-1.642A.79.79,0,0,1,0,.825.725.725,0,0,1,.047.542.812.812,0,0,1,.188.3.891.891,0,0,1,.4.123" transform="translate(36.817 40.179)" fill="#323232"/>
      </g>
    </g>
    <g id="Group_168" data-name="Group 168" transform="translate(24 7302.162)">
      <g id="Group_167" data-name="Group 167" transform="translate(0 0)" clip-path="url(#clip-path-2)">
        <path id="Path_340" data-name="Path 340" d="M35.763,3.71h1.525V5.235a.728.728,0,1,0,1.456,0V3.71h1.525a.728.728,0,0,0,0-1.456H38.744V.729a.728.728,0,0,0-1.456,0V2.254H35.763a.728.728,0,0,0,0,1.456" transform="translate(-22.141 0)" fill="#37434c"/>
        <path id="Path_341" data-name="Path 341" d="M.355,44.4l1.867,1.021,1.021,1.867a.734.734,0,0,0,1.258,0l1.021-1.867L7.389,44.4a.734.734,0,0,0,0-1.257L5.522,42.125,4.5,40.258a.636.636,0,0,0-.628-.355.636.636,0,0,0-.63.355L2.222,42.125.355,43.147a.734.734,0,0,0,0,1.257m1.892-.629a4.106,4.106,0,0,0,1.027-.6,4.1,4.1,0,0,0,.6-1.026,4.1,4.1,0,0,0,.6,1.026,4.088,4.088,0,0,0,1.027.6,4.106,4.106,0,0,0-1.027.6,4.093,4.093,0,0,0-.6,1.026,4.114,4.114,0,0,0-.6-1.026,4.1,4.1,0,0,0-1.027-.6" transform="translate(0 -25.216)" fill="#37434c"/>
      </g>
    </g>
    <g id="Group_194" data-name="Group 194" transform="translate(138 7376.178)">
      <g id="Group_167-2" data-name="Group 167" transform="translate(0 0)" clip-path="url(#clip-path-2)">
        <path id="Path_340-2" data-name="Path 340" d="M35.763,3.71h1.525V5.235a.728.728,0,1,0,1.456,0V3.71h1.525a.728.728,0,0,0,0-1.456H38.744V.729a.728.728,0,0,0-1.456,0V2.254H35.763a.728.728,0,0,0,0,1.456" transform="translate(-22.141 0)" fill="#37434c"/>
        <path id="Path_341-2" data-name="Path 341" d="M.355,44.4l1.867,1.021,1.021,1.867a.734.734,0,0,0,1.258,0l1.021-1.867L7.389,44.4a.734.734,0,0,0,0-1.257L5.522,42.125,4.5,40.258a.636.636,0,0,0-.628-.355.636.636,0,0,0-.63.355L2.222,42.125.355,43.147a.734.734,0,0,0,0,1.257m1.892-.629a4.106,4.106,0,0,0,1.027-.6,4.1,4.1,0,0,0,.6-1.026,4.1,4.1,0,0,0,.6,1.026,4.088,4.088,0,0,0,1.027.6,4.106,4.106,0,0,0-1.027.6,4.093,4.093,0,0,0-.6,1.026,4.114,4.114,0,0,0-.6-1.026,4.1,4.1,0,0,0-1.027-.6" transform="translate(0 -25.216)" fill="#37434c"/>
      </g>
    </g>
  </g>
</svg>
