<svg xmlns="http://www.w3.org/2000/svg" xmlns:xlink="http://www.w3.org/1999/xlink" width="101.691" height="101.292" viewBox="0 0 101.691 101.292">
  <defs>
    <clipPath id="clip-path">
      <rect id="Rectangle_155" data-name="Rectangle 155" width="101.691" height="101.292" transform="translate(0 0)" fill="none"/>
    </clipPath>
  </defs>
  <g id="Group_142" data-name="Group 142" transform="translate(0 -0.004)">
    <g id="Group_141" data-name="Group 141" transform="translate(0 0.004)" clip-path="url(#clip-path)">
      <path id="Path_145" data-name="Path 145" d="M106.421,131.523H49.756A4.6,4.6,0,0,1,45,127.091V49.437a4.6,4.6,0,0,1,4.756-4.432h56.665a4.6,4.6,0,0,1,4.756,4.432v77.654a4.6,4.6,0,0,1-4.756,4.432" transform="translate(-43.513 -43.518)" fill="#fff"/>
      <path id="Path_146" data-name="Path 146" d="M62.909,89.5H6.244a6.388,6.388,0,0,1-4.377-1.7A5.73,5.73,0,0,1,0,83.577V5.924A5.729,5.729,0,0,1,1.866,1.7,6.388,6.388,0,0,1,6.244,0H62.909a6.388,6.388,0,0,1,4.377,1.7,5.729,5.729,0,0,1,1.866,4.222V83.577A5.729,5.729,0,0,1,67.286,87.8a6.388,6.388,0,0,1-4.377,1.7M6.244,2.979A3.123,3.123,0,0,0,2.975,5.924V83.577a3.123,3.123,0,0,0,3.269,2.945H62.909a3.123,3.123,0,0,0,3.269-2.945V5.924a3.123,3.123,0,0,0-3.269-2.945Z" transform="translate(0 -0.004)" fill="#5a5a5a"/>
      <path id="Path_147" data-name="Path 147" d="M337.224,1385.859H293.247a2.247,2.247,0,0,1,0-4.494h43.977a2.247,2.247,0,1,1,0,4.494" transform="translate(-281.381 -1335.706)" fill="#b4b4b4"/>
      <path id="Path_148" data-name="Path 148" d="M321.012,1667.489H293.247a2.247,2.247,0,1,1,0-4.494h27.765a2.247,2.247,0,1,1,0,4.494" transform="translate(-281.381 -1608.027)" fill="#b4b4b4"/>
      <path id="Path_149" data-name="Path 149" d="M337.224,1949.118H293.247a2.247,2.247,0,0,1,0-4.494h43.977a2.247,2.247,0,1,1,0,4.494" transform="translate(-281.381 -1880.347)" fill="#b4b4b4"/>
      <path id="Path_150" data-name="Path 150" d="M307.872,2230.747H293.247a2.247,2.247,0,1,1,0-4.494h14.625a2.247,2.247,0,1,1,0,4.494" transform="translate(-281.381 -2152.667)" fill="#b4b4b4"/>
      <path id="Path_151" data-name="Path 151" d="M142.836,326.531H90v-23.2h52.836a2.589,2.589,0,0,1,2.589,2.589v18.024a2.589,2.589,0,0,1-2.589,2.589" transform="translate(-87.025 -293.303)" fill="#ee2c2a"/>
      <path id="Path_152" data-name="Path 152" d="M401.68,447.971h4.839c2.96,0,5.343,1.071,5.343,4.387,0,3.211-2.45,4.627-5.343,4.627h-1.752v4.627H401.68Zm4.66,6.563c1.691,0,2.5-.758,2.5-2.176s-.87-1.937-2.5-1.937h-1.573v4.113Z" transform="translate(-388.403 -433.164)" fill="#fff"/>
      <path id="Path_153" data-name="Path 153" d="M778.976,447.971h3.768c3.957,0,6.559,2.071,6.559,6.757s-2.6,6.883-6.385,6.883h-3.943Zm3.6,11.154c2.122,0,3.565-1.133,3.565-4.4s-1.443-4.271-3.565-4.271h-.51v8.668Z" transform="translate(-753.228 -433.164)" fill="#fff"/>
      <path id="Path_154" data-name="Path 154" d="M1180.737,447.971h9.07v2.589h-5.982v3.161h5.108v2.589h-5.108v5.3h-3.087Z" transform="translate(-1141.709 -433.164)" fill="#fff"/>
      <path id="Path_155" data-name="Path 155" d="M1587.025,1549.473a25.459,25.459,0,1,1-25.458-25.458,25.459,25.459,0,0,1,25.458,25.458" transform="translate(-1485.334 -1473.64)" fill="#4484ce"/>
      <path id="Path_156" data-name="Path 156" d="M1756.71,1968.952l-10.116-10.116-5.636,5.635,15.751,15.751,1.666-1.666,3.97-3.97,15.988-15.988-5.636-5.636Z" transform="translate(-1683.413 -1888.412)" fill="#fff"/>
    </g>
  </g>
</svg>
