<svg xmlns="http://www.w3.org/2000/svg" xmlns:xlink="http://www.w3.org/1999/xlink" width="49.298" height="49.268" viewBox="0 0 49.298 49.268">
  <defs>
    <clipPath id="clip-path">
      <rect id="Rectangle_67" data-name="Rectangle 67" width="49.298" height="49.268" fill="none"/>
    </clipPath>
  </defs>
  <g id="Group_16" data-name="Group 16" clip-path="url(#clip-path)">
    <path id="Path_31" data-name="Path 31" d="M44.051,33.992c-1.544-1.476-3.053-2.918-3.805-3.67a.527.527,0,0,0-.48-.15c-3.821.695-5.127,2.98-6.05,5.068a.974.974,0,0,1-.79.537c-2.155.412-7.522-2.192-12.418-7.089S13.015,18.431,13.418,16.27a.972.972,0,0,1,.538-.789c2.087-.923,4.372-2.228,5.068-6.051a.54.54,0,0,0-.15-.48c-.752-.752-2.2-2.261-3.671-3.805-1.546-1.618-3.127-3.273-3.993-4.137A.554.554,0,0,0,10.795.85C7.362,1.061,2.2,4.268.568,7.206-2,11.817,4.374,24.027,14.771,34.424,23.614,43.267,33.765,49.2,39.442,49.2a5.217,5.217,0,0,0,2.549-.568c2.936-1.634,6.145-6.8,6.355-10.228a.538.538,0,0,0-.158-.416c-.865-.865-2.519-2.447-4.137-3.993" transform="translate(0 0.071)" fill="#f19f4d"/>
    <path id="Path_32" data-name="Path 32" d="M47,17.877A21.366,21.366,0,0,0,29.083.019a1.625,1.625,0,0,0-.506,3.21A18.118,18.118,0,0,1,43.8,18.393,1.625,1.625,0,1,0,47,17.877" transform="translate(2.272 0)" fill="#f19f4d"/>
    <path id="Path_33" data-name="Path 33" d="M29.168,10.215a8.569,8.569,0,0,1,6.974,6.974,1.626,1.626,0,0,0,1.592,1.31,1.6,1.6,0,0,0,.319-.033,1.625,1.625,0,0,0,1.279-1.91A11.817,11.817,0,0,0,29.8,7.027a1.625,1.625,0,1,0-.633,3.188" transform="translate(2.326 0.585)" fill="#f19f4d"/>
    <path id="Path_34" data-name="Path 34" d="M27.54,15.65A3.474,3.474,0,0,1,30.388,18.5a1.625,1.625,0,0,0,1.593,1.31,1.675,1.675,0,0,0,.317-.03,1.628,1.628,0,0,0,1.279-1.911,6.718,6.718,0,0,0-5.4-5.4,1.625,1.625,0,1,0-.633,3.188" transform="translate(2.19 1.038)" fill="#f19f4d"/>
  </g>
</svg>
